<svg width="240" height="256" viewBox="0 0 240 256" xmlns="http://www.w3.org/2000/svg"><title>arrow-up</title><path d="M69.533 140.155c-6.25 6.25-16.377 6.252-22.628 0L35.59 128.843c-6.247-6.248-6.242-16.384.002-22.628l67.278-67.278c9.376-9.376 24.574-9.377 33.944-.008l67.786 67.786c6.25 6.25 6.25 16.378 0 22.628l-11.313 11.314c-6.248 6.25-16.377 6.25-22.624.003l-26.817-26.818V224.1c0 8.835-7.16 15.997-16 15.997h-16c-8.837 0-16-7.16-16-15.998V113.84l-26.313 26.313z" fill="#4A4A4A" fill-rule="evenodd"/></svg>