<svg width="240" height="256" viewBox="0 0 240 256" xmlns="http://www.w3.org/2000/svg"><title>arrow-down</title><path d="M69.436 131.942c-6.25-6.25-16.378-6.252-22.628 0l-11.314 11.313c-6.25 6.248-6.243 16.384 0 22.628l67.28 67.278c9.374 9.377 24.573 9.38 33.942.01l67.787-67.787c6.248-6.25 6.25-16.377 0-22.628L193.19 131.44c-6.25-6.247-16.377-6.25-22.624-.002l-26.817 26.817V47.998c0-8.835-7.162-15.998-16-15.998h-16c-8.838 0-16 7.162-16 15.998v110.257l-26.314-26.313z" fill="#4A4A4A" fill-rule="evenodd"/></svg>