<svg width="240" height="256" viewBox="0 0 240 256" xmlns="http://www.w3.org/2000/svg"><title>arrow-right</title><path d="M115.94 208.94l11.315 11.315c6.248 6.248 16.384 6.243 22.628 0l67.278-67.28c9.377-9.375 9.38-24.574.01-33.943l-67.787-67.786c-6.25-6.25-16.377-6.252-22.628 0L115.44 62.558c-6.247 6.247-6.25 16.376-.002 22.623L142.255 112H31.998C23.163 112 16 119.16 16 128v16c0 8.837 7.162 16 15.998 16h110.257l-26.313 26.312c-6.25 6.25-6.252 16.378 0 22.63z" fill="#4A4A4A" fill-rule="evenodd"/></svg>