<svg width="240" height="256" viewBox="0 0 240 256" xmlns="http://www.w3.org/2000/svg"><title>button-a</title><path d="M120 240c57.438 0 104-46.562 104-104S177.438 32 120 32 16 78.562 16 136s46.562 104 104 104zm0-16c48.6 0 88-39.4 88-88s-39.4-88-88-88-88 39.4-88 88 39.4 88 88 88zm-22.38-39.767c-1.294 4.23-4.62 7.8-10.62 7.8-6 0-7.34-6.832-6-11.033l29.294-93.275c1.34-4.207 6.008-7.617 10.43-7.617h-1.448c4.42 0 9.09 3.416 10.43 7.617L160 181c1.34 4.207-1 11.033-7 11.033s-9.326-3.57-10.62-7.8L134.973 160h-29.944l-7.41 24.233zM120 111.03L130.08 144h-20.16L120 111.03z" fill="#4A4A4A" fill-rule="evenodd"/></svg>