<svg width="240" height="256" viewBox="0 0 240 256" xmlns="http://www.w3.org/2000/svg"><title>button-r</title><g fill="#4A4A4A" fill-rule="evenodd"><path d="M224 104v104.006c0 17.67-14.317 31.994-32.002 31.994H48.002C30.328 240 16 225.683 16 207.998V64.002C16 46.328 30.33 32 47.994 32H152c4.42 0 10.53 2.53 13.65 5.65l52.7 52.7c3.12 3.12 5.65 9.228 5.65 13.65zm-16 2.156V208c0 8.836-7.172 16-16.007 16H48.007C39.167 224 32 216.828 32 207.993V64.007C32 55.167 39.172 48 48 48h101.844c2.21 0 5.274 1.272 6.837 2.835l48.485 48.484c1.566 1.564 2.835 4.627 2.835 6.836z"/><path d="M160 112c0-17.673-14.325-32-32-32H88.007C83.585 80 80 83.588 80 87.994v96.012c0 4.415 3.59 7.994 8 7.994 4.418 0 8-3.588 8-8.007V144h16.452l33.724 44.618c2.664 3.525 7.683 4.238 11.228 1.58l-.808.605c3.537-2.653 4.245-7.65 1.567-11.18l-27.125-35.758C147.55 142.39 160 128.975 160 112zM96 96v32h32c8.837 0 16-7.162 16-16 0-8.837-7.166-16-16-16H96z"/></g></svg>