<svg width="240" height="256" viewBox="0 0 240 256" xmlns="http://www.w3.org/2000/svg"><title>button-l</title><g fill="#4A4A4A" fill-rule="evenodd"><path d="M74.35 37.65l-52.7 52.7C18.53 93.47 16 99.577 16 104v104.006C16 225.676 30.317 240 48.002 240h143.996C209.672 240 224 225.683 224 207.998V64.002C224 46.328 209.67 32 192.006 32H88c-4.42 0-10.53 2.53-13.65 5.65zm9.974 13.18L34.83 100.324c-1.563 1.563-2.83 4.62-2.83 6.833V208c0 8.836 7.172 16 16.007 16h143.986c8.84 0 16.007-7.172 16.007-16.007V64.007C208 55.167 200.845 48 192 48H91.156c-2.21 0-5.272 1.27-6.833 2.83z"/><path d="M80 183.99V88.01c0-4.424 3.59-8.01 8-8.01 4.418 0 8 3.588 8 8v88h55.99c4.424 0 8.01 3.59 8.01 8 0 4.418-3.58 8-8 8H88c-4.418 0-8-3.584-8-8.01z"/></g></svg>