<svg width="240" height="256" viewBox="0 0 240 256" xmlns="http://www.w3.org/2000/svg"><title>button-y</title><path d="M120 240c57.438 0 104-46.562 104-104S177.438 32 120 32 16 78.562 16 136s46.562 104 104 104zm0-16c48.6 0 88-39.4 88-88s-39.4-88-88-88-88 39.4-88 88 39.4 88 88 88zm-8-87.96v47.957c0 4.42 3.59 8.003 8 8.003 4.418 0 8-3.586 8-8.003V136.04l27.768-41.203c2.374-3.732 1.212-8.575-2.586-10.834l.315.188c-3.795-2.255-8.808-1.07-11.19 2.65l-22.065 34.497L98.177 86.84c-2.383-3.723-7.416-4.95-11.247-2.743-3.822 2.202-4.994 7.004-2.6 10.714L112 136.04z" fill="#4A4A4A" fill-rule="evenodd"/></svg>