<svg width="240" height="256" viewBox="0 0 240 256" xmlns="http://www.w3.org/2000/svg"><title>button-b</title><path d="M120 240c57.438 0 104-46.562 104-104S177.438 32 120 32 16 78.562 16 136s46.562 104 104 104zm0-16c48.6 0 88-39.4 88-88s-39.4-88-88-88-88 39.4-88 88 39.4 88 88 88zm8-144c17.675 0 32 14.327 32 32 0 9.56-5.19 18.138-11.834 24C154.81 141.865 160 150.444 160 160c0 17.677-14.325 32-32 32H88.007c-4.422 0-8.007-3.584-8.007-8.01V88.01c0-4.424 3.588-8.01 8.007-8.01H128zm-32 64v32h32c8.837 0 16-7.162 16-16 0-8.837-7.166-16-16-16H96zm32-16c8.837 0 16-7.162 16-16 0-8.837-7.166-16-16-16H96v32h32z" fill="#4A4A4A" fill-rule="evenodd"/></svg>