<svg width="255" height="256" viewBox="0 0 255 256" xmlns="http://www.w3.org/2000/svg"><title>close</title><path d="M75.314 203.314c-6.25 6.248-16.38 6.248-22.628 0-6.248-6.25-6.248-16.38 0-22.628L105 128 52.686 75.314c-6.248-6.25-6.248-16.38 0-22.628 6.25-6.248 16.38-6.248 22.628 0L128 105l52.686-52.314c6.25-6.248 16.38-6.248 22.628 0 6.248 6.25 6.248 16.38 0 22.628L151 128l52.314 52.686c6.248 6.25 6.248 16.38 0 22.628-6.25 6.248-16.38 6.248-22.628 0L128 151l-52.686 52.314z" fill="#4A4A4A" fill-rule="evenodd"/></svg>