<svg width="240" height="256" viewBox="0 0 240 256" xmlns="http://www.w3.org/2000/svg"><title>cloud</title><path d="M16 160c0-20.927 13.393-38.727 32.075-45.295-.05-.895-.075-1.797-.075-2.705 0-26.51 21.49-48 48-48 14.83 0 28.088 6.725 36.893 17.29C136.458 80.448 140.177 80 144 80c26.51 0 48 21.49 48 48 0 .267-.002.533-.007.8C210.255 132.5 224 148.645 224 168c0 22.09-17.91 40-40 40H64c-26.51 0-48-21.49-48-48zm156-16s4-10.17 4-16c0-17.673-14.327-32-32-32-10 0-17.797 5.4-17.797 5.4C121.83 88.938 109.958 80 96 80c-17.673 0-32 14.327-32 32 0 5.956 1.627 11.533 4.462 16.31C47 128.31 32 142.326 32 160c0 17.673 14.327 32 32 32h120c13.255 0 24-10.745 24-24s-10.745-24-24-24h-12z" fill="#4A4A4A" fill-rule="evenodd"/></svg>