<svg width="240" height="256" viewBox="0 0 240 256" xmlns="http://www.w3.org/2000/svg"><title>club</title><path d="M168 208c30.928 0 56-25.072 56-56 0-28.76-21.682-52.458-49.592-55.637C175.448 92.4 176 88.26 176 84c0-28.72-25.072-52-56-52S64 55.28 64 84c0 4.26.552 8.4 1.592 12.363C37.682 99.543 16 123.24 16 152c0 30.928 25.072 56 56 56 14.443 0 27.61-5.468 37.54-14.446-2.13 7.406-5.503 17.255-9.54 22.446-7 9-15.285 14.3-15.285 14.3-6.962 5.44-5.55 9.7 3.286 9.7h64c8.843 0 10.307-4.342 3.285-9.7 0 0-8.285-5.3-15.285-14.3-2.83-3.64-6.463-13.996-8.986-21.95C140.88 202.732 153.824 208 168 208z" fill="#4A4A4A" fill-rule="evenodd"/></svg>