<svg width="240" height="256" viewBox="0 0 240 256" xmlns="http://www.w3.org/2000/svg"><title>cross</title><path d="M34.505 61.82c-3.127-3.128-3.123-8.202-.005-11.32 3.124-3.124 8.19-3.124 11.32.005l74.18 74.18 74.18-74.18c3.128-3.127 8.202-3.123 11.32-.005 3.124 3.124 3.124 8.19-.005 11.32L131.315 136l74.18 74.18c3.127 3.128 3.123 8.202.005 11.32-3.124 3.124-8.19 3.124-11.32-.005L120 147.315l-74.18 74.18c-3.128 3.127-8.202 3.123-11.32.005-3.124-3.124-3.124-8.19.005-11.32l74.18-74.18-74.18-74.18z" fill="#4A4A4A" fill-rule="evenodd"/></svg>