<svg width="240" height="256" viewBox="0 0 240 256" xmlns="http://www.w3.org/2000/svg"><title>dpad</title><path d="M95.997 32h48.006C152.838 32 160 39.15 160 48v43.99c0 2.215 1.794 4.01 4.01 4.01H208c8.84 0 16 7.17 16 15.997v48.006c0 8.835-7.15 15.997-16 15.997h-43.99c-2.215 0-4.01 1.794-4.01 4.01V224c0 8.84-7.17 16-15.997 16H95.997C87.162 240 80 232.85 80 224v-43.99c0-2.215-1.794-4.01-4.01-4.01H32c-8.84 0-16-7.17-16-15.997v-48.006C16 103.162 23.15 96 32 96h43.99c2.215 0 4.01-1.794 4.01-4.01V48.006C80 39.16 87.17 32 95.997 32zM100 48h40c2.215 0 4 1.797 4 4v44c0 8.837 7.163 16 16 16h43.997c2.21-.035 4.003 1.784 4.003 4v40c0 2.215-1.795 4-4.003 4H160c-8.837 0-16 7.163-16 16v43.997c0 2.21-1.784 4.003-4 4.003h-40c-2.215 0-4-1.795-4-4.003V176c0-8.837-7.163-16-16-16H36.004c-2.21 0-4.003-1.784-4.003-4v-40c0-2.215 1.795-4 4.003-4H80c8.837 0 16-7.163 16-16V52.004c0-2.21 1.784-4.003 4-4.003z" fill="#4A4A4A" fill-rule="evenodd"/></svg>