<svg width="240" height="256" viewBox="0 0 240 256" xmlns="http://www.w3.org/2000/svg"><title>envelope</title><path d="M32 107v68.998C32 184.836 39.165 192 48 192h143.993c8.84 0 16.007-7.155 16.007-16.002V107l-37 37H69l-37-37zm16.007-27h143.986c5.63 0 10.584 2.91 13.438 7.307l-40.773 40.774H75.284l-40.74-40.74C37.39 82.922 42.357 80 48.006 80zM16 175.997C16 193.672 30.317 208 48.002 208h143.996C209.672 208 224 193.666 224 175.997V96.003C224 78.328 209.683 64 191.998 64H48.002C30.328 64 16 78.334 16 96.003v79.994z" fill="#4A4A4A" fill-rule="evenodd"/></svg>