<svg width="240" height="256" viewBox="0 0 240 256" xmlns="http://www.w3.org/2000/svg"><title>face-angry</title><g fill="#4A4A4A" fill-rule="evenodd"><path d="M16 32v208h208V32H16zm16 16v176h176V48H32z"/><path d="M120 160c20.225 0 50.392 12.057 50.392 12.057 3.097 1.162 5.608 4.794 5.608 8.106v-.16c0 6.626-4.944 9.872-11.077 7.4 0 0-24.305-11.403-44.923-11.403-20.618 0-44.923 11.404-44.923 11.404-6.118 2.538-11.077-.78-11.077-7.402v.16c0-3.313 2.512-6.963 5.608-8.105 0 0 30.167-12.057 50.392-12.057zM69.686 85.686c-3.124 3.124-3.125 8.19.003 11.317l9.493 9.494c3.126 3.126 8.2 3.12 11.317.003 3.124-3.124 3.125-8.188-.003-11.317l-9.494-9.494c-3.126-3.127-8.2-3.122-11.317-.004zm100.814 0c3.124 3.124 3.125 8.19-.003 11.317l-9.494 9.494c-3.126 3.126-8.2 3.12-11.317.003-3.124-3.124-3.125-8.188.003-11.317l9.493-9.494c3.126-3.127 8.2-3.122 11.317-.004z"/></g></svg>