<svg width="240" height="256" viewBox="0 0 240 256" xmlns="http://www.w3.org/2000/svg"><title>face-neutral</title><g fill="#4A4A4A" fill-rule="evenodd"><path d="M16 32v208h208V32H16zm16 16v176h176V48H32z"/><path d="M88 160c-4.418 0-8 3.59-8 8 0 4.418 3.58 8 8 8h64c4.418 0 8-3.59 8-8 0-4.418-3.58-8-8-8H88zm63.992-64c-4.414 0-7.992 3.59-7.992 8 0 4.418 3.578 8 7.992 8h16.016c4.414 0 7.992-3.59 7.992-8 0-4.418-3.578-8-7.992-8h-16.016zm-80 0C67.578 96 64 99.59 64 104c0 4.418 3.578 8 7.992 8h16.016c4.414 0 7.992-3.59 7.992-8 0-4.418-3.578-8-7.992-8H71.992z"/></g></svg>