<svg width="240" height="256" viewBox="0 0 240 256" xmlns="http://www.w3.org/2000/svg"><title>face-sad</title><g fill="#4A4A4A" fill-rule="evenodd"><path d="M16 32v208h208V32H16zm16 16v176h176V48H32z"/><path d="M149.593 101.31c-3.124 3.125-3.125 8.19.003 11.317l9.494 9.494c3.126 3.127 8.2 3.122 11.317.004 3.124-3.124 3.125-8.188-.003-11.316l-9.494-9.494c-3.126-3.126-8.2-3.12-11.317-.003zm-59.186 0c3.124 3.125 3.125 8.19-.003 11.317l-9.494 9.494c-3.126 3.127-8.2 3.122-11.317.004-3.124-3.124-3.125-8.188.003-11.316l9.494-9.494c3.126-3.126 8.2-3.12 11.317-.003zM96 184c0 4.418 3.588 8 8.007 8h31.986c4.422 0 8.007-3.59 8.007-8 0-4.418-3.588-8-8.007-8h-31.986c-4.422 0-8.007 3.59-8.007 8z"/></g></svg>