<svg width="240" height="256" viewBox="0 0 240 256" xmlns="http://www.w3.org/2000/svg"><title>face-happy</title><g fill="#4A4A4A" fill-rule="evenodd"><path d="M16 32v208h208V32H16zm16 16v176h176V48H32z"/><path d="M120 192c-20.225 0-50.392-12.057-50.392-12.057C66.51 178.78 64 175.15 64 171.837v.16c0-6.626 4.944-9.872 11.077-7.4 0 0 24.305 11.403 44.923 11.403 20.618 0 44.923-11.404 44.923-11.404 6.117-2.538 11.077.78 11.077 7.402v-.16c0 3.313-2.512 6.963-5.608 8.105 0 0-30.167 12.057-50.392 12.057zM88 80c-4.418 0-8 3.578-8 7.992v16.016c0 4.414 3.59 7.992 8 7.992 4.418 0 8-3.578 8-7.992V87.992C96 83.578 92.41 80 88 80zm64 0c-4.418 0-8 3.578-8 7.992v16.016c0 4.414 3.59 7.992 8 7.992 4.418 0 8-3.578 8-7.992V87.992c0-4.414-3.59-7.992-8-7.992z"/></g></svg>