<svg width="255" height="256" viewBox="0 0 255 256" xmlns="http://www.w3.org/2000/svg"><title>film</title><path d="M31.997 32C23.162 32 16 39.16 16 47.998v176.004C16 232.838 23.168 240 31.997 240h192.006c8.835 0 15.997-7.16 15.997-15.998V47.998C240 39.162 232.832 32 224.003 32H31.997zM88 144c-4.42 0-8 3.58-8 8v64c0 4.418 3.588 8 8 8h80c4.42 0 8-3.58 8-8v-64c0-4.418-3.588-8-8-8H88zM39.99 192c-4.414 0-7.992 3.578-7.992 7.992v16.016c0 4.414 3.578 7.992 7.992 7.992h16.016c4.414 0 7.992-3.578 7.992-7.992v-16.016c0-4.414-3.578-7.992-7.992-7.992H39.992zm0-48c-4.414 0-7.992 3.578-7.992 7.992v16.016c0 4.414 3.578 7.992 7.992 7.992h16.016c4.414 0 7.992-3.578 7.992-7.992v-16.016c0-4.414-3.578-7.992-7.992-7.992H39.992zm0-48C35.578 96 32 99.578 32 103.992v16.016c0 4.414 3.578 7.992 7.992 7.992h16.016c4.414 0 7.992-3.578 7.992-7.992v-16.016C64 99.578 60.422 96 56.008 96H39.992zm0-48C35.578 48 32 51.578 32 55.992v16.016C32 76.422 35.578 80 39.992 80h16.016C60.422 80 64 76.422 64 72.008V55.992C64 51.578 60.422 48 56.008 48H39.992zm160 48c-4.414 0-7.992 3.578-7.992 7.992v16.016c0 4.414 3.578 7.992 7.992 7.992h16.016c4.414 0 7.992-3.578 7.992-7.992v-16.016c0-4.414-3.578-7.992-7.992-7.992h-16.016zm0-48c-4.414 0-7.992 3.578-7.992 7.992v16.016c0 4.414 3.578 7.992 7.992 7.992h16.016c4.414 0 7.992-3.578 7.992-7.992V55.992c0-4.414-3.578-7.992-7.992-7.992h-16.016zm0 144c-4.414 0-7.992 3.578-7.992 7.992v16.016c0 4.414 3.578 7.992 7.992 7.992h16.016c4.414 0 7.992-3.578 7.992-7.992v-16.016c0-4.414-3.578-7.992-7.992-7.992h-16.016zm0-48c-4.414 0-7.992 3.578-7.992 7.992v16.016c0 4.414 3.578 7.992 7.992 7.992h16.016c4.414 0 7.992-3.578 7.992-7.992v-16.016c0-4.414-3.578-7.992-7.992-7.992h-16.016zM88 48c-4.42 0-8 3.58-8 8v64c0 4.418 3.588 8 8 8h80c4.42 0 8-3.58 8-8V56c0-4.418-3.588-8-8-8H88z" fill="#4A4A4A" fill-rule="evenodd"/></svg>