<svg width="255" height="256" viewBox="0 0 255 256" xmlns="http://www.w3.org/2000/svg"><title>first</title><path d="M160 149.653v38.05c0 17.678-11.5 23.507-25.684 13.028l-72.68-53.69c-14.18-10.475-14.184-27.468 0-37.947l72.68-53.69C148.496 44.926 160 50.756 160 68.432v38.304l69.316-51.206C243.496 45.056 255 50.886 255 68.56v119.27c0 17.68-11.5 23.508-25.684 13.03L160 149.653zM0 65.6v125.193c0 8.507 7.162 15.403 16 15.403 8.837 0 16-6.904 16-15.403V65.6c0-8.508-7.162-15.404-16-15.404-8.837 0-16 6.905-16 15.403z" fill="#4A4A4A" fill-rule="evenodd"/></svg>