<svg width="240" height="256" viewBox="0 0 240 256" xmlns="http://www.w3.org/2000/svg"><title>frame</title><path d="M201.764 160h-41.77c-8.833 0-15.994 7.162-15.994 16v41.232L201.764 160zM48 224c-8.836 0-16-7.172-16-16.007V64.007C32 55.167 39.172 48 48.007 48h143.986C200.833 48 208 55.157 208 64v80h-48.008C142.322 144 128 158.325 128 175.992V224H48zm-32-16.002C16 225.672 30.326 240 47.99 240H144l80-80V63.99C224 46.323 209.683 32 191.998 32H48.002C30.328 32 16 46.317 16 64.002v143.996z" fill="#4A4A4A" fill-rule="evenodd"/></svg>