<svg width="256" height="256" viewBox="0 0 256 256" xmlns="http://www.w3.org/2000/svg"><title>last</title><path d="M96 149.457v38.05c0 17.678 11.5 23.507 25.684 13.028l72.68-53.69c14.18-10.477 14.184-27.47 0-37.948l-72.68-53.69C107.504 44.73 96 50.56 96 68.234v38.306L26.684 55.335C12.504 44.86 1 50.69 1 68.364v119.27c0 17.68 11.5 23.508 25.684 13.03L96 149.456zm160-84.054v125.194c0 8.507-7.162 15.403-16 15.403-8.837 0-16-6.904-16-15.403V65.403C224 56.896 231.162 50 240 50c8.837 0 16 6.904 16 15.403z" fill="#4A4A4A" fill-rule="evenodd"/></svg>