<svg width="240" height="256" viewBox="0 0 240 256" xmlns="http://www.w3.org/2000/svg"><title>loop</title><path d="M80.006 64C53.493 64 32 85.495 32 112.005v63.99C32 202.507 53.493 224 80.006 224h79.988C186.507 224 208 202.505 208 175.995V104l-32 24v47.992c0 8.848-7.164 16.008-16.002 16.008H80.002C71.155 192 64 184.833 64 175.992v-62.984C64 104.16 71.164 97 80.002 97h31.884v28.205c0 4.418 2.845 5.823 6.348 3.144l56.595-43.29c3.505-2.68 3.502-7.03 0-9.71l-56.596-43.288c-3.506-2.682-6.348-1.268-6.348 3.144V64h-31.88z" fill="#4A4A4A" fill-rule="evenodd"/></svg>