<svg width="240" height="256" viewBox="0 0 240 256" xmlns="http://www.w3.org/2000/svg"><title>phone</title><path d="M64 48.007v159.986C64 216.833 71.155 224 80.002 224h79.996c8.838 0 16.002-7.172 16.002-16.007V48.007C176 39.167 168.845 32 159.998 32H80.002C71.164 32 64 39.172 64 48.007zm16 3.996v119.994c0 2.21 1.783 4.003 3.995 4.003h72.01c2.207 0 3.995-1.782 3.995-4.003V52.003c0-2.21-1.783-4.003-3.995-4.003h-72.01C81.788 48 80 49.782 80 52.003zM112 200.5c0 4.142 3.354 7.5 7.508 7.5h.984c4.147 0 7.508-3.366 7.508-7.5 0-4.142-3.354-7.5-7.508-7.5h-.984c-4.147 0-7.508 3.366-7.508 7.5z" fill="#4A4A4A" fill-rule="evenodd"/></svg>