<svg width="240" height="256" viewBox="0 0 240 256" xmlns="http://www.w3.org/2000/svg"><title>question</title><g fill="#4A4A4A" fill-rule="evenodd"><path d="M16 32v208h208V32H16zm16 16v176h176V48H32z"/><path d="M160 104c0-23-22.33-40-40-40-8.46 0-40 2-40 40 0 4.418 3.59 8 8 8 4.418 0 8-3.58 8-8 0-23 19.82-23.995 24-23.995 8.84 0 24.003 10 24.003 23.998C144.003 118 112 129 112 151.993v.013c0 4.415 3.59 7.994 8 7.994 4.418 0 8-3.59 8-8 0 0 0 8 0 0 0-11 32-25 32-48zm-40 88c4.418 0 8-3.582 8-8s-3.582-8-8-8-8 3.582-8 8 3.582 8 8 8z"/></g></svg>