<svg width="240" height="256" viewBox="0 0 240 256" xmlns="http://www.w3.org/2000/svg"><title>snowman</title><path d="M168.958 115.207C183.13 128.357 192 147.142 192 168c0 39.765-32.235 72-72 72s-72-32.235-72-72c0-20.858 8.87-39.644 23.042-52.793C66.556 107.152 64 97.874 64 88c0-30.928 25.072-56 56-56s56 25.072 56 56c0 9.874-2.556 19.152-7.042 27.207zm-22.95 3.185C154.57 111.056 160 100.162 160 88c0-22.09-17.91-40-40-40S80 65.91 80 88c0 12.162 5.428 23.056 13.993 30.392C76.163 127.76 64 146.46 64 168c0 30.928 25.072 56 56 56s56-25.072 56-56c0-21.54-12.162-40.24-29.993-49.608zM104 96c4.418 0 8-3.582 8-8s-3.582-8-8-8-8 3.582-8 8 3.582 8 8 8zm16 64c4.418 0 8-3.582 8-8s-3.582-8-8-8-8 3.582-8 8 3.582 8 8 8zm0 32c4.418 0 8-3.582 8-8s-3.582-8-8-8-8 3.582-8 8 3.582 8 8 8zm16-96c4.418 0 8-3.582 8-8s-3.582-8-8-8-8 3.582-8 8 3.582 8 8 8z" fill="#4A4A4A" fill-rule="evenodd"/></svg>