<svg width="240" height="256" viewBox="0 0 240 256" xmlns="http://www.w3.org/2000/svg"><title>spade</title><path d="M109.54 193.554C99.61 202.532 86.444 208 72 208c-30.928 0-56-25.072-56-56 0-13.112 4-26 12-35l80.696-80.853c6.243-6.256 16.365-6.256 22.608 0L212 117c8 8 12 21.888 12 35 0 30.928-25.072 56-56 56-14.176 0-27.12-5.267-36.986-13.95 2.523 7.954 6.156 18.31 8.986 21.95 7 9 15.285 14.3 15.285 14.3 7.022 5.358 5.558 9.7-3.286 9.7H88c-8.836 0-10.247-4.26-3.285-9.7 0 0 8.285-5.3 15.285-14.3 4.037-5.19 7.41-15.04 9.54-22.446z" stroke="#979797" fill="#4A4A4A" fill-rule="evenodd"/></svg>