<svg width="240" height="256" viewBox="0 0 240 256" xmlns="http://www.w3.org/2000/svg"><title>sun</title><g fill="#4A4A4A" fill-rule="evenodd"><circle cx="120" cy="136" r="40"/><path d="M69.18 96.25c3.084 3.157 8.124 3.178 11.242.06 3.124-3.124 3.148-8.225.072-11.374l-12.91-13.218c-3.084-3.158-8.123-3.18-11.24-.06-3.125 3.123-3.15 8.224-.073 11.374L69.18 96.25zm-13.156 47.734c4.414 0 7.992-3.59 7.992-8 0-4.42-3.577-8-7.992-8H40.01c-4.415 0-7.994 3.59-7.994 8 0 4.418 3.578 8 7.993 8h16.014zm24.397 42.983c3.073-3.175 3.025-8.287-.093-11.405-3.124-3.124-8.145-3.086-11.22.09L56.25 188.94c-3.073 3.173-3.025 8.285.093 11.403 3.124 3.124 8.145 3.087 11.22-.09l12.858-13.286zM128 199.992c0-4.414-3.59-7.992-8-7.992-4.418 0-8 3.578-8 7.992v16.016c0 4.414 3.59 7.992 8 7.992 4.418 0 8-3.578 8-7.992v-16.016zm42.82-24.24c-3.084-3.16-8.124-3.18-11.242-.063-3.124 3.124-3.148 8.225-.072 11.374l12.91 13.218c3.084 3.158 8.123 3.18 11.24.06 3.125-3.123 3.15-8.224.073-11.374l-12.91-13.217zm29.204-31.768c4.414 0 7.992-3.59 7.992-8 0-4.42-3.577-8-7.992-8H184.01c-4.415 0-7.994 3.59-7.994 8 0 4.418 3.578 8 7.993 8h16.014zM170.98 96.41c-3.173 3.07-8.284 3.018-11.402-.1-3.124-3.124-3.076-8.153.087-11.215l13.278-12.85c3.172-3.07 8.282-3.02 11.4.098 3.124 3.124 3.077 8.154-.087 11.216L170.98 96.41zM112 72.007c0 4.414 3.59 7.992 8 7.992 4.418 0 8-3.578 8-7.992V55.992c0-4.414-3.59-7.992-8-7.992-4.418 0-8 3.578-8 7.992v16.016z"/></g></svg>