<svg width="240" height="256" viewBox="0 0 240 256" xmlns="http://www.w3.org/2000/svg"><title>user</title><path d="M97.94 153.373L64 176v27.885C44.456 187.745 32 163.327 32 136c0-48.6 39.4-88 88-88s88 39.4 88 88c0 27.327-12.456 51.745-32 67.885V176l-33.94-22.627C152.87 146.213 160 133.94 160 120c0-22.09-17.91-40-40-40s-40 17.91-40 40c0 13.94 7.13 26.212 17.94 33.373zM120 240c57.438 0 104-46.562 104-104S177.438 32 120 32 16 78.562 16 136s46.562 104 104 104z" fill="#4A4A4A" fill-rule="evenodd"/></svg>