<svg width="240" height="240" viewBox="0 0 240 240" xmlns="http://www.w3.org/2000/svg"><title>uE00A-face-sad</title><g fill-rule="nonzero" fill="#000"><path d="M220 10c5.523 0 10 4.477 10 10v200c0 5.523-4.477 10-10 10H20c-5.523 0-10-4.477-10-10V20c0-5.523 4.477-10 10-10h200zM30 30v180h180V30H30z"/><path d="M110 180c-5.523 0-10-4.477-10-10s4.477-10 10-10h20c5.523 0 10 4.477 10 10s-4.477 10-10 10h-20zm35.528-81.056c-4.94-2.47-6.942-8.476-4.472-13.416 2.47-4.94 8.476-6.942 13.416-4.472l20 10c4.94 2.47 6.942 8.476 4.472 13.416-2.47 4.94-8.476 6.942-13.416 4.472l-20-10zm-60-17.888c4.94-2.47 10.946-.468 13.416 4.472 2.47 4.94.468 10.946-4.472 13.416l-20 10c-4.94 2.47-10.946.468-13.416-4.472-2.47-4.94-.468-10.946 4.472-13.416l20-10z"/></g></svg>