<svg width="240" height="240" viewBox="0 0 240 240" xmlns="http://www.w3.org/2000/svg"><title>uE003-button-y</title><g fill-rule="nonzero" fill="#000"><path d="M120 230c-60.751 0-110-49.249-110-110S59.249 10 120 10s110 49.249 110 110-49.249 110-110 110zm0-20c49.706 0 90-40.294 90-90s-40.294-90-90-90-90 40.294-90 90 40.294 90 90 90z"/><path d="M158 86c3.314-4.418 2.418-10.686-2-14s-10.686-2.418-14 2l-22 29.333L98 74c-3.314-4.418-9.582-5.314-14-2-4.418 3.314-5.314 9.582-2 14l28 37.333V160c0 5.523 4.477 10 10 10s10-4.477 10-10v-36.667L158 86z"/></g></svg>