<svg width="229" height="240" viewBox="0 0 229 240" xmlns="http://www.w3.org/2000/svg"><title>uE006-dpad</title><path d="M70 80V30c0-5.523 4.477-10 10-10h70c5.523 0 10 4.477 10 10v50h50c5.523 0 10 4.477 10 10v70c0 5.523-4.477 10-10 10h-50v50c0 5.523-4.477 10-10 10H80c-5.523 0-10-4.477-10-10v-50H20c-5.523 0-10-4.477-10-10V90c0-5.523 4.477-10 10-10h50zm20-40v50c0 5.523-4.477 10-10 10H30v50h50c5.523 0 10 4.477 10 10v50h50v-50c0-5.523 4.477-10 10-10h50v-50h-50c-5.523 0-10-4.477-10-10V40H90zm20 15a5 5 0 1 1 10 0v20a5 5 0 1 1-10 0V55zm0 120a5 5 0 1 1 10 0v20a5 5 0 1 1-10 0v-20zm55-45a5 5 0 1 1 0-10h20a5 5 0 1 1 0 10h-20zm-120 0a5 5 0 1 1 0-10h20a5 5 0 1 1 0 10H45z" fill="#000" fill-rule="evenodd"/></svg>