<svg width="240" height="240" viewBox="0 0 240 240" xmlns="http://www.w3.org/2000/svg"><title>uE004-button-l</title><g fill="#000" fill-rule="evenodd"><path d="M220 10c5.523 0 10 4.477 10 10v200c0 5.523-4.477 10-10 10H20c-5.523 0-10-4.477-10-10V80a10 10 0 0 1 2.929-7.071l60-60A10 10 0 0 1 80 10h140zM84.142 30L30 84.142V210h180V30H84.142z" fill-rule="nonzero"/><path d="M110 150V80c0-5.523-4.477-10-10-10s-10 4.477-10 10v80c0 5.523 4.477 10 10 10h60c5.523 0 10-4.477 10-10s-4.477-10-10-10h-50z"/></g></svg>