<svg width="220" height="240" viewBox="0 0 220 240" xmlns="http://www.w3.org/2000/svg"><title>uE00E-umbrella</title><path d="M120 120v70.004c0 5.521 4.475 9.996 10 9.996 5.526 0 10-4.473 10-10 0-5.523 4.477-10 10-10s10 4.477 10 10c0 16.574-13.43 30-30 30s-30-13.429-30-29.996V120H20c-6.085 0-10.76-5.39-9.9-11.414.037-.257.1-.644.192-1.152.14-.776.318-1.656.537-2.632.608-2.711 1.43-5.7 2.497-8.901 3.032-9.098 7.447-18.188 13.537-26.713C42.766 46.922 66.889 32.71 100 30.349V30c0-5.523 4.477-10 10-10s10 4.477 10 10v.349c33.111 2.36 57.234 16.573 73.137 38.839 6.09 8.525 10.505 17.615 13.537 26.713a92.034 92.034 0 0 1 2.497 8.901c.22.976.397 1.856.537 2.632.092.508.155.895.191 1.152C210.76 114.611 206.085 120 200 120h-80zm56.863-39.187C163.076 61.51 141.698 50 110 50S56.924 61.511 43.137 80.813C38.781 86.912 35.47 93.437 33.076 100h153.848c-2.394-6.563-5.705-13.088-10.061-19.187z" fill-rule="nonzero" fill="#000"/></svg>