<svg width="240" height="240" viewBox="0 0 240 240" xmlns="http://www.w3.org/2000/svg"><title>uE011-block-question</title><g fill="#000" fill-rule="evenodd"><path d="M220 10c5.523 0 10 4.477 10 10v200c0 5.523-4.477 10-10 10H20c-5.523 0-10-4.477-10-10V20c0-5.523 4.477-10 10-10h200zM30 30v180h180V30H30z" fill-rule="nonzero"/><path d="M120 180c-5.523 0-10-4.477-10-10s4.477-10 10-10 10 4.477 10 10-4.477 10-10 10zm-20-90c0 5.523-4.477 10-10 10s-10-4.477-10-10.004C80 73.428 93.429 60 110 60h20c16.567 0 30 13.436 30 30 0 8.866-5.394 18.948-12.77 23.865l-13.366 8.91C132.053 123.984 130 127.82 130 130v10c0 5.523-4.477 10-10 10s-10-4.477-10-10v-10c0-8.867 5.394-18.948 12.77-23.865l13.366-8.91C137.947 96.016 140 92.18 140 90c0-5.52-4.48-10-10-10h-20c-5.526 0-10 4.474-10 10z"/></g></svg>