<svg width="220" height="240" viewBox="0 0 220 240" xmlns="http://www.w3.org/2000/svg"><title>uE018-suit-clubs</title><path d="M148.978 206.326L160 210v10H60v-10l11.022-3.674c9.157-3.052 16.8-12.439 18.584-22.124C82.202 187.912 73.846 190 65 190c-30.376 0-55-24.624-55-55 0-25.188 16.932-46.422 40.035-52.94C50.035 47 76.863 20 110 20s60 27 59.965 62.06C193.068 88.579 210 109.813 210 135c0 30.376-24.624 55-55 55-8.845 0-17.203-2.088-24.607-5.798 1.785 9.688 9.427 19.071 18.585 22.124zM120.512 141c2.846 16.471 17.204 29 34.488 29 19.33 0 35-15.67 35-35s-15.67-35-35-35c-4.05 0-7.94.688-11.557 1.953A39.813 39.813 0 0 0 150 80c0-22.091-17.909-40-40-40S70 57.909 70 80a39.813 39.813 0 0 0 6.557 21.953A34.947 34.947 0 0 0 65 100c-19.33 0-35 15.67-35 35s15.67 35 35 35c17.284 0 31.642-12.529 34.488-29 .512-7 4.99-11 10.512-11 5.523 0 9.95 4 10.512 11z" fill="#000" fill-rule="evenodd"/></svg>