<svg width="220" height="240" viewBox="0 0 220 240" xmlns="http://www.w3.org/2000/svg"><title>uE015-suit-spades</title><path d="M120.207 140c1.871 16.852 16.2 30 33.543 30 18.61 0 33.75-15.14 33.75-33.75 0-10.93-1.73-23.84-14.57-36.68C160.81 87.45 124.1 61.82 110 52.11c-14.1 9.71-50.81 35.34-62.93 47.46-12.84 12.84-14.57 25.75-14.57 36.68 0 18.61 15.14 33.75 33.75 33.75 17.343 0 31.672-13.148 33.543-30 .207-6 4.684-10 10.207-10 5.523 0 10 4 10.207 10zm28.771 66.326L160 210v10H60v-10l11.022-3.674c9-3 16.536-12.118 18.487-21.625A53.403 53.403 0 0 1 66.25 190c-29.64 0-53.75-24.11-53.75-53.75 0-13.05 2.12-32.51 20.43-50.82 16.38-16.41 69.21-52.2 71.46-53.71a10.005 10.005 0 0 1 11.22 0c2.23 1.51 55.05 37.3 71.46 53.71 18.31 18.31 20.43 37.77 20.43 50.82 0 29.64-24.11 53.75-53.75 53.75a53.403 53.403 0 0 1-23.26-5.299c1.95 9.51 9.488 18.625 18.488 21.625z" fill="#000" fill-rule="evenodd"/></svg>