<svg width="240" height="240" viewBox="0 0 240 240" xmlns="http://www.w3.org/2000/svg"><title>uE104-framemode</title><path d="M30 54.995v10.01A4.995 4.995 0 0 0 34.995 70h10.01A4.995 4.995 0 0 0 50 65.005v-10.01A4.995 4.995 0 0 0 45.005 50h-10.01A4.995 4.995 0 0 0 30 54.995zM10 50.01A10 10 0 0 1 20.007 40h199.986A9.999 9.999 0 0 1 230 50.009V189.99A10 10 0 0 1 219.993 200H20.007A9.999 9.999 0 0 1 10 189.991V50.01zm20 124.986v10.01A4.995 4.995 0 0 0 34.995 190h10.01A4.995 4.995 0 0 0 50 185.005v-10.01A4.995 4.995 0 0 0 45.005 170h-10.01A4.995 4.995 0 0 0 30 174.995zm40 0v10.01A4.995 4.995 0 0 0 74.995 190h10.01A4.995 4.995 0 0 0 90 185.005v-10.01A4.995 4.995 0 0 0 85.005 170h-10.01A4.995 4.995 0 0 0 70 174.995zm40 0v10.01a4.995 4.995 0 0 0 4.995 4.995h10.01a4.995 4.995 0 0 0 4.995-4.995v-10.01a4.995 4.995 0 0 0-4.995-4.995h-10.01a4.995 4.995 0 0 0-4.995 4.995zm40 0v10.01a4.995 4.995 0 0 0 4.995 4.995h10.01a4.995 4.995 0 0 0 4.995-4.995v-10.01a4.995 4.995 0 0 0-4.995-4.995h-10.01a4.995 4.995 0 0 0-4.995 4.995zm40 0v10.01a4.995 4.995 0 0 0 4.995 4.995h10.01a4.995 4.995 0 0 0 4.995-4.995v-10.01a4.995 4.995 0 0 0-4.995-4.995h-10.01a4.995 4.995 0 0 0-4.995 4.995zm0-120v10.01A4.995 4.995 0 0 0 194.995 70h10.01A4.995 4.995 0 0 0 210 65.005v-10.01A4.995 4.995 0 0 0 205.005 50h-10.01A4.995 4.995 0 0 0 190 54.995zm-60 30.01v69.99c0 2.76 2.24 5.005 5.004 5.005h69.992c2.76 0 5.004-2.24 5.004-5.004V85.004c0-2.76-2.24-5.004-5.004-5.004h-69.992A5.007 5.007 0 0 0 130 85.004zm-100 0v69.99c0 2.76 2.24 5.005 5.004 5.005h69.992c2.76 0 5.004-2.24 5.004-5.004V85.004c0-2.76-2.24-5.004-5.004-5.004H35.004A5.007 5.007 0 0 0 30 85.004zm120-30.01v10.01A4.995 4.995 0 0 0 154.995 70h10.01A4.995 4.995 0 0 0 170 65.005v-10.01A4.995 4.995 0 0 0 165.005 50h-10.01A4.995 4.995 0 0 0 150 54.995zm-40 0v10.01A4.995 4.995 0 0 0 114.995 70h10.01A4.995 4.995 0 0 0 130 65.005v-10.01A4.995 4.995 0 0 0 125.005 50h-10.01A4.995 4.995 0 0 0 110 54.995zm-40 0v10.01A4.995 4.995 0 0 0 74.995 70h10.01A4.995 4.995 0 0 0 90 65.005v-10.01A4.995 4.995 0 0 0 85.005 50h-10.01A4.995 4.995 0 0 0 70 54.995z" fill="#000" fill-rule="evenodd"/></svg>