<svg width="240" height="240" viewBox="0 0 240 240" xmlns="http://www.w3.org/2000/svg" xmlns:xlink="http://www.w3.org/1999/xlink"><title>uE106-framemode</title><defs><path d="M10 40h220v160H10V40zm20 130v20h20v-20H30zm40 0v20h20v-20H70zm40 0v20h20v-20h-20zm40 0v20h20v-20h-20zm40 0v20h20v-20h-20zm0-120v20h20V50h-20zm-60 30v80h80V80h-80zM30 80v80h80V80H30zm120-30v20h20V50h-20zm-40 0v20h20V50h-20zm-40 0v20h20V50H70zm-40 0v20h20V50H30z" id="a"/><mask id="b" x="0" y="0" width="220" height="160" fill="#fff"><use xlink:href="#a"/></mask></defs><use mask="url(#b)" xlink:href="#a" stroke="#979797" stroke-width="2" fill="#D8D8D8" fill-rule="evenodd"/></svg>