<svg width="240" height="240" viewBox="0 0 240 240" xmlns="http://www.w3.org/2000/svg"><title>uE105-close</title><path d="M120 40c-44.19 0-80 35.82-80 80s35.81 80 80 80 80-35.82 80-80-35.81-80-80-80zm37.07 102.93a9.989 9.989 0 0 1 0 14.14A9.973 9.973 0 0 1 150 160c-2.56 0-5.12-.98-7.07-2.93L120 134.14l-22.93 22.93A9.973 9.973 0 0 1 90 160c-2.56 0-5.12-.98-7.07-2.93a9.989 9.989 0 0 1 0-14.14L105.86 120 82.93 97.07a9.989 9.989 0 0 1 0-14.14 9.989 9.989 0 0 1 14.14 0L120 105.86l22.93-22.93a9.989 9.989 0 0 1 14.14 0 9.989 9.989 0 0 1 0 14.14L134.14 120l22.93 22.93z" fill-rule="nonzero" fill="#000"/></svg>