<svg width="240" height="240" viewBox="0 0 240 240" xmlns="http://www.w3.org/2000/svg"><title>uE102-volume-off</title><path d="M170 98.284V170c0 14.95-9.65 21.76-18.63 21.76-4.49 0-9.05-1.52-13.56-4.53l-26.72-17.81c-2.2-1.471-4.997-2.883-8.08-4.146l14.967-14.967c.694.378 1.369.763 2.023 1.153v-3.176l10-10v19.696l18.9 12.6 1.04.62.06-1.2v-51.716l20-20zM59.677 152.04C53.732 146.553 50 138.702 50 130v-20c0-16.54 13.46-30 30-30 9.04 0 23.57-4.39 31.1-9.42l26.72-17.81c4.51-3.01 9.07-4.53 13.56-4.53 3.207 0 6.481.897 9.371 2.724L120 91.716V88.54C109.07 95.05 92.11 100 80 100c-5.52 0-10 4.48-10 10v20a9.984 9.984 0 0 0 3.84 7.876l-14.163 14.163zm123.252-109.11c3.905-3.905 10.237-3.905 14.142 0 3.905 3.905 3.905 10.237 0 14.142l-130 130c-3.905 3.905-10.237 3.905-14.142 0-3.905-3.905-3.905-10.237 0-14.142l130-130z" fill-rule="nonzero" fill="#000"/></svg>