<svg width="240" height="240" viewBox="0 0 240 240" xmlns="http://www.w3.org/2000/svg"><title>uE104-expand</title><path d="M150 40c-5.53 0-10 4.48-10 10s4.47 10 10 10h15.86l-32.93 32.93a9.989 9.989 0 0 0 0 14.14A9.973 9.973 0 0 0 140 110c2.56 0 5.12-.98 7.07-2.93L180 74.14V90c0 5.52 4.47 10 10 10s10-4.48 10-10V40h-50zm-57.07 92.93L60 165.86V150c0-5.52-4.47-10-10-10s-10 4.48-10 10v49.99h9.96L90 200c5.52 0 10-4.48 10-10s-4.47-10-10-10H74.14l32.93-32.92a9.989 9.989 0 0 0 0-14.14c-3.91-3.91-10.23-3.92-14.14-.01zM70 120c5.52 0 10-4.48 10-10V80h30c5.53 0 10-4.48 10-10s-4.47-10-10-10H60.01L60 110c0 5.52 4.47 10 10 10zm100 0c-5.53 0-10 4.48-10 10v30h-30c-5.53 0-10 4.48-10 10s4.47 10 10 10h50v-50c0-5.52-4.47-10-10-10z" fill-rule="nonzero" fill="#000"/></svg>