<svg width="200" height="240" viewBox="0 0 200 240" xmlns="http://www.w3.org/2000/svg"><title>uE116-play-loop</title><path d="M145 80h-20.86l12.93-12.93a9.989 9.989 0 0 0 0-14.14 9.989 9.989 0 0 0-14.14 0L85.86 90l37.07 37.07A9.973 9.973 0 0 0 130 130c2.56 0 5.12-.98 7.07-2.93a9.989 9.989 0 0 0 0-14.14L124.14 100H145c13.79 0 25 13.46 25 30s-13.46 30-30 30H60c-16.54 0-30-13.46-30-30s13.46-30 30-30c5.53 0 10-4.48 10-10s-4.47-10-10-10c-27.57 0-50 22.43-50 50s22.43 50 50 50h80c27.57 0 50-22.43 50-50s-20.19-50-45-50z" fill-rule="nonzero" fill="#000"/></svg>