<svg width="200" height="240" viewBox="0 0 200 240" xmlns="http://www.w3.org/2000/svg"><title>uE117-play-once</title><path d="M132.929 162.929c-3.905 3.905-3.905 10.237 0 14.142 3.905 3.905 10.237 3.905 14.142 0L194 130l-46.929-47.071c-3.905-3.905-10.237-3.905-14.142 0-3.905 3.905-3.905 10.237 0 14.142L155.858 120H78c-5.523 0-10 4.477-10 10s4.477 10 10 10h77.858l-22.93 22.929zM50 140c-5.523 0-10-4.477-10-10s4.477-10 10-10 10 4.477 10 10-4.477 10-10 10zm-30 0c-5.523 0-10-4.477-10-10s4.477-10 10-10 10 4.477 10 10-4.477 10-10 10z" fill="#000" fill-rule="evenodd"/></svg>