<svg width="240" height="240" viewBox="0 0 240 240" xmlns="http://www.w3.org/2000/svg"><title>uE124-comments</title><path d="M210 60h-30c0-16.5-13.5-30-30-30H30C13.5 30 0 43.5 0 60v70c0 16.5 13.5 30 30 30v30l30-30c0 16.5 13.5 30 30 30h80l30 30v-30h10c16.5 0 30-13.5 30-30V90c0-16.5-13.5-30-30-30zM30 140c-5.42 0-10-4.58-10-10V60c0-5.42 4.58-10 10-10h120c5.42 0 10 4.58 10 10v10H95c-13.79 0-25 11.21-25 25v45H30zm190 20c0 5.42-4.58 10-10 10H90c-5.42 0-10-4.58-10-10V95c0-8.27 6.73-15 15-15h115c5.42 0 10 4.58 10 10v70z" fill-rule="nonzero" fill="#000"/></svg>