<svg width="240" height="240" viewBox="0 0 240 240" xmlns="http://www.w3.org/2000/svg"><title>uE12E-cog</title><path d="M98.87 170.48l3.71 14.82c1.33 5.33 6.92 9.7 12.42 9.7h10c5.5 0 11.09-4.37 12.42-9.7l3.71-14.82a9.614 9.614 0 0 1 12.03-6.94l14.67 4.2c5.29 1.51 11.88-1.14 14.62-5.91l5-8.67c2.74-4.77 1.77-11.79-2.19-15.62l-10.98-10.61a9.608 9.608 0 0 1 .01-13.9l10.96-10.61c3.96-3.82 4.94-10.84 2.2-15.61l-5.01-8.67c-2.75-4.77-9.33-7.42-14.61-5.91l-14.67 4.2a9.631 9.631 0 0 1-12.04-6.94l-3.7-14.8C136.09 49.37 130.5 45 125 45h-10c-5.5 0-11.09 4.37-12.42 9.7l-3.7 14.8a9.637 9.637 0 0 1-12.04 6.95l-14.67-4.2c-5.29-1.52-11.88 1.14-14.62 5.9l-5 8.67c-2.74 4.77-1.77 11.79 2.2 15.62l10.96 10.59a9.645 9.645 0 0 1 0 13.91l-10.98 10.61c-3.95 3.83-4.94 10.85-2.19 15.62l5.01 8.67c2.74 4.77 9.33 7.42 14.62 5.91l14.67-4.2a9.6 9.6 0 0 1 12.03 6.93zM120 100c11.04 0 20 8.95 20 20 0 11.04-8.96 20-20 20s-20-8.96-20-20c0-11.05 8.96-20 20-20z" fill-rule="nonzero" fill="#000"/></svg>