<svg width="229" height="240" viewBox="0 0 229 240" xmlns="http://www.w3.org/2000/svg"><title>uE12A-tag</title><path d="M80 40c12.79 0 25.59 4.88 35.35 14.65L150 90l50 50-70 70-54.98-54.98c-.37.33-30.37-29.67-30.37-29.67-19.53-19.53-19.53-51.19 0-70.7C54.41 44.88 67.21 40 80 40zm0-20c-18.7 0-36.28 7.29-49.49 20.51C17.29 53.71 10 71.29 10 89.99c0 18.7 7.29 36.28 20.51 49.5l30 30c1.07 1.07 2.27 2.01 3.5 2.79l51.87 51.86c3.91 3.91 9 5.86 14.13 5.86 5.13 0 10.22-1.95 14.14-5.86l70-70c7.8-7.81 7.8-20.47 0-28.28l-50-50-34.5-35.21C116.28 27.29 98.7 20 80 20zm0 54.98c8.29 0 15 6.72 15 15.02s-6.71 14.98-15 14.98S65 98.3 65 90s6.71-15.02 15-15.02zm0-10C66.21 64.98 55 76.2 55 90c0 13.77 11.21 24.98 25 24.98s25-11.21 25-24.98c0-13.8-11.21-25.02-25-25.02z" fill-rule="nonzero" fill="#000"/></svg>