<svg width="240" height="240" viewBox="0 0 240 240" xmlns="http://www.w3.org/2000/svg"><title>uE120-comment</title><path d="M169.999 170c0-5.523 4.477-10 10-10A9.996 9.996 0 0 0 190 150V80c0-5.522-4.478-10-10.001-10H60A9.994 9.994 0 0 0 50 80v70c0 5.522 4.477 10 10 10h90a10 10 0 0 1 7.071 2.93L170 175.856V170zm-110 10C43.433 180 30 166.568 30 150V80c0-16.571 13.425-30 30.001-30H180C196.568 50 210 63.432 210 80v70c0 13.065-8.347 24.178-20.001 28.295V200c0 8.91-10.772 13.37-17.071 7.07L145.858 180H60z" fill-rule="nonzero" fill="#000"/></svg>