<svg width="240" height="240" viewBox="0 0 240 240" xmlns="http://www.w3.org/2000/svg"><title>uE12F-warning</title><g fill-rule="nonzero" fill="#000"><path d="M118.468 62.328L48.487 187.435c-.517.924-.809 1.691-.927 2.266.56.179 1.375.299 2.434.299h140.012c1.023 0 1.815-.112 2.37-.279-.128-.566-.421-1.313-.927-2.206L120.642 62.332c-.386-.684-.76-1.214-1.094-1.602-.33.387-.699.917-1.08 1.598zm19.583-9.843l70.807 125.183c9.207 16.279-.154 32.332-18.852 32.332H49.994c-18.679 0-28.08-16.027-18.962-32.328l69.981-125.107c9.198-16.443 27.764-16.476 37.038-.08z"/><path d="M110 100c0-5.523 4.477-10 10-10s10 4.477 10 10v40c0 5.523-4.477 10-10 10s-10-4.477-10-10v-40zm10 80c-5.523 0-10-4.477-10-10s4.477-10 10-10 10 4.477 10 10-4.477 10-10 10z"/></g></svg>