<svg width="200" height="240" viewBox="0 0 200 240" xmlns="http://www.w3.org/2000/svg"><title>uE128-star-o</title><path d="M148.071 209.32c-2.24 0-4.43-.5-6.46-1.46l-1.04-.51-41.07-23.43-41.07 23.44-1.06.53c-4.88 2.28-10.85 1.74-15.21-1.43-4.69-3.4-7.01-9.33-5.86-15.09l9.57-46.42-16.02-14.57-18.95-17.25-.78-.82c-3.75-3.96-5.09-9.7-3.4-14.92 1.73-5.24 6.2-9.12 11.6-10.09l1.02-.18 47.01-5.21 19.46-43.1.6-1.1A14.99 14.99 0 0 1 99.501 30c5.43 0 10.44 2.98 13.09 7.7l.6 1.12 19.48 43.12 47.01 5.21 1.04.17c5.39 1 9.86 4.86 11.58 10.12 1.7 5.21.35 10.98-3.4 14.94l-.78.78-34.98 31.84 9.57 46.32c1.13 5.87-1.18 11.78-5.9 15.19a14.884 14.884 0 0 1-8.74 2.81zm-81.49-65.64c-.39 1.82-4.66 22.46-8.45 40.82l36.43-20.77a9.99 9.99 0 0 1 9.9 0l36.43 20.75-8.49-41.04c-.71-3.46.45-7.05 3.08-9.42l31-28.22-41.68-4.61c-3.51-.39-6.54-2.6-8.01-5.84l-17.28-38.21-17.26 38.21a10.07 10.07 0 0 1-8.01 5.84l-41.68 4.61 31 28.22a9.954 9.954 0 0 1 3.02 9.66z" fill-rule="nonzero" fill="#000"/></svg>