<svg width="240" height="240" viewBox="0 0 240 240" xmlns="http://www.w3.org/2000/svg"><title>uE122-eye</title><path d="M22.724 112.46a126.851 126.851 0 0 1 4.58-7.382c5.034-7.55 11.065-15.09 18.125-22.15C65.91 62.448 90.805 50 120 50s54.089 12.447 74.571 32.929c7.06 7.06 13.09 14.599 18.125 22.149a126.851 126.851 0 0 1 4.58 7.382 67.317 67.317 0 0 1 1.668 3.068 10 10 0 0 1 0 8.944c-.315.63-.87 1.672-1.668 3.068a126.851 126.851 0 0 1-4.58 7.382c-5.034 7.55-11.065 15.09-18.125 22.15C174.09 177.552 149.195 190 120 190s-54.089-12.447-74.571-32.929c-7.06-7.06-13.09-14.599-18.125-22.149a126.851 126.851 0 0 1-4.58-7.382 67.318 67.318 0 0 1-1.668-3.068 10 10 0 0 1 0-8.944c.315-.63.87-1.672 1.668-3.068zm21.222 11.368c4.34 6.512 9.56 13.035 15.625 19.1C76.59 159.948 96.695 170 120 170s43.411-10.053 60.429-27.071c6.065-6.066 11.284-12.589 15.625-19.101.895-1.341 1.71-2.621 2.447-3.828a114.743 114.743 0 0 0-2.447-3.828c-4.34-6.512-9.56-13.035-15.625-19.1C163.41 80.052 143.305 70 120 70S76.589 80.053 59.571 97.071c-6.065 6.066-11.284 12.589-15.625 19.101A114.742 114.742 0 0 0 41.499 120a114.742 114.742 0 0 0 2.447 3.828zM120 150c-16.569 0-30-13.431-30-30 0-16.569 13.431-30 30-30 16.569 0 30 13.431 30 30 0 16.569-13.431 30-30 30zm0-10c11.046 0 20-8.954 20-20s-8.954-20-20-20-20 8.954-20 20 8.954 20 20 20z" fill-rule="nonzero" fill="#000"/></svg>