<svg width="240" height="240" viewBox="0 0 240 240" xmlns="http://www.w3.org/2000/svg"><title>uE125-region</title><path d="M120 30c16.328 0 31.387 4.023 45.176 12.07 13.789 8.047 24.707 18.965 32.754 32.754C205.977 88.614 210 103.672 210 120c0 16.328-4.023 31.387-12.07 45.176-8.047 13.789-18.965 24.707-32.754 32.754C151.386 205.977 136.328 210 120 210c-16.328 0-31.387-4.023-45.176-12.07-13.789-8.047-24.707-18.965-32.754-32.754C34.023 151.386 30 136.328 30 120c0-16.328 4.023-31.387 12.07-45.176 8.047-13.789 18.965-24.707 32.754-32.754C88.614 34.023 103.672 30 120 30zm32.11 61.055c-.157.078-.528.449-1.114 1.113-.586.664-1.113 1.035-1.582 1.113.156 0 .332-.195.527-.586.196-.39.391-.82.586-1.289.196-.469.332-.742.41-.82.47-.547 1.329-1.133 2.579-1.758 1.093-.469 3.125-.937 6.093-1.406 2.657-.625 4.649-.195 5.977 1.289-.156-.156.215-.664 1.113-1.523.899-.86 1.465-1.329 1.7-1.407.234-.156.82-.332 1.757-.527.938-.195 1.524-.488 1.758-.879l.234-2.578c-.937.078-1.62-.195-2.05-.82-.43-.625-.684-1.446-.762-2.461 0 .156-.234.468-.703.937 0-.547-.176-.86-.528-.937-.351-.079-.8-.04-1.347.117-.547.156-.899.195-1.055.117-.781-.234-1.367-.527-1.758-.879-.39-.351-.703-.996-.937-1.933-.235-.938-.39-1.524-.469-1.758-.156-.39-.527-.801-1.113-1.23-.586-.43-.957-.84-1.113-1.231a12.705 12.705 0 0 1-.293-.645 14.32 14.32 0 0 0-.352-.761 2.473 2.473 0 0 0-.469-.645c-.195-.195-.41-.293-.644-.293-.235 0-.508.195-.82.586-.313.39-.606.781-.88 1.172-.273.39-.449.586-.527.586-.234-.156-.469-.215-.703-.176-.234.039-.41.078-.527.117-.118.04-.293.156-.528.352-.234.195-.43.332-.586.41-.234.156-.566.273-.996.351a7.66 7.66 0 0 0-.996.235c1.172-.39 1.133-.82-.117-1.29-.781-.312-1.406-.429-1.875-.35.703-.313.996-.782.879-1.407-.117-.625-.45-1.172-.996-1.64h.586c-.078-.313-.41-.645-.996-.997a14.366 14.366 0 0 0-2.051-.996c-.781-.312-1.29-.547-1.524-.703-.625-.39-1.953-.762-3.984-1.113-2.031-.352-3.32-.371-3.867-.059-.39.469-.567.879-.527 1.23.039.352.195.899.468 1.641.274.742.41 1.23.41 1.465.079.469-.136.977-.644 1.523-.508.547-.762 1.016-.762 1.407 0 .547.547 1.152 1.64 1.816 1.095.664 1.485 1.504 1.173 2.52-.235.625-.86 1.25-1.875 1.875-1.016.625-1.64 1.093-1.875 1.406-.39.625-.45 1.348-.176 2.168.273.82.684 1.465 1.23 1.933.157.157.215.313.176.47-.039.156-.176.331-.41.527-.234.195-.45.351-.645.468-.195.118-.449.254-.761.41l-.352.235c-.86.39-1.66.156-2.402-.703-.742-.86-1.27-1.875-1.582-3.047-.547-1.953-1.172-3.125-1.875-3.516-1.797-.625-2.93-.586-3.399.117-.39-1.015-1.992-2.03-4.804-3.046-1.953-.704-4.22-.86-6.797-.47.469-.077.469-.663 0-1.757-.547-1.172-1.29-1.64-2.227-1.406.235-.469.39-1.153.469-2.051.078-.898.117-1.426.117-1.582a5.978 5.978 0 0 1 1.406-2.695c.079-.079.352-.41.82-.996.47-.586.84-1.114 1.114-1.582.273-.47.293-.704.059-.704 2.734.313 4.687-.117 5.859-1.289.39-.39.84-1.054 1.348-1.992.507-.937.918-1.601 1.23-1.992.703-.469 1.25-.684 1.64-.645.391.04.958.254 1.7.645.742.39 1.309.586 1.7.586 1.093.078 1.698-.352 1.816-1.29.117-.937-.176-1.718-.88-2.343.938.078 1.055-.586.352-1.992-.39-.547-.703-.899-.937-1.055-.938-.312-1.992-.117-3.164.586-.625.313-.547.625.234.938-.078-.078-.45.332-1.113 1.23-.664.899-1.309 1.582-1.934 2.05-.625.47-1.25.274-1.875-.585-.078-.078-.293-.606-.644-1.582-.352-.977-.723-1.504-1.114-1.582-.625 0-1.25.586-1.875 1.758.235-.625-.195-1.211-1.289-1.758-1.093-.547-2.03-.86-2.812-.938 1.484-.937 1.172-1.992-.938-3.164-.547-.312-1.347-.508-2.402-.586-1.055-.078-1.816.078-2.285.47-.39.546-.606.995-.645 1.347-.039.351.157.664.586.937.43.274.84.489 1.23.645.391.156.84.312 1.348.469.508.156.84.273.996.351 1.094.781 1.407 1.328.938 1.64-.156.079-.488.216-.996.41-.508.196-.957.372-1.348.528-.39.157-.625.313-.703.469-.234.313-.234.86 0 1.64.234.782.156 1.329-.234 1.641-.39-.39-.743-1.074-1.055-2.05-.313-.977-.586-1.622-.82-1.934.547.703-.43.937-2.93.703l-1.172-.117c-.312 0-.937.078-1.875.234-.937.156-1.738.196-2.402.117a2.179 2.179 0 0 1-1.582-.937c-.313-.625-.313-1.406 0-2.344.078-.312.234-.39.469-.234-.313-.235-.743-.606-1.29-1.114-.546-.507-.937-.84-1.171-.996-3.594 1.172-7.266 2.774-11.016 4.805.469.078.937.04 1.406-.117.39-.156.899-.41 1.524-.762a39.523 39.523 0 0 1 1.171-.644c2.657-1.094 4.297-1.368 4.922-.82l.586-.587c1.094 1.25 1.875 2.227 2.344 2.93-.547-.312-1.719-.352-3.516-.117-1.562.469-2.421.937-2.578 1.406.547.938.743 1.64.586 2.11-.312-.235-.761-.626-1.347-1.172-.586-.547-1.153-.977-1.7-1.29a4.679 4.679 0 0 0-1.757-.585c-1.25 0-2.11.039-2.579.117-11.406 6.25-20.585 14.922-27.539 26.015.547.547 1.016.86 1.407.938.312.078.507.43.586 1.055.078.625.175 1.054.293 1.289.117.234.566.117 1.347-.352.703.625.82 1.367.352 2.227.078-.078 1.797.976 5.156 3.164 1.484 1.328 2.305 2.148 2.46 2.46.235.86-.155 1.563-1.17 2.11-.08-.156-.43-.508-1.056-1.055-.625-.546-.976-.703-1.054-.468-.235.39-.215 1.113.058 2.168.274 1.054.684 1.543 1.23 1.464-.546 0-.917.625-1.113 1.875-.195 1.25-.293 2.637-.293 4.16 0 1.524-.039 2.442-.117 2.754l.235.118c-.235.937-.02 2.285.644 4.043.664 1.757 1.504 2.52 2.52 2.285-1.016.234-.235 1.914 2.344 5.039.468.625.78.976.937 1.055.234.156.703.449 1.406.878.703.43 1.29.82 1.758 1.172.469.352.86.762 1.172 1.23.312.391.703 1.27 1.172 2.638.469 1.367 1.015 2.285 1.64 2.753-.156.47.215 1.25 1.114 2.344.898 1.094 1.308 1.992 1.23 2.695-.078 0-.176.04-.293.118-.117.078-.215.117-.293.117.235.547.84 1.094 1.817 1.64.976.547 1.582 1.055 1.816 1.524.078.234.156.625.234 1.172.079.547.196.976.352 1.289.156.312.469.39.938.234.156-1.562-.782-3.984-2.813-7.265-1.172-1.953-1.836-3.086-1.992-3.399-.235-.39-.45-.996-.645-1.816-.195-.82-.37-1.387-.527-1.7.156 0 .39.06.703.176.313.118.645.254.996.41.352.157.645.313.88.47.233.156.312.273.233.35-.234.548-.156 1.231.235 2.052.39.82.86 1.543 1.406 2.168.547.625 1.211 1.367 1.992 2.226.781.86 1.25 1.367 1.406 1.524.47.468 1.016 1.23 1.641 2.285.625 1.054.625 1.582 0 1.582.703 0 1.484.39 2.344 1.172.86.78 1.523 1.562 1.992 2.343.39.625.703 1.641.938 3.047.234 1.406.43 2.344.585 2.813.157.547.489 1.074.997 1.582.507.508.996.879 1.464 1.113l1.875.938 1.524.82c.39.156 1.113.566 2.168 1.23 1.055.664 1.894 1.114 2.52 1.348.78.313 1.406.469 1.874.469.47 0 1.036-.098 1.7-.293a19.514 19.514 0 0 1 1.582-.41c1.171-.157 2.304.43 3.398 1.757 1.094 1.329 1.914 2.149 2.461 2.461 2.813 1.485 4.96 1.914 6.445 1.29-.156.078-.136.37.059.878s.508 1.114.937 1.817c.43.703.782 1.27 1.055 1.699.274.43.488.762.645.996.39.469 1.093 1.055 2.109 1.758 1.016.703 1.719 1.289 2.11 1.758.468-.313.742-.664.82-1.055-.235.625.039 1.406.82 2.344.781.937 1.484 1.328 2.11 1.172 1.093-.235 1.64-1.485 1.64-3.75-2.422 1.172-4.336.468-5.742-2.11 0-.078-.098-.293-.293-.644a7.467 7.467 0 0 1-.469-.996 7.416 7.416 0 0 1-.293-.996c-.078-.352-.078-.645 0-.88.078-.234.274-.35.586-.35.703 0 1.094-.138 1.172-.411.078-.274 0-.762-.234-1.465-.235-.703-.391-1.21-.47-1.523-.077-.625-.507-1.407-1.288-2.344-.781-.938-1.25-1.524-1.406-1.758-.391.703-1.016 1.016-1.876.938-.859-.079-1.484-.43-1.874-1.055 0 .078-.06.293-.176.644-.117.352-.176.606-.176.762-1.016 0-1.602-.039-1.758-.117.078-.234.176-.918.293-2.05.117-1.134.254-2.013.41-2.638.078-.312.293-.78.645-1.406.351-.625.644-1.191.879-1.699.234-.508.39-.996.468-1.465.079-.469-.097-.84-.527-1.113-.43-.274-1.113-.371-2.05-.293-1.485.078-2.5.86-3.048 2.344a24.31 24.31 0 0 0-.351 1.23c-.156.586-.352 1.035-.586 1.348-.234.312-.586.586-1.055.82-.547.234-1.484.313-2.812.234-1.328-.078-2.266-.273-2.813-.585-1.015-.625-1.894-1.758-2.636-3.399-.743-1.64-1.114-3.086-1.114-4.336 0-.781.098-1.816.293-3.105.196-1.29.313-2.266.352-2.93.039-.664-.176-1.621-.645-2.871.235-.156.586-.527 1.055-1.113s.86-.997 1.172-1.23c.156-.079.332-.138.527-.177.195-.039.371-.039.528 0 .156.04.312-.02.468-.175.156-.157.274-.391.352-.704a3.491 3.491 0 0 0-.469-.351c-.234-.235-.39-.352-.469-.352.547.235 1.66.176 3.34-.175 1.68-.352 2.754-.293 3.223.175 1.172.86 2.031.782 2.578-.234 0-.078-.098-.45-.293-1.113-.195-.664-.215-1.192-.059-1.582.391 2.109 1.524 2.46 3.399 1.054.234.235.84.43 1.816.586.977.156 1.66.352 2.051.586a8.2 8.2 0 0 1 .82.645c.313.273.528.449.645.527.117.078.312.059.586-.059.273-.117.605-.37.996-.761.781 1.093 1.25 2.031 1.406 2.812.86 3.125 1.602 4.844 2.227 5.156.547.235.976.313 1.289.235.312-.078.488-.45.527-1.113.04-.664.04-1.211 0-1.641-.039-.43-.098-.918-.176-1.465l-.117-.937v-2.11l-.117-.937c-1.172-.235-1.895-.703-2.168-1.406-.273-.704-.215-1.426.176-2.168.39-.743.976-1.465 1.758-2.168.078-.079.39-.215.937-.41a20.55 20.55 0 0 0 1.816-.762c.665-.313 1.153-.625 1.465-.938 1.64-1.484 2.227-2.851 1.758-4.101.547 0 .977-.352 1.29-1.055-.079 0-.274-.117-.587-.352a8.566 8.566 0 0 0-.879-.586c-.273-.156-.449-.234-.527-.234.703-.39.781-1.016.234-1.875.391-.234.684-.664.88-1.289.195-.625.488-1.016.878-1.172.703.938 1.524 1.016 2.461.234.547-.624.586-1.25.117-1.874.39-.547 1.192-.958 2.403-1.231 1.21-.273 1.933-.644 2.168-1.113.547.156.859.078.937-.235.078-.312.117-.78.117-1.406 0-.625.118-1.094.352-1.406.312-.39.898-.742 1.758-1.055.86-.312 1.367-.508 1.523-.586l1.992-1.289c.235-.312.235-.469 0-.469 1.407.157 2.618-.273 3.633-1.289.781-.859.547-1.64-.703-2.343.234-.47.117-.84-.352-1.114-.468-.273-1.054-.488-1.757-.644.234-.078.683-.098 1.347-.059.664.04 1.075-.02 1.23-.176 1.173-.78.9-1.406-.82-1.875-1.328-.39-3.007.079-5.039 1.407zm-19.102 102.773c16.094-2.812 29.804-10.195 41.133-22.148-.235-.235-.723-.41-1.465-.528-.742-.117-1.23-.254-1.465-.41-1.406-.547-2.344-.86-2.813-.937a2.296 2.296 0 0 0-.293-1.524c-.273-.469-.585-.82-.937-1.054-.352-.235-.84-.547-1.465-.938a61.695 61.695 0 0 1-1.289-.82c-.156-.156-.43-.39-.82-.703-.39-.313-.664-.528-.82-.645-.157-.117-.45-.293-.88-.527-.43-.235-.761-.313-.996-.235-.234.078-.625.118-1.171.118l-.352.117c-.234.078-.45.176-.645.293-.195.117-.41.234-.644.351-.234.117-.39.235-.469.352-.078.117-.078.215 0 .293-1.64-1.328-3.047-2.188-4.219-2.578-.39-.078-.82-.293-1.289-.645a11.129 11.129 0 0 0-1.23-.82 1.712 1.712 0 0 0-1.172-.176c-.43.078-.879.352-1.348.82-.39.391-.625.977-.703 1.758-.078.781-.156 1.29-.234 1.524-.547-.391-.547-1.075 0-2.051.547-.977.625-1.7.234-2.168-.234-.469-.644-.645-1.23-.527-.586.117-1.055.292-1.406.527-.352.234-.801.566-1.348.996-.547.43-.899.684-1.055.762-.156.078-.488.293-.996.644-.508.352-.84.645-.996.88-.234.312-.469.78-.703 1.405-.234.625-.43 1.055-.586 1.29-.156-.313-.606-.567-1.348-.762-.742-.196-1.113-.41-1.113-.645.156.781.313 2.149.469 4.102.156 1.953.351 3.437.586 4.453.547 2.422.078 4.297-1.407 5.625-2.109 1.953-3.242 3.516-3.398 4.687-.313 1.72.156 2.735 1.406 3.047 0 .547-.312 1.348-.937 2.403-.625 1.054-.899 1.894-.82 2.52 0 .468.078 1.093.234 1.874z" fill-rule="nonzero" fill="#000"/></svg>