<svg width="240" height="240" viewBox="0 0 240 240" xmlns="http://www.w3.org/2000/svg"><title>uE129-heart</title><path d="M120 197c-1.548 0-2.857-.535-3.929-1.605L60.357 141.7c-.595-.476-1.414-1.25-2.455-2.32-1.042-1.07-2.694-3.017-4.956-5.842a78.929 78.929 0 0 1-6.071-8.696c-1.786-2.973-3.378-6.57-4.777-10.792C40.7 109.829 40 105.726 40 101.742c0-13.081 3.78-23.309 11.34-30.682C58.898 63.687 69.344 60 82.678 60c3.69 0 7.455.64 11.294 1.918a45.733 45.733 0 0 1 10.715 5.173c3.303 2.17 6.145 4.207 8.526 6.11A82.236 82.236 0 0 1 120 79.266a82.236 82.236 0 0 1 6.786-6.065c2.38-1.903 5.223-3.94 8.526-6.11a45.733 45.733 0 0 1 10.715-5.173C149.867 60.639 153.63 60 157.32 60c13.334 0 23.78 3.687 31.34 11.06C196.22 78.433 200 88.66 200 101.742c0 13.141-6.815 26.52-20.446 40.137l-55.625 53.516c-1.072 1.07-2.381 1.605-3.929 1.605z" fill-rule="nonzero" fill="#000"/></svg>