<svg width="240" height="240" viewBox="0 0 240 240" xmlns="http://www.w3.org/2000/svg"><title>uE124-link</title><path d="M182.77 53.21c-4.3-4.3-11.26-4.3-15.56 0L150 70.43l-3.08-3.08c-11.68-11.68-32.16-11.68-43.84 0l-41.72 41.72c-5.84 5.84-9.06 13.63-9.06 21.92 0 8.29 3.22 16.08 9.06 21.92l3.08 3.08-17.22 17.22c-4.3 4.3-4.3 11.26 0 15.56 2.15 2.15 4.96 3.22 7.78 3.22 2.82 0 5.63-1.07 7.78-3.22L80 171.55l3.08 3.08c5.84 5.84 13.62 9.06 21.92 9.06 8.3 0 16.08-3.22 21.92-9.06l41.72-41.72c5.84-5.84 9.06-13.62 9.06-21.92 0-8.3-3.22-16.08-9.06-21.92l-3.08-3.08 17.22-17.22c4.29-4.3 4.29-11.26-.01-15.56zm-29.69 64.14l-41.72 41.72c-1.68 1.68-4.02 2.53-6.36 2.53-2.34 0-4.68-.84-6.36-2.53l-3.08-3.08 7.22-7.22c4.3-4.3 4.3-11.26 0-15.56a10.954 10.954 0 0 0-7.78-3.22c-2.82 0-5.63 1.07-7.78 3.22L80 140.43l-3.08-3.08c-1.68-1.68-2.61-3.95-2.61-6.36s.93-4.68 2.61-6.36l41.72-41.72c1.68-1.68 3.94-2.61 6.36-2.61 2.42 0 4.68.93 6.36 2.61l3.08 3.08-7.22 7.22c-4.3 4.3-4.3 11.26 0 15.56 2.15 2.15 4.96 3.22 7.78 3.22 2.82 0 5.63-1.07 7.78-3.22l7.22-7.22 3.08 3.08c1.68 1.68 2.61 3.95 2.61 6.36s-.93 4.68-2.61 6.36z" fill-rule="nonzero" fill="#000"/></svg>