<svg width="240" height="240" viewBox="0 0 240 240" xmlns="http://www.w3.org/2000/svg"><title>uE126-region</title><path d="M120 30c16.328 0 31.387 4.023 45.176 12.07 13.789 8.047 24.707 18.965 32.754 32.754C205.977 88.614 210 103.672 210 120c0 16.328-4.023 31.387-12.07 45.176-8.047 13.789-18.965 24.707-32.754 32.754C151.386 205.977 136.328 210 120 210c-16.328 0-31.387-4.023-45.176-12.07-13.789-8.047-24.707-18.965-32.754-32.754C34.023 151.386 30 136.328 30 120c0-16.328 4.023-31.387 12.07-45.176 8.047-13.789 18.965-24.707 32.754-32.754C88.614 34.023 103.672 30 120 30zm32.11 61.055c-.157.078-.528.449-1.114 1.113-.586.664-1.113 1.035-1.582 1.113.156 0 .332-.195.527-.586.196-.39.918-2.03.996-2.11.47-.546 1.329-1.132 2.579-1.757 1.093-.469 3.125-.937 6.093-1.406 2.657-.625 4.649-.195 5.977 1.289-.156-.156 2.578-2.852 2.812-2.93.235-.156.82-.332 1.758-.527.938-.195 1.524-.488 1.758-.879l.234-2.578c-.937.078-1.62-.195-2.05-.82-.43-.625-.684-1.446-.762-2.461 0 .156-.234.468-.703.937 0-.547-.176-.86-.528-.937-.351-.079-2.246.312-2.402.234-.781-.234-1.367-.527-1.758-.879-.39-.351-.703-.996-.937-1.933-.235-.938-.39-1.524-.469-1.758-.156-.39-.527-.801-1.113-1.23-.586-.43-.957-.84-1.113-1.231-.079-.156-.918-1.856-1.114-2.051-.195-.195-.41-.293-.644-.293-.235 0-.508.195-.82.586-.313.39-1.329 1.758-1.407 1.758-.234-.156-1.113-.098-1.23-.059-.118.04-.957.684-1.114.762-.234.156-1.757.508-1.992.586 1.172-.39 1.133-.82-.117-1.29-.781-.312-1.406-.429-1.875-.35.703-.313.996-.782.879-1.407-.117-.625-.45-1.172-.996-1.64h.586c-.078-.313-.41-.645-.996-.997-.586-.351-3.34-1.543-3.575-1.699-.625-.39-5.976-2.625-7.851-1.172-.39.469-.567.879-.527 1.23.039.352.878 2.872.878 3.106.079.469-.136.977-.644 1.523-.508.547-.762 1.016-.762 1.407 0 .547.547 1.152 1.64 1.816 1.095.664 1.485 1.504 1.173 2.52-.235.625-3.516 2.968-3.75 3.28-.39.626-.45 1.349-.176 2.169.273.82.684 1.465 1.23 1.933.157.157.215.313.176.47-.039.156-2.168 1.64-2.168 1.64-.86.39-1.66.156-2.402-.703-.742-.86-1.27-1.875-1.582-3.047-.547-1.953-1.172-3.125-1.875-3.516-1.797-.625-2.93-.586-3.399.117-.39-1.015-1.992-2.03-4.804-3.046-1.953-.704-4.22-.86-6.797-.47.469-.077.469-.663 0-1.757-.547-1.172-1.29-1.64-2.227-1.406.235-.469 1.29-5.547 1.992-6.328.079-.079 1.66-2.11 1.934-2.579.273-.468.293-.703.059-.703 2.734.313 4.687-.117 5.859-1.289.39-.39 2.266-3.593 2.578-3.984.703-.469 1.25-.684 1.64-.645.391.04 3.009 1.23 3.4 1.23 1.093.079 1.698-.35 1.816-1.288.117-.938-.176-1.719-.88-2.344.938.078 1.055-.586.352-1.992-.39-.547-.703-.899-.937-1.055-.938-.312-1.992-.117-3.164.586-.625.313-.547.625.234.938-.078-.078-2.422 2.812-3.047 3.28-.625.47-1.25.274-1.875-.585-.078-.078-.586-2.961-1.758-3.164-.625 0-1.25.586-1.875 1.758.235-.625-.195-1.211-1.289-1.758-1.093-.547-2.03-.86-2.812-.938 1.484-.937 1.172-1.992-.938-3.164-.547-.312-1.347-.508-2.402-.586-1.055-.078-1.816.078-2.285.47-.39.546-.606.995-.645 1.347-.039.351.157.664.586.937.43.274 3.418 1.387 3.574 1.465 1.094.781 1.407 1.328.938 1.64-.156.079-2.969 1.25-3.047 1.407-.234.313-.234.86 0 1.64.234.782.156 1.329-.234 1.641-.39-.39-1.64-3.672-1.875-3.984.547.703-7.715 1.016-8.38.937a2.179 2.179 0 0 1-1.581-.937c-.313-.625-.313-1.406 0-2.344.078-.312.234-.39.469-.234-.313-.235-2.227-1.953-2.461-2.11-3.594 1.172-7.266 2.774-11.016 4.805.469.078.937.04 1.406-.117.39-.156 2.54-1.328 2.695-1.406 2.657-1.094 4.297-1.368 4.922-.82l.586-.587c1.094 1.25 1.875 2.227 2.344 2.93-.547-.312-1.719-.352-3.516-.117-1.562.469-2.421.937-2.578 1.406.547.938.743 1.64.586 2.11-.312-.235-4.18-2.97-4.804-3.047-1.25 0-2.11.039-2.579.117-11.406 6.25-20.585 14.922-27.539 26.015.547.547 1.016.86 1.407.938.312.078.761 2.11.879 2.344.117.234.566.117 1.347-.352.703.625.82 1.367.352 2.227.078-.078 7.46 5.312 7.617 5.625.234.86-.156 1.562-1.172 2.11-.078-.157-2.031-1.759-2.11-1.524-.234.39-.214 1.113.06 2.168.273 1.054.683 1.543 1.23 1.464-.547 0-.918.625-1.114 1.875-.195 1.25-.332 6.602-.41 6.915 0 1.054.215 2.402.88 4.16.663 1.757 1.503 2.52 2.519 2.285-1.016.234 3.125 6.015 3.281 6.094.234.156 2.695 1.699 3.164 2.05.469.352.86.762 1.172 1.23.312.391.703 1.27 1.172 2.638.469 1.367 1.015 2.285 1.64 2.753-.156.47.215 1.25 1.114 2.344.898 1.094 1.308 1.992 1.23 2.695-.078 0-.508.235-.586.235.235.547.84 1.094 1.817 1.64.976.547 1.582 1.055 1.816 1.524.078.234.43 2.148.586 2.46.156.313.469.392.938.235.156-1.562-.782-3.984-2.813-7.265-1.172-1.953-1.836-3.086-1.992-3.399-.235-.39-1.016-3.203-1.172-3.515.156 0 2.89 1.328 2.812 1.406-.234.547-.156 1.23.235 2.05.39.82.86 1.544 1.406 2.169.547.625 4.414 4.98 5.04 6.035.624 1.054.624 1.582 0 1.582.702 0 1.484.39 2.343 1.172.86.78 1.523 1.562 1.992 2.343.39.625 2.012 6.934 2.52 7.442.507.508.996.879 1.464 1.113 0 0 9.493 4.805 9.961 4.805.47 0 1.036-.098 1.7-.293a19.514 19.514 0 0 1 1.582-.41c1.171-.157 2.304.43 3.398 1.757 1.094 1.329 1.914 2.149 2.461 2.461 2.813 1.485 4.96 1.914 6.445 1.29-.156.078-.136.37.059.878s2.48 4.278 2.637 4.512c.39.469 1.093 1.055 2.109 1.758 1.016.703 1.719 1.289 2.11 1.758.468-.313.742-.664.82-1.055-.235.625.039 1.406.82 2.344.781.937 1.484 1.328 2.11 1.172 1.093-.235 1.64-1.485 1.64-3.75-2.422 1.172-4.336.468-5.742-2.11 0-.078-1.133-3.281-1.055-3.515.078-.235 1.68-.489 1.758-.762.078-.274-1.211-4.395-1.992-5.332-.781-.938-1.25-1.524-1.406-1.758-.391.703-1.016 1.016-1.876.938-.859-.079-1.484-.43-1.874-1.055 0 .078-.352 1.25-.352 1.406-1.016 0-1.602-.039-1.758-.117.078-.234.547-4.063.703-4.688.078-.312 1.29-2.597 1.524-3.105.234-.508.39-.996.468-1.465.079-.469-.097-.84-.527-1.113-.43-.274-1.113-.371-2.05-.293-1.485.078-2.5.86-3.048 2.344-.078.234-.175 3.632-3.457 3.632-3.28 0-3.613-.273-4.16-.585-1.015-.625-1.894-1.758-2.636-3.399-.743-1.64-1.114-3.086-1.114-4.336 0-.781.098-1.816.293-3.105.196-1.29.313-2.266.352-2.93.039-.664-.176-1.621-.645-2.871.235-.156.586-.527 1.055-1.113s.86-.996 1.172-1.23c.156-.079.898-.216 1.055-.177.156.04.312-.02.468-.175.156-.157.274-.391.352-.704-.078-.078-.352-.293-.938-.703 1.43 0 1.66.176 3.34-.175 1.68-.352 2.754-.293 3.223.175 1.172.86 2.031.782 2.578-.234 0-.078-.711-2.211-.352-2.695.391 2.109 1.524 2.46 3.399 1.054.234.235.84.43 1.816.586.977.156 1.66.352 2.051.586.234.156 1.348 1.094 1.465 1.172.117.078.312.059.586-.059.273-.117.605-.37.996-.761.781 1.094 1.25 2.031 1.406 2.812.86 3.125 1.602 4.844 2.227 5.156.547.235.976.313 1.289.235.312-.078.566-2.324.527-2.754-.039-.43-.293-2.402-.293-2.402l-.117-3.047c-1.172-.235-1.895-.703-2.168-1.406-.273-.704-.215-1.426.176-2.168.39-.743.976-1.465 1.758-2.168.078-.079 2.09-.86 2.753-1.172.665-.313 1.153-.625 1.465-.938 1.64-1.484 2.227-2.851 1.758-4.101.547 0 .977-.352 1.29-1.055-.079 0-1.915-1.172-1.993-1.172.703-.39.781-1.016.234-1.875.391-.234.684-.664.88-1.289.195-.625.488-1.016.878-1.172.703.938 1.524 1.016 2.461.234.547-.624.586-1.25.117-1.874.39-.547 1.192-.958 2.403-1.231 1.21-.273 1.933-.644 2.168-1.113.547.156.859.078.937-.235.078-.312.234-2.5.469-2.812.312-.39.898-.742 1.758-1.055.86-.312 1.367-.508 1.523-.586l1.992-1.289c.235-.312.235-.469 0-.469 1.407.157 2.618-.273 3.633-1.289.781-.859.547-1.64-.703-2.343.234-.47.117-.84-.352-1.114-.468-.273-1.054-.488-1.757-.644.234-.078 2.422-.078 2.578-.235 1.172-.78.898-1.406-.82-1.875-1.329-.39-3.008.079-5.04 1.407zm-19.102 102.773c16.094-2.812 29.804-10.195 41.133-22.148-.235-.235-5.274-1.797-5.743-1.875a2.296 2.296 0 0 0-.293-1.524c-.273-.469-.585-.82-.937-1.054-.352-.235-2.52-1.602-2.754-1.758-.156-.156-2.09-1.64-2.52-1.875-.43-.235-4.199.879-4.277.996-.078.117-.078.215 0 .293-1.64-1.328-3.047-2.188-4.219-2.578-.39-.078-2.168-1.27-2.52-1.465a1.712 1.712 0 0 0-1.171-.176c-.43.078-.879.352-1.348.82-.39.391-.625.977-.703 1.758-.078.781-.156 1.29-.234 1.524-.547-.391-.547-1.075 0-2.051.547-.977.625-1.7.234-2.168-.234-.469-2.285-.234-2.636 0-.352.234-4.239 3.047-4.395 3.281-.234.313-1.133 2.461-1.29 2.695-.155-.312-.605-.566-1.347-.761-.742-.196-1.113-.41-1.113-.645.156.781.313 2.149.469 4.102.156 1.953.351 3.437.586 4.453.547 2.422.078 4.297-1.407 5.625-2.109 1.953-3.242 3.516-3.398 4.687-.313 1.72.156 2.735 1.406 3.047 0 .547-.312 1.348-.937 2.403-.625 1.054-.899 1.894-.82 2.52 0 .468.078 1.093.234 1.874z" fill-rule="nonzero" fill="#000"/></svg>