<svg width="190" height="240" viewBox="0 0 190 240" xmlns="http://www.w3.org/2000/svg"><title>uE124-delete</title><path d="M128.535 61.464A4.994 4.994 0 0 0 124.993 60H65.007A5.002 5.002 0 0 0 60 65v5h70v-5c0-1.381-.56-2.631-1.465-3.536zM40 65c0-13.81 11.197-25 25.007-25h59.986C138.806 40 150 51.191 150 65v5h20c5.523 0 10 4.477 10 10s-4.477 10-10 10h-10v90.008C160 196.569 146.565 210 130.008 210H59.992C43.431 210 30 196.565 30 180.008V90H20c-5.523 0-10-4.477-10-10s4.477-10 10-10h20v-5zm10 25v90.008c0 5.512 4.478 9.992 9.992 9.992h70.016c5.512 0 9.992-4.478 9.992-9.992V90H50zm20 15a5 5 0 1 1 10 0v70a5 5 0 1 1-10 0v-70zm20 0a5 5 0 1 1 10 0v70a5 5 0 1 1-10 0v-70zm20 0a5 5 0 1 1 10 0v70a5 5 0 1 1-10 0v-70z" fill-rule="nonzero" fill="#000"/></svg>