<svg width="240" height="240" viewBox="0 0 240 240" xmlns="http://www.w3.org/2000/svg"><title>uE130-eye</title><path d="M218.207 114.3c-.83-1.19-20.62-29.44-47.93-48.75-14.16-10.03-32.02-15.55-50.28-15.55-18.251 0-36.111 5.52-50.301 15.55-27.31 19.31-47.081 47.56-47.911 48.75a10.01 10.01 0 0 0 0 11.41c.83 1.191 20.6 29.441 47.91 48.752 14.19 10.02 32.051 15.54 50.301 15.54 18.26 0 36.12-5.52 50.28-15.55 27.311-19.31 47.101-47.561 47.931-48.751a9.96 9.96 0 0 0 0-11.4zm-98.21 40.701c-19.341 0-35.001-15.7-35.001-35 0-19.34 15.66-35 35-35 19.3 0 35 15.66 35 35 0 19.3-15.7 35-35 35zm20-35c0 11.02-8.98 20-20 20-11.05 0-20.001-8.98-20.001-20 0-11.05 8.95-20 20-20 11.02 0 20 8.95 20 20z" fill-rule="nonzero" fill="#000"/></svg>