<svg width="210" height="240" viewBox="0 0 210 240" xmlns="http://www.w3.org/2000/svg"><title>uE139-th-list</title><g transform="translate(10 25)" fill-rule="nonzero" fill="#000"><path d="M165 145H95c-11.03 0-20 8.97-20 20s8.97 20 20 20h70c11.03 0 20-8.97 20-20s-8.97-20-20-20zm0-70H95c-11.03 0-20 8.97-20 20s8.97 20 20 20h70c11.03 0 20-8.97 20-20s-8.97-20-20-20zm0-70H95c-11.03 0-20 8.97-20 20s8.97 20 20 20h70c11.03 0 20-8.97 20-20s-8.97-20-20-20z"/><circle cx="25" cy="165" r="25"/><circle cx="25" cy="95" r="25"/><circle cx="25" cy="25" r="25"/></g></svg>