<svg width="240" height="240" viewBox="0 0 240 240" xmlns="http://www.w3.org/2000/svg"><title>uE132-wrench</title><path d="M197.85 76.19a5.049 5.049 0 0 0-3.54-3.44c-1.72-.47-3.52.03-4.77 1.26l-26.16 25.57-19.14-3.83-3.81-19.07 26.45-25.85a5.002 5.002 0 0 0-1.99-8.35C159.58 40.82 154.71 40 150 40c-27.57 0-50 22.43-50 50 0 3.23.38 6.5 1.18 10.1-5.62 4.63-10.96 8.62-17.01 13.14-8.65 6.46-18.45 13.77-31.82 25.06C44.5 145.16 40 154.89 40 165c0 19.3 15.7 35 35 35 10.21 0 19.93-4.56 26.62-12.5 11.49-13.47 18.91-23.36 25.44-32.09 4.42-5.91 8.32-11.11 12.83-16.6 3.6.81 6.88 1.19 10.11 1.19 27.57 0 50-22.43 50-50 0-4.37-.68-8.75-2.15-13.81zM75 175c-5.53 0-10-4.47-10-10s4.47-10 10-10 10 4.47 10 10-4.47 10-10 10z" fill-rule="nonzero" fill="#000"/></svg>