<svg width="240" height="240" viewBox="0 0 240 240" xmlns="http://www.w3.org/2000/svg"><title>uE135-pencil Copy</title><path d="M210 68.79L171.21 30a14.97 14.97 0 0 0-10.61-4.39c-3.84 0-7.67 1.46-10.6 4.39L40.61 139.39c-2.93 2.93-5.58 7.27-7.5 11.88C31.19 155.9 30 160.86 30 165v45h45c4.14 0 9.08-1.19 13.71-3.11 4.63-1.92 8.96-4.57 11.89-7.5L210 90a14.97 14.97 0 0 0 4.39-10.61c0-3.84-1.46-7.67-4.39-10.6zM57.68 150.61l82.93-82.93L152.93 80 70 162.93l-12.32-12.32zM75 190H60l-10-10v-15c0-.77.33-3.05 1.58-6.05.1-.2 29.67 29.38 29.67 29.38-3.22 1.34-5.48 1.67-6.25 1.67zm14.39-7.68L77.07 170 160 87.07l12.32 12.32-82.93 82.93zm90-90L147.67 60.6l12.93-12.93 31.7 31.72-12.91 12.93z" fill-rule="nonzero" fill="#000"/></svg>