<svg width="240" height="240" viewBox="0 0 240 240" xmlns="http://www.w3.org/2000/svg"><title>uE138-th-large</title><path d="M80 30H60c-8.25 0-15.75 3.37-21.19 8.81C33.37 44.25 30 51.75 30 60v20c0 8.25 3.37 15.75 8.81 21.19C44.25 106.63 51.75 110 60 110h20c8.25 0 15.75-3.37 21.19-8.81C106.63 95.75 110 88.25 110 80V60c0-8.25-3.37-15.75-8.81-21.19C95.75 33.37 88.25 30 80 30zm100 0h-20c-8.25 0-15.75 3.37-21.19 8.81C133.37 44.25 130 51.75 130 60v20c0 8.25 3.37 15.75 8.81 21.19 5.44 5.44 12.94 8.81 21.19 8.81h20c8.25 0 15.75-3.37 21.19-8.81C206.63 95.75 210 88.25 210 80V60c0-8.25-3.37-15.75-8.81-21.19C195.75 33.37 188.25 30 180 30zM80 130H60c-8.25 0-15.75 3.37-21.19 8.81C33.37 144.25 30 151.75 30 160v20c0 8.25 3.37 15.75 8.81 21.19C44.25 206.63 51.75 210 60 210h20c8.25 0 15.75-3.37 21.19-8.81 5.44-5.44 8.81-12.94 8.81-21.19v-20c0-8.25-3.37-15.75-8.81-21.19C95.75 133.37 88.25 130 80 130zm100 0h-20c-8.25 0-15.75 3.37-21.19 8.81-5.44 5.44-8.81 12.94-8.81 21.19v20c0 8.25 3.37 15.75 8.81 21.19 5.44 5.44 12.94 8.81 21.19 8.81h20c8.25 0 15.75-3.37 21.19-8.81 5.44-5.44 8.81-12.94 8.81-21.19v-20c0-8.25-3.37-15.75-8.81-21.19-5.44-5.44-12.94-8.81-21.19-8.81z" fill-rule="nonzero" fill="#000"/></svg>