<svg width="240" height="240" viewBox="0 0 240 240" xmlns="http://www.w3.org/2000/svg"><title>uE134-delete</title><path d="M168.535 51.464A4.994 4.994 0 0 0 164.993 50H85.007A5.002 5.002 0 0 0 80 55v5h90v-5c0-1.381-.56-2.631-1.465-3.536zM60 55c0-13.81 11.197-25 25.007-25h79.986C178.806 30 190 41.191 190 55v5h20c5.523 0 10 4.477 10 10s-4.477 10-10 10h-10v110.008C200 206.569 186.565 220 170.008 220H79.992C63.431 220 50 206.565 50 190.008V80H40c-5.523 0-10-4.477-10-10s4.477-10 10-10h20v-5zm10 25v110.008c0 5.512 4.478 9.992 9.992 9.992h90.016c5.512 0 9.992-4.478 9.992-9.992V80H70zm20 15a5 5 0 0 1 10 0v90a5 5 0 1 1-10 0V95zm30 0a5 5 0 1 1 10 0v90a5 5 0 1 1-10 0V95zm30 0a5 5 0 1 1 10 0v90a5 5 0 1 1-10 0V95z" fill-rule="nonzero" fill="#000"/></svg>