<svg width="180" height="240" viewBox="0 0 180 240" xmlns="http://www.w3.org/2000/svg"><title>uE135-pin</title><path d="M127.29 42.71c-3.89-3.91-10.21-3.93-14.14-.04-1.04 1.04-1.76 2.27-2.25 3.55-8.32 17.36-17.48 27.15-29.04 32.93C68.89 85.55 54 90 30 90c-1.3 0-2.6.25-3.82.76a10.06 10.06 0 0 0-5.41 5.41 10.01 10.01 0 0 0 0 7.64 9.902 9.902 0 0 0 2.17 3.26l32.43 32.43L10 200l60.5-45.37 32.42 32.42c.92.94 2.03 1.66 3.26 2.17 1.22.51 2.52.78 3.82.78 1.3 0 2.6-.27 3.82-.78a9.963 9.963 0 0 0 5.41-5.41c.51-1.21.77-2.52.77-3.81 0-24 4.44-38.89 10.83-51.66 5.77-11.56 15.56-20.72 32.93-29.04 1.29-.49 2.51-1.21 3.54-2.25 3.89-3.93 3.87-10.25-.04-14.14l-39.97-40.2z" fill-rule="nonzero" fill="#000"/></svg>