<svg width="240" height="240" viewBox="0 0 240 240" xmlns="http://www.w3.org/2000/svg"><title>uE139-th-list</title><g transform="translate(20 20)" fill-rule="nonzero" fill="#000"><path d="M170 150h-70c-11.03 0-20 8.97-20 20s8.97 20 20 20h70c11.03 0 20-8.97 20-20s-8.97-20-20-20zm0-70h-70c-11.03 0-20 8.97-20 20s8.97 20 20 20h70c11.03 0 20-8.97 20-20s-8.97-20-20-20zm0-70h-70c-11.03 0-20 8.97-20 20s8.97 20 20 20h70c11.03 0 20-8.97 20-20s-8.97-20-20-20z"/><circle cx="30" cy="170" r="25"/><circle cx="30" cy="100" r="25"/><circle cx="30" cy="30" r="25"/></g></svg>