<svg width="200" height="240" viewBox="0 0 200 240" xmlns="http://www.w3.org/2000/svg"><title>uE138-th-large</title><path d="M60 30H40c-8.25 0-15.75 3.37-21.19 8.81C13.37 44.25 10 51.75 10 60v20c0 8.25 3.37 15.75 8.81 21.19C24.25 106.63 31.75 110 40 110h20c8.25 0 15.75-3.37 21.19-8.81C86.63 95.75 90 88.25 90 80V60c0-8.25-3.37-15.75-8.81-21.19C75.75 33.37 68.25 30 60 30zm100 0h-20c-8.25 0-15.75 3.37-21.19 8.81C113.37 44.25 110 51.75 110 60v20c0 8.25 3.37 15.75 8.81 21.19 5.44 5.44 12.94 8.81 21.19 8.81h20c8.25 0 15.75-3.37 21.19-8.81C186.63 95.75 190 88.25 190 80V60c0-8.25-3.37-15.75-8.81-21.19C175.75 33.37 168.25 30 160 30zM60 130H40c-8.25 0-15.75 3.37-21.19 8.81C13.37 144.25 10 151.75 10 160v20c0 8.25 3.37 15.75 8.81 21.19C24.25 206.63 31.75 210 40 210h20c8.25 0 15.75-3.37 21.19-8.81C86.63 195.75 90 188.25 90 180v-20c0-8.25-3.37-15.75-8.81-21.19C75.75 133.37 68.25 130 60 130zm100 0h-20c-8.25 0-15.75 3.37-21.19 8.81-5.44 5.44-8.81 12.94-8.81 21.19v20c0 8.25 3.37 15.75 8.81 21.19 5.44 5.44 12.94 8.81 21.19 8.81h20c8.25 0 15.75-3.37 21.19-8.81 5.44-5.44 8.81-12.94 8.81-21.19v-20c0-8.25-3.37-15.75-8.81-21.19-5.44-5.44-12.94-8.81-21.19-8.81z" fill-rule="nonzero" fill="#000"/></svg>