<svg width="240" height="240" viewBox="0 0 240 240" xmlns="http://www.w3.org/2000/svg"><title>uE158-user-book</title><g transform="translate(20 30)" fill-rule="nonzero" fill="#000"><path d="M160 0H50C33.46 0 20 13.46 20 30v10H10C4.47 40 0 44.48 0 50s4.47 10 10 10h10v20H10C4.47 80 0 84.48 0 90s4.47 10 10 10h10v20H10c-5.53 0-10 4.48-10 10s4.47 10 10 10h10v10c0 16.54 13.46 30 30 30h110c16.54 0 30-13.46 30-30V30c0-16.54-13.46-30-30-30zM40 30c0-5.51 4.49-10 10-10v20H40V30zm0 30h10v20H40V60zm0 40h10v20H40v-20zm0 50v-10h10v20c-5.51 0-10-4.49-10-10zm130 0c0 5.51-4.49 10-10 10H60V20h100c5.51 0 10 4.49 10 10v120z"/><circle cx="110" cy="75" r="20"/><path d="M110 103.56c-15.62 0-25 7.15-25 14.29 0 3.57 9.38 7.15 25 7.15 14.66 0 25-3.57 25-7.15 0-7.14-9.8-14.29-25-14.29z"/></g></svg>