<svg width="240" height="240" viewBox="0 0 240 240" xmlns="http://www.w3.org/2000/svg"><title>uE154-channels</title><path d="M179.999 70C196.57 70 210 83.425 210 100v80c0 16.57-13.425 30-30.001 30H60C43.43 210 30 196.575 30 180v-80c0-16.57 13.425-30 30.001-30h40.857l-22.93-22.929c-3.904-3.905-3.904-10.237 0-14.142 3.906-3.905 10.238-3.905 14.143 0L120 60.858l27.929-27.93c3.905-3.904 10.237-3.904 14.142 0 3.905 3.906 3.905 10.238 0 14.143L139.142 70H180zM50 100v80c0 5.527 4.474 10 10.001 10H180A9.995 9.995 0 0 0 190 180v-80c0-5.527-4.474-10-10.001-10H60A9.995 9.995 0 0 0 50 100zm10 4.995A4.995 4.995 0 0 1 64.995 100h10.01A4.995 4.995 0 0 1 80 104.995v10.01A4.995 4.995 0 0 1 75.005 120h-10.01A4.995 4.995 0 0 1 60 115.005v-10.01zm0 30A4.995 4.995 0 0 1 64.995 130h10.01A4.995 4.995 0 0 1 80 134.995v10.01A4.995 4.995 0 0 1 75.005 150h-10.01A4.995 4.995 0 0 1 60 145.005v-10.01zm0 30A4.995 4.995 0 0 1 64.995 160h10.01A4.995 4.995 0 0 1 80 164.995v10.01A4.995 4.995 0 0 1 75.005 180h-10.01A4.995 4.995 0 0 1 60 175.005v-10.01zm30-59.99A5.008 5.008 0 0 1 95 100h80c2.762 0 5 2.244 5 5.004v69.992a5.008 5.008 0 0 1-5 5.004H95c-2.762 0-5-2.244-5-5.004v-69.992z" fill="#000" fill-rule="evenodd"/></svg>