<svg width="240" height="240" viewBox="0 0 240 240" xmlns="http://www.w3.org/2000/svg"><title>uE153-help</title><g fill="#000" fill-rule="evenodd"><path d="M90 80c0-11.047 8.954-20 20.008-20h19.984C141.047 60 150 68.95 150 80c0 2.868-3.334 7.793-5.993 8.856l-12.87 5.149C113.288 101.144 100 120.77 100 140c0 11.046 8.954 20 20 20s20-8.954 20-20c0-2.872 3.33-7.792 5.993-8.856l12.87-5.149C176.709 118.857 190 99.223 190 80c0-33.144-26.865-60-60.008-60h-19.984C76.863 20 50 46.86 50 80c0 11.046 8.954 20 20 20s20-8.954 20-20z" fill-rule="nonzero"/><circle cx="120" cy="200" r="20"/></g></svg>