<svg width="160" height="240" viewBox="0 0 160 240" xmlns="http://www.w3.org/2000/svg"><title>uE153-help</title><g fill="#000" fill-rule="evenodd"><path d="M50 80c0-11.047 8.954-20 20.008-20h19.984C101.047 60 110 68.95 110 80c0 2.868-3.334 7.793-5.993 8.856l-12.87 5.149C73.288 101.144 60 120.77 60 140c0 11.046 8.954 20 20 20s20-8.954 20-20c0-2.872 3.33-7.792 5.993-8.856l12.87-5.149C136.709 118.857 150 99.223 150 80c0-33.144-26.865-60-60.008-60H70.008C36.863 20 10 46.86 10 80c0 11.046 8.954 20 20 20s20-8.954 20-20z" fill-rule="nonzero"/><circle cx="80" cy="200" r="20"/></g></svg>