<svg width="240" height="240" viewBox="0 0 240 240" xmlns="http://www.w3.org/2000/svg"><title>uE152-news</title><path d="M210 40H30c-11.04 0-20 8.96-20 20v120c0 11.04 8.96 20 20 20h180c11.04 0 20-8.96 20-20V60c0-11.04-8.96-20-20-20zM30 60h80v120H30V60zm180 120h-90V60h90.03L210 180zm-10-45c0-2.75-2.25-5-5-5h-10c-2.75 0-5 2.25-5 5v30c0 2.75 2.25 5 5 5h10c2.75 0 5-2.25 5-5v-30zm-30-60c0-2.75-2.25-5-5-5h-30c-2.75 0-5 2.25-5 5v50c0 2.75 2.25 5 5 5h30c2.75 0 5-2.25 5-5V75zm15 25h10c2.75 0 5-2.25 5-5s-2.25-5-5-5h-10c-2.75 0-5 2.25-5 5s2.25 5 5 5zm0 20h10c2.75 0 5-2.25 5-5s-2.25-5-5-5h-10c-2.75 0-5 2.25-5 5s2.25 5 5 5zm-50 30h30c2.75 0 5-2.25 5-5s-2.25-5-5-5h-30c-2.75 0-5 2.25-5 5s2.25 5 5 5zm30 10h-30c-2.75 0-5 2.25-5 5s2.25 5 5 5h30c2.75 0 5-2.25 5-5s-2.25-5-5-5zm20-80h10c2.75 0 5-2.25 5-5s-2.25-5-5-5h-10c-2.75 0-5 2.25-5 5s2.25 5 5 5zm-85-5c0-2.75-2.25-5-5-5H45c-2.75 0-5 2.25-5 5v30c0 2.75 2.25 5 5 5h50c2.75 0 5-2.25 5-5V75zm-4.99 65h-50c-2.74 0-5 2.25-5 5s2.26 5 5 5h50c2.74 0 4.99-2.25 4.99-5s-2.25-5-4.99-5zm0-20h-50c-2.74 0-5 2.25-5 5s2.26 5 5 5h50c2.74 0 4.99-2.25 4.99-5s-2.25-5-4.99-5zm0 40h-50c-2.74 0-5 2.25-5 5s2.26 5 5 5h50c2.74 0 4.99-2.25 4.99-5s-2.25-5-4.99-5z" fill-rule="nonzero" fill="#000"/></svg>