<svg width="240" height="240" viewBox="0 0 240 240" xmlns="http://www.w3.org/2000/svg"><title>uE157-user-group</title><path d="M120 130c13.81 0 26.31-5.6 35.36-14.65C164.4 106.31 170 93.81 170 80c0-13.81-5.6-26.31-14.64-35.35C146.31 35.6 133.81 30 120 30c-13.81 0-26.31 5.6-35.36 14.65C75.6 53.69 70 66.19 70 80c0 13.81 5.6 26.31 14.64 35.35C93.69 124.4 106.19 130 120 130zm80 10c6.9 0 13.15-2.79 17.68-7.31A24.888 24.888 0 0 0 225 115c0-6.9-2.79-13.15-7.32-17.68A24.917 24.917 0 0 0 200 90c-6.91 0-13.16 2.79-17.69 7.32A24.95 24.95 0 0 0 175 115c0 6.91 2.79 13.16 7.31 17.69 4.52 4.53 10.78 7.31 17.69 7.31zm0 5.9c-13.31 0-23.32 4.06-29.17 9.68C159.68 146.41 142.05 140 120 140c-22.66 0-39.95 6.48-50.92 15.64C63.12 149.99 53 145.9 40 145.9c-21.88 0-35 10.9-35 21.82 0 5.45 13.12 10.92 35 10.92 6.04 0 11.46-.51 16.23-1.33l-.4 2.7c0 10 24.06 20 64.17 20 37.62 0 64.17-10 64.17-20l-.2-2.55c4.63.73 9.95 1.18 16.03 1.18 20.51 0 35-5.47 35-10.92 0-10.92-13.73-21.82-35-21.82zM40 140c6.9 0 13.15-2.79 17.68-7.32A24.917 24.917 0 0 0 65 115c0-6.89-2.79-13.14-7.32-17.68C53.15 92.8 46.9 90 40 90c-6.91 0-13.16 2.8-17.69 7.32C17.79 101.86 15 108.11 15 115c0 6.9 2.79 13.15 7.31 17.68A24.923 24.923 0 0 0 40 140z" fill-rule="nonzero" fill="#000"/></svg>