<svg width="240" height="240" viewBox="0 0 240 240" xmlns="http://www.w3.org/2000/svg"><title>uE155-globe</title><path d="M125 220c-52.467 0-95-42.533-95-95s42.533-95 95-95 95 42.533 95 95-42.533 95-95 95zm66.35-60a74.55 74.55 0 0 0 8.486-30h-29.91c-.316 10.619-1.633 20.743-3.795 30h25.219zm-6.345 10H163.36c-3.29 10.152-7.688 18.887-12.935 25.58 13.888-5.003 25.874-13.99 34.58-25.58zm6.345-80H166.13c2.162 9.257 3.48 19.381 3.795 30h29.91a74.55 74.55 0 0 0-8.486-30zm-6.345-10c-8.706-11.59-20.692-20.577-34.58-25.58 5.247 6.693 9.645 15.428 12.935 25.58h21.645zm-29.185 80c2.297-9.037 3.754-19.187 4.1-30H130v30h25.82zm-3.04 10H130v29.182c9.011-2.956 17.231-13.726 22.78-29.182zm3.04-80H130v30h29.92c-.346-10.813-1.803-20.963-4.1-30zm-3.04-10C147.23 64.544 139.01 53.774 130 50.818V80h22.78zM94.1 160h25.82v-30H90c.346 10.813 1.803 20.963 4.1 30zm3.041 10c5.548 15.456 13.768 26.226 22.78 29.182V170H97.14zm-3.04-80c-2.298 9.037-3.755 19.187-4.101 30h29.92V90H94.1zm3.04-10h22.78V50.818C110.908 53.774 102.688 64.544 97.14 80zm-38.23 80H84.13c-2.162-9.257-3.479-19.381-3.795-30h-29.91a74.55 74.55 0 0 0 8.487 30zm6.345 10c8.706 11.59 20.692 20.577 34.58 25.58-5.247-6.693-9.645-15.428-12.935-25.58H65.256zm-6.344-80a74.55 74.55 0 0 0-8.487 30h29.91c.316-10.619 1.633-20.743 3.795-30H58.912zm6.344-10H86.9c3.29-10.152 7.688-18.887 12.935-25.58C85.948 59.422 73.962 68.41 65.256 80z" fill="#000" fill-rule="evenodd"/></svg>