<svg width="150" height="240" viewBox="0 0 150 240" xmlns="http://www.w3.org/2000/svg"><title>uE202-lock</title><path d="M70 159.146V180h10v-20.854c5.826-2.059 10-7.615 10-14.146 0-8.284-6.716-15-15-15-8.284 0-15 6.716-15 15 0 6.531 4.174 12.087 10 14.146zM30 110V79.998C30 68.957 38.959 60 49.992 60h50.016C111.05 60 120 68.959 120 79.998V110h15.003a5.004 5.004 0 0 1 4.997 5v80c0 2.762-2.229 5-4.997 5H14.997A5.004 5.004 0 0 1 10 195v-80c0-2.762 2.229-5 4.997-5H30zm20 0h50V80H49.992c.005 0 .007 18.152.008 30z" fill-rule="nonzero" fill="#000"/></svg>