<svg width="240" height="240" viewBox="0 0 240 240" xmlns="http://www.w3.org/2000/svg"><title>uE204-spinoff</title><path d="M110 130H85a5 5 0 0 0-5 5v15h-4.996A4.998 4.998 0 0 0 70 155.004v19.992A4.998 4.998 0 0 0 75.004 180h19.992a4.998 4.998 0 0 0 5.004-5.004v-19.992A4.998 4.998 0 0 0 94.996 150H90v-10h60v10h-4.996a4.998 4.998 0 0 0-5.004 5.004v19.992a4.998 4.998 0 0 0 5.004 5.004h19.992a4.998 4.998 0 0 0 5.004-5.004v-19.992a4.998 4.998 0 0 0-5.004-5.004H160v-15a5 5 0 0 0-5-5h-25v-10h5c2.756 0 5-2.241 5-5.005v-29.99A5.002 5.002 0 0 0 134.995 80h-29.99A5.002 5.002 0 0 0 100 85.005v29.99a5 5 0 0 0 5 5.005h5v10zM40 90c0-11.045 8.945-20 20.001-20H180C191.045 70 200 78.946 200 90v80c0 11.045-8.945 20-20.001 20H60C48.955 190 40 181.054 40 170V90zm70 4.995A4.995 4.995 0 0 1 114.995 90h10.01A4.995 4.995 0 0 1 130 94.995v10.01a4.995 4.995 0 0 1-4.995 4.995h-10.01a4.995 4.995 0 0 1-4.995-4.995v-10.01z" fill="#000" fill-rule="evenodd"/></svg>