<svg width="180" height="240" viewBox="0 0 180 240" xmlns="http://www.w3.org/2000/svg"><title>uE204-spinoff</title><path d="M80 130H55a5 5 0 0 0-5 5v15h-4.996A4.998 4.998 0 0 0 40 155.004v19.992A4.998 4.998 0 0 0 45.004 180h19.992A4.998 4.998 0 0 0 70 174.996v-19.992A4.998 4.998 0 0 0 64.996 150H60v-10h60v10h-4.996a4.998 4.998 0 0 0-5.004 5.004v19.992a4.998 4.998 0 0 0 5.004 5.004h19.992a4.998 4.998 0 0 0 5.004-5.004v-19.992a4.998 4.998 0 0 0-5.004-5.004H130v-15a5 5 0 0 0-5-5h-25v-10h5c2.756 0 5-2.241 5-5.005v-29.99A5.002 5.002 0 0 0 104.995 80h-29.99A5.002 5.002 0 0 0 70 85.005v29.99A5 5 0 0 0 75 120h5v10zM10 90c0-11.045 8.945-20 20.001-20H150C161.045 70 170 78.946 170 90v80c0 11.045-8.945 20-20.001 20H30C18.955 190 10 181.054 10 170V90zm70 4.995A4.995 4.995 0 0 1 84.995 90h10.01A4.995 4.995 0 0 1 100 94.995v10.01A4.995 4.995 0 0 1 95.005 110h-10.01A4.995 4.995 0 0 1 80 105.005v-10.01z" fill="#000" fill-rule="evenodd"/></svg>