<?xml version="1.0" standalone="no"?> 
<!DOCTYPE svg PUBLIC "-//W3C//DTD SVG 1.1//EN" "http://www.w3.org/Graphics/SVG/1.1/DTD/svg11.dtd" >
<svg xmlns="http://www.w3.org/2000/svg">
<defs>
  <font id="sudofont" horiz-adv-x="240">
    <font-face font-family="sudofont"
      units-per-em="240" ascent="200"
      descent="40" />
    <missing-glyph horiz-adv-x="0" />
    <glyph glyph-name="button-a"
      unicode="&#xE000;"
      horiz-adv-x="240" d=" M120 -30C59.249 -30 10 19.249 10 80S59.249 190 120 190S230 140.751 230 80S180.751 -30 120 -30zM120 -10C169.706 -10 210 30.294 210 80S169.706 170 120 170S30 129.706 30 80S70.294 -10 120 -10zM111.056 124.472C114.741 131.842 125.259 131.842 128.944 124.472L168.944 44.472C171.414 39.532 169.412 33.526 164.472 31.056C159.532 28.586 153.526 30.588 151.056 35.528L143.82 50H96.18L88.944 35.528C86.474 30.588 80.468 28.586 75.528 31.056C70.588 33.526 68.586 39.532 71.056 44.472L111.056 124.472zM133.82 70L120 97.64L106.18 70H133.82z" />
    <glyph glyph-name="button-b"
      unicode="&#xE001;"
      horiz-adv-x="240" d=" M120 -30C59.249 -30 10 19.249 10 80S59.249 190 120 190S230 140.751 230 80S180.751 -30 120 -30zM120 -10C169.706 -10 210 30.294 210 80S169.706 170 120 170S30 129.706 30 80S70.294 -10 120 -10z M90 30C85 30 80 33.333 80 40V120C80 125.523 84.477 130 90 130H130C146.57 130 160 116.57 160 100A29.889999999999997 29.889999999999997 0 0 0 152.362 80A29.888000000000005 29.888000000000005 0 0 0 160 60C160 43.43 146.572 30 130 30H90zM100 70V50H130C135.525 50 140 54.475 140 60C140 65.524 135.524 70 130 70H100zM100 110V90H130C135.525 90 140 94.475 140 100C140 105.524 135.524 110 130 110H100z" />
    <glyph glyph-name="button-x"
      unicode="&#xE002;"
      horiz-adv-x="240" d=" M120 -30C59.249 -30 10 19.249 10 80S59.249 190 120 190S230 140.751 230 80S180.751 -30 120 -30zM120 -10C169.706 -10 210 30.294 210 80S169.706 170 120 170S30 129.706 30 80S70.294 -10 120 -10z M120 96.667L98 126C94.686 130.418 88.418 131.314 84 128C79.582 124.686 78.686 118.418 82 114L107.5 80L82 46C78.686 41.582 79.582 35.314 84 32S94.686 29.582 98 34L120 63.333L142 34C145.314 29.582 151.582 28.686 156 32C160.418 35.314 161.314 41.582 158 46L132.5 80L158 114C161.314 118.418 160.418 124.686 156 128S145.314 130.418 142 126L120 96.667z" />
    <glyph glyph-name="button-y"
      unicode="&#xE003;"
      horiz-adv-x="240" d=" M120 -30C59.249 -30 10 19.249 10 80S59.249 190 120 190S230 140.751 230 80S180.751 -30 120 -30zM120 -10C169.706 -10 210 30.294 210 80S169.706 170 120 170S30 129.706 30 80S70.294 -10 120 -10z M158 114C161.314 118.418 160.418 124.686 156 128S145.314 130.418 142 126L120 96.667L98 126C94.686 130.418 88.418 131.314 84 128C79.582 124.686 78.686 118.418 82 114L110 76.667V40C110 34.477 114.477 30 120 30S130 34.477 130 40V76.667L158 114z" />
    <glyph glyph-name="button-l"
      unicode="&#xE004;"
      horiz-adv-x="240" d=" M220 190C225.523 190 230 185.523 230 180V-20C230 -25.523 225.523 -30 220 -30H20C14.477 -30 10 -25.523 10 -20V120A10 10 0 0 0 12.929 127.071L72.929 187.071A10 10 0 0 0 80 190H220zM84.142 170L30 115.858V-10H210V170H84.142z M110 50V120C110 125.523 105.523 130 100 130S90 125.523 90 120V40C90 34.477 94.477 30 100 30H160C165.523 30 170 34.477 170 40S165.523 50 160 50H110z" />
    <glyph glyph-name="button-r"
      unicode="&#xE005;"
      horiz-adv-x="240" d=" M20 190H160A10 10 0 0 0 167.071 187.071L227.071 127.071A10 10 0 0 0 230 120V-20C230 -25.523 225.523 -30 220 -30H20C14.477 -30 10 -25.523 10 -20V180C10 185.523 14.477 190 20 190zM30 -10H210V115.858L155.858 170H30V-10z M148 46C151.314 41.582 150.418 35.314 146 32S135.314 29.582 132 34L105 70H90V40C90 34.477 85.523 30 80 30S70 34.477 70 40V120A9.969 9.969 0 0 0 72.929 127.071A9.969 9.969 0 0 0 80 130H120C136.572 130 150 116.57 150 100C150 86.557 141.16 75.18 128.976 71.366L148 46zM120 90C125.524 90 130 94.476 130 100C130 105.525 125.525 110 120 110H90V90H120z" />
    <glyph glyph-name="dpad"
      unicode="&#xE006;"
      horiz-adv-x="229" d=" M70 120V170C70 175.523 74.477 180 80 180H150C155.523 180 160 175.523 160 170V120H210C215.523 120 220 115.523 220 110V40C220 34.477 215.523 30 210 30H160V-20C160 -25.523 155.523 -30 150 -30H80C74.477 -30 70 -25.523 70 -20V30H20C14.477 30 10 34.477 10 40V110C10 115.523 14.477 120 20 120H70zM90 160V110C90 104.477 85.523 100 80 100H30V50H80C85.523 50 90 45.523 90 40V-10H140V40C140 45.523 144.477 50 150 50H200V100H150C144.477 100 140 104.477 140 110V160H90zM110 145A5 5 0 1 0 120 145V125A5 5 0 1 0 110 125V145zM110 25A5 5 0 1 0 120 25V5A5 5 0 1 0 110 5V25zM165 70A5 5 0 1 0 165 80H185A5 5 0 1 0 185 70H165zM45 70A5 5 0 1 0 45 80H65A5 5 0 1 0 65 70H45z" />
    <glyph glyph-name="alarm"
      unicode="&#xE007;"
      horiz-adv-x="220" d=" M168.944 -15.528C171.414 -20.468 169.412 -26.474 164.472 -28.944C159.532 -31.414 153.526 -29.412 151.056 -24.472L145.24 -12.841C134.417 -17.45 122.507 -20 110 -20C97.493 -20 85.583 -17.45 74.76 -12.84L68.944 -24.472C66.474 -29.412 60.468 -31.414 55.528 -28.944C50.588 -26.474 48.586 -20.468 51.056 -15.528L57.326 -2.987C34.713 13.361 20 39.96 20 70C20 89.431 26.156 107.423 36.625 122.132C29.5 118.5 23.525 120.588 21.055 125.528L11.055 145.528C8.585 150.468 10.588 156.474 15.528 158.944L75.528 188.944C80.468 191.414 86.474 189.412 88.944 184.472L98.944 164.472A9.954 9.954 0 0 0 99.987 159.449A91.01 91.01 0 0 0 110 160C113.385 160 116.726 159.813 120.013 159.45A9.954 9.954 0 0 0 121.056 164.472L131.056 184.472C133.526 189.412 139.532 191.414 144.472 188.944L204.472 158.944C209.412 156.474 211.414 150.468 208.944 145.528L198.944 125.528C196.474 120.588 190.5 118.5 183.375 122.132C193.844 107.423 200 89.432 200 70C200 39.96 185.287 13.36 162.674 -2.987L168.944 -15.527zM110 140C71.41 140 40 108.59 40 70S71.41 0 110 0S180 31.41 180 70S148.59 140 110 140zM110 130C143.12 130 170 103.14 170 70C170 36.88 143.12 10 110 10C76.88 10 50 36.88 50 70C50 103.14 76.88 130 110 130zM110 120C82.43 120 60 97.57 60 70S82.43 20 110 20S160 42.43 160 70S137.57 120 110 120zM120 80H140C145.5 80 150 75.5 150 70S145.5 60 140 60H110A9.969999999999999 9.969999999999999 0 0 0 102.937 62.938A9.969999999999999 9.969999999999999 0 0 0 100 70V100C100 105.5 104.5 110 110 110S120 105.5 120 100V80z" />
    <glyph glyph-name="face-smile"
      unicode="&#xE008;"
      horiz-adv-x="240" d=" M220 190C225.523 190 230 185.523 230 180V-20C230 -25.523 225.523 -30 220 -30H20C14.477 -30 10 -25.523 10 -20V180C10 185.523 14.477 190 20 190H220zM30 170V-10H210V170H30z M63.103 42.759C59.104 46.567 58.95 52.897 62.759 56.897C66.567 60.896 72.897 61.05 76.973 57.172C77.113 57.044 77.291 56.886 77.504 56.702A54.367 54.367 0 0 1 79.852 54.792A75.417 75.417 0 0 1 89.07 48.727C98.852 43.254 109.47 40 120.5 40C131.53 40 142.148 43.254 151.93 48.727A75.416 75.416 0 0 1 161.148 54.792A54.366 54.366 0 0 1 163.496 56.702C163.709 56.886 163.886 57.044 164.103 57.242C168.103 61.05 174.433 60.896 178.241 56.897C182.051 52.897 181.896 46.567 177.897 42.759C177.62 42.495 177.181 42.096 176.584 41.579A74.251 74.251 0 0 0 173.367 38.959A95.314 95.314 0 0 0 161.695 31.273C149.134 24.246 135.282 20 120.5 20S91.866 24.246 79.305 31.273A95.314 95.314 0 0 0 67.633 38.958A74.25 74.25 0 0 0 64.416 41.579A39.092 39.092 0 0 0 63.103 42.759zM150 130C150 135.523 154.477 140 160 140S170 135.523 170 130V100C170 94.477 165.523 90 160 90S150 94.477 150 100V130zM70 130C70 135.523 74.477 140 80 140S90 135.523 90 130V100C90 94.477 85.523 90 80 90S70 94.477 70 100V130z" />
    <glyph glyph-name="face-frown"
      unicode="&#xE009;"
      horiz-adv-x="240" d=" M220 190C225.523 190 230 185.523 230 180V-20C230 -25.523 225.523 -30 220 -30H20C14.477 -30 10 -25.523 10 -20V180C10 185.523 14.477 190 20 190H220zM30 170V-10H210V170H30z M76.897 22.759C72.897 18.949 66.567 19.104 62.759 23.103C58.949 27.103 59.104 33.433 63.103 37.241C63.38 37.505 63.819 37.904 64.416 38.421A74.25 74.25 0 0 0 67.633 41.041A95.314 95.314 0 0 0 79.305 48.727C91.866 55.754 105.718 60 120.5 60S149.134 55.754 161.695 48.727A95.314 95.314 0 0 0 173.367 41.042A74.251 74.251 0 0 0 176.584 38.421C177.181 37.904 177.62 37.505 177.897 37.241C181.896 33.433 182.05 27.103 178.241 23.103C174.433 19.104 168.103 18.95 164.027 22.828C163.887 22.956 163.709 23.114 163.496 23.298A54.366 54.366 0 0 1 161.148 25.208A75.416 75.416 0 0 1 151.93 31.273C142.148 36.746 131.53 40 120.5 40C109.47 40 98.852 36.746 89.07 31.273A75.417 75.417 0 0 1 79.852 25.208A54.367 54.367 0 0 1 77.504 23.298C77.291 23.114 77.114 22.956 76.897 22.758zM162.929 137.07C166.834 140.975 173.166 140.975 177.071 137.07C180.976 133.165 180.976 126.833 177.071 122.928L157.071 102.928C153.166 99.023 146.834 99.023 142.929 102.928C139.024 106.833 139.024 113.165 142.929 117.07L162.929 137.07zM62.929 122.928C59.024 126.833 59.024 133.165 62.929 137.07C66.834 140.975 73.166 140.975 77.071 137.07L97.071 117.07C100.976 113.165 100.976 106.833 97.071 102.928C93.166 99.023 86.834 99.023 82.929 102.928L62.929 122.928z" />
    <glyph glyph-name="face-sad"
      unicode="&#xE00A;"
      horiz-adv-x="240" d=" M220 190C225.523 190 230 185.523 230 180V-20C230 -25.523 225.523 -30 220 -30H20C14.477 -30 10 -25.523 10 -20V180C10 185.523 14.477 190 20 190H220zM30 170V-10H210V170H30z M110 20C104.477 20 100 24.477 100 30S104.477 40 110 40H130C135.523 40 140 35.523 140 30S135.523 20 130 20H110zM145.528 101.056C140.588 103.526 138.586 109.532 141.056 114.472C143.526 119.412 149.532 121.414 154.472 118.944L174.472 108.944C179.412 106.474 181.414 100.468 178.944 95.528C176.474 90.588 170.468 88.586 165.528 91.056L145.528 101.056zM85.528 118.944C90.468 121.414 96.474 119.412 98.944 114.472C101.414 109.532 99.412 103.526 94.472 101.056L74.472 91.056C69.532 88.586 63.526 90.588 61.056 95.528C58.586 100.468 60.588 106.474 65.528 108.944L85.528 118.944z" />
    <glyph glyph-name="face-bored"
      unicode="&#xE00B;"
      horiz-adv-x="240" d=" M220 190C225.523 190 230 185.523 230 180V-20C230 -25.523 225.523 -30 220 -30H20C14.477 -30 10 -25.523 10 -20V180C10 185.523 14.477 190 20 190H220zM30 170V-10H210V170H30z M90 20C84.477 20 80 24.477 80 30S84.477 40 90 40H150C155.523 40 160 35.523 160 30S155.523 20 150 20H90zM90 110C95.523 110 100 105.523 100 100S95.523 90 90 90H70C64.477 90 60 94.477 60 100S64.477 110 70 110H90zM150 90C144.477 90 140 94.477 140 100S144.477 110 150 110H170C175.523 110 180 105.523 180 100S175.523 90 170 90H150z" />
    <glyph glyph-name="sun"
      unicode="&#xE00C;"
      horiz-adv-x="220" d=" M100 170V150C100 144.477 104.477 140 110 140S120 144.477 120 150V170C120 175.523 115.523 180 110 180S100 175.523 100 170zM166.569 150.71L152.426 136.57C148.521 132.664 148.521 126.333 152.426 122.427C156.332 118.522 162.663 118.522 166.569 122.427L180.71 136.57C184.615 140.475 184.615 146.806 180.71 150.712C176.804 154.617 170.473 154.617 166.568 150.712zM200 90H180C174.477 90 170 85.523 170 80S174.477 70 180 70H200C205.523 70 210 74.477 210 80S205.523 90 200 90zM180.71 23.431L166.569 37.574C162.663 41.479 156.332 41.479 152.426 37.574C148.521 33.668 148.521 27.337 152.426 23.431L166.569 9.289C170.474 5.384 176.805 5.384 180.711 9.289C184.616 13.195 184.616 19.526 180.711 23.431zM120 -10V10C120 15.523 115.523 20 110 20S100 15.523 100 10V-10C100 -15.523 104.477 -20 110 -20S120 -15.523 120 -10zM53.431 9.29L67.574 23.431C71.479 27.337 71.479 33.668 67.574 37.574C63.668 41.479 57.337 41.479 53.431 37.574L39.29 23.43C35.385 19.525 35.385 13.194 39.29 9.288C43.196 5.383 49.527 5.383 53.432 9.288zM20 70H40C45.523 70 50 74.477 50 80S45.523 90 40 90H20C14.477 90 10 85.523 10 80S14.477 70 20 70zM39.29 136.569L53.43 122.426C57.336 118.521 63.667 118.521 67.573 122.426C71.478 126.332 71.478 132.663 67.573 136.569L53.43 150.71C49.525 154.615 43.194 154.615 39.288 150.71C35.383 146.804 35.383 140.473 39.288 136.568zM110 40C87.909 40 70 57.909 70 80S87.909 120 110 120S150 102.091 150 80S132.091 40 110 40zM110 60C121.046 60 130 68.954 130 80S121.046 100 110 100S90 91.046 90 80S98.954 60 110 60z" />
    <glyph glyph-name="cloud"
      unicode="&#xE00D;"
      horiz-adv-x="220" d=" M160 0H50C27.94 0 10 17.94 10 40C10 58.61 22.77 74.29 40.01 78.74L40 80C40 113.09 66.91 140 100 140C125.87 140 148.24 123.62 156.5 99.85C185.92 102.31 210 78.72 210 50C210 22.43 187.57 0 160 0zM49.05 60.06C38.97 60 30 51.03 30 40S38.97 20 50 20H160C176.54 20 190 33.46 190 50S176.54 80 160 80C157.57 80 155 79.59 151.9 78.7L141.15 75.63L139.29 86.66C136.04 105.98 119.52 120 100 120C77.94 120 60 102.06 60 80C60 77.28 60.27 74.55 60.82 71.89L63.26 59.9L49.05 60.06z" />
    <glyph glyph-name="umbrella"
      unicode="&#xE00E;"
      horiz-adv-x="220" d=" M120 80V9.996C120 4.475 124.475 0 130 0C135.526 0 140 4.473 140 10C140 15.523 144.477 20 150 20S160 15.523 160 10C160 -6.574 146.57 -20 130 -20S100 -6.571 100 9.996V80H20C13.915 80 9.24 85.39 10.1 91.414C10.137 91.671 10.2 92.058 10.292 92.566C10.432 93.342 10.61 94.222 10.829 95.198C11.437 97.909 12.259 100.898 13.326 104.099C16.358 113.197 20.773 122.287 26.863 130.812C42.766 153.078 66.889 167.29 100 169.651V170C100 175.523 104.477 180 110 180S120 175.523 120 170V169.651C153.111 167.291 177.234 153.078 193.137 130.812C199.227 122.287 203.642 113.197 206.674 104.099A92.034 92.034 0 0 0 209.171 95.198C209.391 94.222 209.568 93.342 209.708 92.566C209.8 92.058 209.863 91.671 209.899 91.414C210.76 85.389 206.085 80 200 80H120zM176.863 119.187C163.076 138.49 141.698 150 110 150S56.924 138.489 43.137 119.187C38.781 113.088 35.47 106.563 33.076 100H186.924C184.53 106.563 181.219 113.088 176.863 119.187z" />
    <glyph glyph-name="snowman"
      unicode="&#xE00F;"
      horiz-adv-x="160" d=" M31.001 99.991C27.164 107.494 25 115.994 25 125C25 155.376 49.624 180 80 180S135 155.376 135 125C135 115.994 132.836 107.494 128.999 99.991C141.959 87.287 150 69.582 150 50C150 11.34 118.66 -20 80 -20S10 11.34 10 50C10 69.582 18.041 87.287 31.001 99.991zM60.388 96.007C42.522 88.38 30 70.653 30 50C30 22.386 52.386 0 80 0S130 22.386 130 50C130 70.653 117.478 88.381 99.612 96.007C108.898 102.3 115 112.937 115 125C115 144.33 99.33 160 80 160S45 144.33 45 125C45 112.938 51.102 102.3 60.388 96.007z" />
    <glyph glyph-name="block-warning"
      unicode="&#xE010;"
      horiz-adv-x="240" d=" M220 190C225.523 190 230 185.523 230 180V-20C230 -25.523 225.523 -30 220 -30H20C14.477 -30 10 -25.523 10 -20V180C10 185.523 14.477 190 20 190H220zM30 170V-10H210V170H30z M110 130C110 135.523 114.477 140 120 140S130 135.523 130 130V60C130 54.477 125.523 50 120 50S110 54.477 110 60V130zM120 20C114.477 20 110 24.477 110 30S114.477 40 120 40S130 35.523 130 30S125.523 20 120 20z" />
    <glyph glyph-name="block-question"
      unicode="&#xE011;"
      horiz-adv-x="240" d=" M220 190C225.523 190 230 185.523 230 180V-20C230 -25.523 225.523 -30 220 -30H20C14.477 -30 10 -25.523 10 -20V180C10 185.523 14.477 190 20 190H220zM30 170V-10H210V170H30z M120 20C114.477 20 110 24.477 110 30S114.477 40 120 40S130 35.523 130 30S125.523 20 120 20zM100 110C100 104.477 95.523 100 90 100S80 104.477 80 110.004C80 126.572 93.429 140 110 140H130C146.567 140 160 126.564 160 110C160 101.134 154.606 91.052 147.23 86.135L133.864 77.225C132.053 76.016 130 72.18 130 70V60C130 54.477 125.523 50 120 50S110 54.477 110 60V70C110 78.867 115.394 88.948 122.77 93.865L136.136 102.775C137.947 103.984 140 107.82 140 110C140 115.52 135.52 120 130 120H110C104.474 120 100 115.526 100 110z" />
    <glyph glyph-name="envelope"
      unicode="&#xE012;"
      horiz-adv-x="200" d=" M170 97.071V100.001C170 105.522 165.522 110 159.999 110H40A9.994 9.994 0 0 1 30 100V97.071L57.071 70H142.929L170 97.071zM170 82.929L148.536 61.464A5 5 0 0 0 145 60H55A5 5 0 0 0 51.464 61.464L30 82.93V30C30 24.479 34.478 20.001 40.001 20.001H160A9.994 9.994 0 0 1 170 30V82.929zM10 100C10 116.571 23.425 130 40.001 130H160C176.568 130 190 116.568 190 100V30C190 13.429 176.575 0 159.999 0H40C23.432 0 10 13.432 10 30V100z" />
    <glyph glyph-name="device-phone"
      unicode="&#xE013;"
      horiz-adv-x="150" d=" M110 170H40C23.46 170 10 156.54 10 140V20C10 3.46 23.46 -10 40 -10H110C126.54 -10 140 3.46 140 20V140C140 156.54 126.54 170 110 170zM120 20C120 14.49 115.51 10 110 10H40C34.49 10 30 14.49 30 20V140C30 145.51 34.49 150 40 150H110C115.51 150 120 145.51 120 140V20zM100 140H50C44.5 140 40 135.5 40 130V40C40 34.5 44.5 30 50 30H65C65 24.47 69.48 20 75 20S85 24.47 85 30H100C105.5 30 110 34.5 110 40V130C110 135.5 105.5 140 100 140zM100 40H50V130H100V40z" />
    <glyph glyph-name="suit-spades"
      unicode="&#xE015;"
      horiz-adv-x="220" d=" M120.207 60C122.078 43.148 136.407 30 153.75 30C172.36 30 187.5 45.14 187.5 63.75C187.5 74.68 185.77 87.59 172.93 100.43C160.81 112.55 124.1 138.18 110 147.89C95.9 138.18 59.19 112.55 47.07 100.43C34.23 87.59 32.5 74.68 32.5 63.75C32.5 45.14 47.64 30 66.25 30C83.593 30 97.922 43.148 99.793 60C100 66 104.477 70 110 70C115.523 70 120 66 120.207 60zM148.978 -6.326L160 -10V-20H60V-10L71.022 -6.326C80.022 -3.326 87.558 5.792 89.509 15.299A53.403 53.403 0 0 0 66.25 10C36.61 10 12.5 34.11 12.5 63.75C12.5 76.8 14.62 96.26 32.93 114.57C49.31 130.98 102.14 166.77 104.39 168.28A10.005 10.005 0 0 0 115.61 168.28C117.84 166.77 170.66 130.98 187.07 114.57C205.38 96.26 207.5 76.8 207.5 63.75C207.5 34.11 183.39 10 153.75 10A53.403 53.403 0 0 0 130.49 15.299C132.44 5.789 139.978 -3.326 148.978 -6.326z" />
    <glyph glyph-name="suit-diamonds"
      unicode="&#xE016;"
      horiz-adv-x="140" d=" M31.792 80L70.084 18.734L109.14 80L70.084 141.266L31.792 80zM78.432 165.376L129.432 85.376A10 10 0 0 0 129.432 74.624L78.432 -5.376C74.481 -11.574 65.416 -11.534 61.52 -5.3L11.52 74.7A10 10 0 0 0 11.52 85.3L61.52 165.3C65.416 171.534 74.48 171.574 78.432 165.376z" />
    <glyph glyph-name="suit-hearts"
      unicode="&#xE017;"
      horiz-adv-x="220" d=" M110 80C104.477 80 100 84 99.793 90C97.922 106.852 83.593 120 66.25 120C47.64 120 32.5 104.86 32.5 86.25C32.5 75.32 34.23 62.41 47.07 49.57C59.19 37.45 95.9 11.82 110 2.11C124.1 11.82 160.81 37.45 172.93 49.57C185.77 62.41 187.5 75.32 187.5 86.25C187.5 104.86 172.36 120 153.75 120C136.407 120 122.078 106.852 120.207 90C120 84 115.523 80 110 80zM104.39 -18.28C102.14 -16.77 49.31 19.02 32.93 35.43C14.62 53.74 12.5 73.2 12.5 86.25C12.5 115.89 36.61 140 66.25 140C84.27 140 100.23 131.09 110 117.44C119.77 131.09 135.73 140 153.75 140C183.39 140 207.5 115.89 207.5 86.25C207.5 73.2 205.38 53.74 187.07 35.43C170.66 19.02 117.84 -16.77 115.61 -18.28A10.005 10.005 0 0 0 104.39 -18.28z" />
    <glyph glyph-name="suit-clubs"
      unicode="&#xE018;"
      horiz-adv-x="220" d=" M148.978 -6.326L160 -10V-20H60V-10L71.022 -6.326C80.179 -3.274 87.822 6.113 89.606 15.798C82.202 12.088 73.846 10 65 10C34.624 10 10 34.624 10 65C10 90.188 26.932 111.422 50.035 117.94C50.035 153 76.863 180 110 180S170 153 169.965 117.94C193.068 111.421 210 90.187 210 65C210 34.624 185.376 10 155 10C146.155 10 137.797 12.088 130.393 15.798C132.178 6.11 139.82 -3.273 148.978 -6.326zM120.512 59C123.358 42.529 137.716 30 155 30C174.33 30 190 45.67 190 65S174.33 100 155 100C150.95 100 147.06 99.312 143.443 98.047A39.81300000000001 39.81300000000001 0 0 1 150 120C150 142.091 132.091 160 110 160S70 142.091 70 120A39.81300000000001 39.81300000000001 0 0 1 76.557 98.047A34.947 34.947 0 0 1 65 100C45.67 100 30 84.33 30 65S45.67 30 65 30C82.284 30 96.642 42.529 99.488 59C100 66 104.478 70 110 70C115.523 70 119.95 66 120.512 59z" />
    <glyph glyph-name="arrow-right"
      unicode="&#xE019;"
      horiz-adv-x="190" d=" M85.86 134.14C78.05 126.35 78.05 113.67 85.86 105.86L101.72 90H29.28C18.24 90 9.28 81.05 9.28 70C9.28 58.96 18.24 50 29.28 50H101.72L85.86 34.14C78.05 26.35 78.05 13.67 85.86 5.86A19.92 19.92 0 0 1 100 0C105.12 0 110.23 1.95 114.14 5.86L178.28 70L114.14 134.14C106.33 141.95 93.67 141.95 85.86 134.14z" />
    <glyph glyph-name="arrow-left"
      unicode="&#xE01A;"
      horiz-adv-x="190" d=" M160 90H87.56L103.42 105.86C111.23 113.67 111.23 126.35 103.42 134.14C95.61 141.95 82.95 141.95 75.14 134.14L11 70L75.14 5.86C79.04 1.95 84.16 0 89.28 0C94.4 0 99.51 1.95 103.42 5.86C111.23 13.67 111.23 26.35 103.42 34.14L87.56 50H160C171.04 50 180 58.96 180 70C180 81.05 171.04 90 160 90z" />
    <glyph glyph-name="arrow-up"
      unicode="&#xE01B;"
      horiz-adv-x="160" d=" M80 148.28L15.86 84.14C8.05 76.33 8.05 63.67 15.86 55.86C23.67 48.05 36.33 48.05 44.14 55.86L60 71.72V-0.7C60 -11.74 68.95 -20.7 80 -20.7C91.04 -20.7 100 -11.74 100 -0.7V71.72L115.86 55.86A19.92 19.92 0 0 1 130 50C135.12 50 140.23 51.95 144.14 55.86C151.95 63.67 151.95 76.33 144.14 84.14L80 148.28z" />
    <glyph glyph-name="arrow-down"
      unicode="&#xE01C;"
      horiz-adv-x="160" d=" M144.14 73.44C136.33 81.25 123.67 81.25 115.86 73.44L100 57.58V130C100 141.05 91.04 150 80 150C68.95 150 60 141.05 60 130V57.58L44.14 73.44C36.33 81.25 23.67 81.25 15.86 73.44C8.05 65.63 8.05 52.97 15.86 45.16L80 -18.98L144.14 45.16C151.95 52.97 151.95 65.62 144.14 73.44z" />
    <glyph glyph-name="x"
      unicode="&#xE028;"
      horiz-adv-x="200" d=" M100 74.142L27.071 147.072C23.166 150.976 16.834 150.976 12.929 147.072C9.024 143.166 9.024 136.834 12.929 132.929L85.858 60L12.928 -12.929C9.024 -16.834 9.024 -23.166 12.928 -27.071C16.834 -30.976 23.166 -30.976 27.071 -27.071L100 45.858L172.929 -27.072C176.834 -30.976 183.166 -30.976 187.071 -27.072C190.976 -23.166 190.976 -16.834 187.071 -12.929L114.142 60L187.072 132.929C190.976 136.834 190.976 143.166 187.072 147.071C183.166 150.976 176.834 150.976 172.929 147.071L100 74.142z" />
    <glyph glyph-name="play"
      unicode="&#xE100;"
      horiz-adv-x="240" d=" M60 130C60 143.279 72.29 150.274 83.704 143.482L157.923 99.322C173.902 89.815 173.978 71.219 158.071 61.595L83.724 16.615C72.334 9.725 60 16.7 60 30V130.001z" />
    <glyph glyph-name="pause"
      unicode="&#xE101;"
      horiz-adv-x="240" d=" M60 130V30C60 18.954 68.954 10 80 10S100 18.954 100 30V130C100 141.046 91.046 150 80 150S60 141.046 60 130zM140 130V30C140 18.954 148.954 10 160 10S180 18.954 180 30V130C180 141.046 171.046 150 160 150S140 141.046 140 130z" />
    <glyph glyph-name="volume-off"
      unicode="&#xE102;"
      horiz-adv-x="240" d=" M197.07 157.07A9.989 9.989 0 0 1 182.93 157.07L167.42 141.56C163.97 148.44 157.55 151.76 151.38 151.76C146.89 151.76 142.33 150.24 137.82 147.23L111.1 129.42C103.57 124.39 89.04 120 80 120C63.46 120 50 106.54 50 90V70C50 57.63 57.54 46.98 68.26 42.4L52.93 27.07A9.989 9.989 0 0 1 52.93 12.93A9.973 9.973 0 0 1 60 10C62.56 10 65.12 10.98 67.07 12.93L92.34 38.2C99.31 36.46 106.5 33.65 111.09 30.58L137.81 12.77C142.32 9.76 146.88 8.24 151.37 8.24C160.35 8.24 170 15.05 170 30V115.86L197.07 142.93A9.989 9.989 0 0 1 197.07 157.07zM148.91 130.59L149.95 131.21L150 130V117.07L130 97.07V117.98L148.91 130.59zM70 90C70 95.52 74.48 100 80 100C92.11 100 109.07 104.95 120 111.46V87.07L91.7 58.77C87.57 59.54 83.56 60 80 60C74.48 60 70 64.48 70 70V90zM103.01 55.94L120 72.93V48.54C115.19 51.41 109.25 53.96 103.01 55.94zM149.94 28.8L148.9 29.42L130 42.02V82.93L150 102.93V30L149.94 28.8z M190 150L60 20 M190 150L60 20" />
    <glyph glyph-name="volume-on"
      unicode="&#xE103;"
      horiz-adv-x="240" d=" M151.38 151.76C146.89 151.76 142.33 150.24 137.82 147.23L111.1 129.42C103.57 124.39 89.04 120 80 120C63.46 120 50 106.54 50 90V70C50 53.46 63.46 40 80 40C89.04 40 103.57 35.61 111.09 30.59L137.81 12.78C142.32 9.77 146.88 8.25 151.37 8.25C160.35 8.24 170 15.05 170 30V130C170 144.95 160.35 151.76 151.38 151.76zM120 48.54C109.07 55.05 92.11 60 80 60C74.48 60 70 64.48 70 70V90C70 95.52 74.48 100 80 100C92.11 100 109.07 104.95 120 111.46V48.54zM150 30L149.94 28.8L148.9 29.42L130 42.02V117.98L148.91 130.59L149.95 131.21L150 130V30z" />
    <glyph glyph-name="framemode"
      unicode="&#xE104;"
      horiz-adv-x="240" d=" M30 145.005V134.995A4.995 4.995 0 0 1 34.995 130H45.005A4.995 4.995 0 0 1 50 134.995V145.005A4.995 4.995 0 0 1 45.005 150H34.995A4.995 4.995 0 0 1 30 145.005zM10 149.99A10 10 0 0 0 20.007 160H219.993A9.999 9.999 0 0 0 230 149.991V10.01A10 10 0 0 0 219.993 0H20.007A9.999 9.999 0 0 0 10 10.009V149.99zM30 25.004V14.994A4.995 4.995 0 0 1 34.995 10H45.005A4.995 4.995 0 0 1 50 14.995V25.005A4.995 4.995 0 0 1 45.005 30H34.995A4.995 4.995 0 0 1 30 25.005zM70 25.004V14.994A4.995 4.995 0 0 1 74.995 10H85.005A4.995 4.995 0 0 1 90 14.995V25.005A4.995 4.995 0 0 1 85.005 30H74.995A4.995 4.995 0 0 1 70 25.005zM110 25.004V14.994A4.995 4.995 0 0 1 114.995 9.999H125.005A4.995 4.995 0 0 1 130 14.994V25.004A4.995 4.995 0 0 1 125.005 29.999H114.995A4.995 4.995 0 0 1 110 25.004zM150 25.004V14.994A4.995 4.995 0 0 1 154.995 9.999H165.005A4.995 4.995 0 0 1 170 14.994V25.004A4.995 4.995 0 0 1 165.005 29.999H154.995A4.995 4.995 0 0 1 150 25.004zM190 25.004V14.994A4.995 4.995 0 0 1 194.995 9.999H205.005A4.995 4.995 0 0 1 210 14.994V25.004A4.995 4.995 0 0 1 205.005 29.999H194.995A4.995 4.995 0 0 1 190 25.004zM190 145.004V134.994A4.995 4.995 0 0 1 194.995 130H205.005A4.995 4.995 0 0 1 210 134.995V145.005A4.995 4.995 0 0 1 205.005 150H194.995A4.995 4.995 0 0 1 190 145.005zM130 114.994V45.004C130 42.244 132.24 39.999 135.004 39.999H204.996C207.756 39.999 210 42.239 210 45.003V114.996C210 117.756 207.76 120 204.996 120H135.004A5.007 5.007 0 0 1 130 114.996zM30 114.994V45.004C30 42.244 32.24 39.999 35.004 39.999H104.996C107.756 39.999 110 42.239 110 45.003V114.996C110 117.756 107.76 120 104.996 120H35.004A5.007 5.007 0 0 1 30 114.996zM150 145.004V134.994A4.995 4.995 0 0 1 154.995 130H165.005A4.995 4.995 0 0 1 170 134.995V145.005A4.995 4.995 0 0 1 165.005 150H154.995A4.995 4.995 0 0 1 150 145.005zM110 145.004V134.994A4.995 4.995 0 0 1 114.995 130H125.005A4.995 4.995 0 0 1 130 134.995V145.005A4.995 4.995 0 0 1 125.005 150H114.995A4.995 4.995 0 0 1 110 145.005zM70 145.004V134.994A4.995 4.995 0 0 1 74.995 130H85.005A4.995 4.995 0 0 1 90 134.995V145.005A4.995 4.995 0 0 1 85.005 150H74.995A4.995 4.995 0 0 1 70 145.005z" />
    <glyph glyph-name="playmode"
      unicode="&#xE105;"
      horiz-adv-x="240" d=" M10 149.991A10 10 0 0 0 20.007 160H219.993A9.999 9.999 0 0 0 230 149.991V10.01A10 10 0 0 0 219.993 0H20.007A9.999 9.999 0 0 0 10 10.009V149.99zM30 145.005V134.995A4.995 4.995 0 0 1 34.995 130H45.005A4.995 4.995 0 0 1 50 134.995V145.005A4.995 4.995 0 0 1 45.005 150H34.995A4.995 4.995 0 0 1 30 145.005zM30 25.005V14.995A4.995 4.995 0 0 1 34.995 10H45.005A4.995 4.995 0 0 1 50 14.995V25.005A4.995 4.995 0 0 1 45.005 30H34.995A4.995 4.995 0 0 1 30 25.005zM70 25.005V14.995A4.995 4.995 0 0 1 74.995 10H85.005A4.995 4.995 0 0 1 90 14.995V25.005A4.995 4.995 0 0 1 85.005 30H74.995A4.995 4.995 0 0 1 70 25.005zM110 25.005V14.995A4.995 4.995 0 0 1 114.995 10H125.005A4.995 4.995 0 0 1 130 14.995V25.005A4.995 4.995 0 0 1 125.005 30H114.995A4.995 4.995 0 0 1 110 25.005zM150 25.005V14.995A4.995 4.995 0 0 1 154.995 10H165.005A4.995 4.995 0 0 1 170 14.995V25.005A4.995 4.995 0 0 1 165.005 30H154.995A4.995 4.995 0 0 1 150 25.005zM190 25.005V14.995A4.995 4.995 0 0 1 194.995 10H205.005A4.995 4.995 0 0 1 210 14.995V25.005A4.995 4.995 0 0 1 205.005 30H194.995A4.995 4.995 0 0 1 190 25.005zM190 145.005V134.995A4.995 4.995 0 0 1 194.995 130H205.005A4.995 4.995 0 0 1 210 134.995V145.005A4.995 4.995 0 0 1 205.005 150H194.995A4.995 4.995 0 0 1 190 145.005zM150 145.005V134.995A4.995 4.995 0 0 1 154.995 130H165.005A4.995 4.995 0 0 1 170 134.995V145.005A4.995 4.995 0 0 1 165.005 150H154.995A4.995 4.995 0 0 1 150 145.005zM110 145.005V134.995A4.995 4.995 0 0 1 114.995 130H125.005A4.995 4.995 0 0 1 130 134.995V145.005A4.995 4.995 0 0 1 125.005 150H114.995A4.995 4.995 0 0 1 110 145.005zM70 145.005V134.995A4.995 4.995 0 0 1 74.995 130H85.005A4.995 4.995 0 0 1 90 134.995V145.005A4.995 4.995 0 0 1 85.005 150H74.995A4.995 4.995 0 0 1 70 145.005zM97.069 109.552C93.759 111.057 90 108.636 90 105V55C90 51.364 93.759 48.943 97.069 50.448L142.971 71.313C151.9 75.371 151.903 84.627 142.971 88.687L97.07 109.552z" />
    <glyph glyph-name="expand"
      unicode="&#xE110;"
      horiz-adv-x="240" d=" M150 160C144.47 160 140 155.52 140 150S144.47 140 150 140H165.86L132.93 107.07A9.989 9.989 0 0 1 132.93 92.93A9.973 9.973 0 0 1 140 90C142.56 90 145.12 90.98 147.07 92.93L180 125.86V110C180 104.48 184.47 100 190 100S200 104.48 200 110V160H150zM92.93 67.07L60 34.14V50C60 55.52 55.53 60 50 60S40 55.52 40 50V0.01H49.96L90 0C95.52 0 100 4.48 100 10S95.53 20 90 20H74.14L107.07 52.92A9.989 9.989 0 0 1 107.07 67.06C103.16 70.97 96.84 70.98 92.93 67.07zM70 80C75.52 80 80 84.48 80 90V120H110C115.53 120 120 124.48 120 130S115.53 140 110 140H60.01L60 90C60 84.48 64.47 80 70 80zM170 80C164.47 80 160 75.52 160 70V40H130C124.47 40 120 35.52 120 30S124.47 20 130 20H180V70C180 75.52 175.53 80 170 80z" />
    <glyph glyph-name="close"
      unicode="&#xE111;"
      horiz-adv-x="240" d=" M120 160C75.81 160 40 124.18 40 80S75.81 0 120 0S200 35.82 200 80S164.19 160 120 160zM157.07 57.07A9.989 9.989 0 0 0 157.07 42.93A9.973 9.973 0 0 0 150 40C147.44 40 144.88 40.98 142.93 42.93L120 65.86L97.07 42.93A9.973 9.973 0 0 0 90 40C87.44 40 84.88 40.98 82.93 42.93A9.989 9.989 0 0 0 82.93 57.07L105.86 80L82.93 102.93A9.989 9.989 0 0 0 82.93 117.07A9.989 9.989 0 0 0 97.07 117.07L120 94.14L142.93 117.07A9.989 9.989 0 0 0 157.07 117.07A9.989 9.989 0 0 0 157.07 102.93L134.14 80L157.07 57.07z" />
    <glyph glyph-name="chevron-left"
      unicode="&#xE112;"
      horiz-adv-x="240" d=" M154.142 105.858C161.952 113.668 161.952 126.332 154.142 134.142C146.332 141.952 133.668 141.952 125.858 134.142L75.858 84.142C68.048 76.332 68.048 63.668 75.858 55.858L125.858 5.858C133.668 -1.952 146.332 -1.952 154.142 5.858C161.952 13.668 161.952 26.332 154.142 34.142L118.284 70L154.142 105.858z" />
    <glyph glyph-name="chevron-right"
      unicode="&#xE113;"
      horiz-adv-x="240" d=" M75.858 105.858C68.048 113.668 68.048 126.332 75.858 134.142C83.668 141.952 96.332 141.952 104.142 134.142L154.142 84.142C161.952 76.332 161.952 63.668 154.142 55.858L104.142 5.858C96.332 -1.952 83.668 -1.952 75.858 5.858C68.048 13.668 68.048 26.332 75.858 34.142L111.716 70L75.858 105.858z" />
    <glyph glyph-name="chevron-up"
      unicode="&#xE114;"
      horiz-adv-x="240" d=" M84.142 25.858C76.332 18.048 63.668 18.048 55.858 25.858C48.048 33.668 48.048 46.332 55.858 54.142L105.858 104.142C113.668 111.952 126.332 111.952 134.142 104.142L184.142 54.142C191.952 46.332 191.952 33.668 184.142 25.858C176.332 18.048 163.668 18.048 155.858 25.858L120 61.716L84.142 25.858z" />
    <glyph glyph-name="chevron-down"
      unicode="&#xE115;"
      horiz-adv-x="240" d=" M84.142 94.142C76.332 101.952 63.668 101.952 55.858 94.142C48.048 86.332 48.048 73.668 55.858 65.858L105.858 15.858C113.668 8.048 126.332 8.048 134.142 15.858L184.142 65.858C191.952 73.668 191.952 86.332 184.142 94.142C176.332 101.952 163.668 101.952 155.858 94.142L120 58.284L84.142 94.142z" />
    <glyph glyph-name="comment"
      unicode="&#xE120;"
      horiz-adv-x="240" d=" M169.999 30C169.999 35.523 174.476 40 179.999 40A9.996 9.996 0 0 1 190 50V120C190 125.522 185.522 130 179.999 130H60A9.994 9.994 0 0 1 50 120V50C50 44.478 54.477 40 60 40H150A10 10 0 0 0 157.071 37.07L170 24.144V30zM59.999 20C43.433 20 30 33.432 30 50V120C30 136.571 43.425 150 60.001 150H180C196.568 150 210 136.568 210 120V50C210 36.935 201.653 25.822 189.999 21.705V0C189.999 -8.91 179.227 -13.37 172.928 -7.07L145.858 20H60z" />
    <glyph glyph-name="comment-off"
      unicode="&#xE121;"
      horiz-adv-x="240" d=" M39.662 27.946C33.722 33.428 30 41.28 30 50V120C30 136.571 43.425 150 60.001 150H161.716L141.716 130H60A9.994 9.994 0 0 1 50 120V50A9.983 9.983 0 0 1 53.839 42.123L39.662 27.946zM204.949 136.665A29.858999999999998 29.858999999999998 0 0 0 210 120V50C210 36.935 201.653 25.822 189.999 21.705V0C189.999 -8.91 179.227 -13.37 172.928 -7.07L145.858 20H88.284L108.284 40H150A10 10 0 0 0 157.071 37.07L170 24.144V30C170 35.523 174.477 40 180 40A9.996 9.996 0 0 1 190 50V120C190 120.541 189.957 121.072 189.874 121.59L204.949 136.665zM182.929 157.071C186.834 160.976 193.166 160.976 197.071 157.071C200.976 153.166 200.976 146.834 197.071 142.929L57.071 2.929C53.166 -0.976 46.834 -0.976 42.929 2.929C39.024 6.834 39.024 13.166 42.929 17.071L182.929 157.071z" />
    <glyph glyph-name="eye"
      unicode="&#xE122;"
      horiz-adv-x="240" d=" M22.724 87.54A126.85100000000001 126.85100000000001 0 0 0 27.304 94.922C32.338 102.472 38.369 110.012 45.429 117.072C65.91 137.552 90.805 150 120 150S174.089 137.553 194.571 117.071C201.631 110.011 207.661 102.472 212.696 94.922A126.85100000000001 126.85100000000001 0 0 0 217.276 87.54A67.317 67.317 0 0 0 218.944 84.472A10 10 0 0 0 218.944 75.528C218.629 74.898 218.074 73.856 217.276 72.46A126.85100000000001 126.85100000000001 0 0 0 212.696 65.078C207.662 57.528 201.631 49.988 194.571 42.928C174.09 22.448 149.195 10 120 10S65.911 22.447 45.429 42.929C38.369 49.989 32.339 57.528 27.304 65.078A126.85100000000001 126.85100000000001 0 0 0 22.724 72.46A67.318 67.318 0 0 0 21.056 75.528A10 10 0 0 0 21.056 84.472C21.371 85.102 21.926 86.144 22.724 87.54zM43.946 76.172C48.286 69.66 53.506 63.137 59.571 57.072C76.59 40.052 96.695 30 120 30S163.411 40.053 180.429 57.071C186.494 63.137 191.713 69.66 196.054 76.172C196.949 77.513 197.764 78.793 198.501 80A114.743 114.743 0 0 1 196.054 83.828C191.714 90.34 186.494 96.863 180.429 102.928C163.41 119.948 143.305 130 120 130S76.589 119.947 59.571 102.929C53.506 96.863 48.287 90.34 43.946 83.828A114.74199999999999 114.74199999999999 0 0 1 41.499 80A114.74199999999999 114.74199999999999 0 0 1 43.946 76.172zM120 50C103.431 50 90 63.431 90 80C90 96.569 103.431 110 120 110C136.569 110 150 96.569 150 80C150 63.431 136.569 50 120 50zM120 60C131.046 60 140 68.954 140 80S131.046 100 120 100S100 91.046 100 80S108.954 60 120 60z" />
    <glyph glyph-name="eye-off"
      unicode="&#xE123;"
      horiz-adv-x="240" d=" M155.192 143.476L139.299 127.583C133.129 129.17 126.696 130 120 130C96.695 130 76.589 119.947 59.571 102.929C53.506 96.863 48.287 90.34 43.946 83.828A114.74199999999999 114.74199999999999 0 0 1 41.499 80A114.74199999999999 114.74199999999999 0 0 1 43.946 76.172C48.286 69.66 53.506 63.137 59.571 57.072A116.813 116.813 0 0 1 64.306 52.59L50.144 38.428A138.378 138.378 0 0 0 45.429 42.928C38.369 49.988 32.339 57.528 27.304 65.078A126.85100000000001 126.85100000000001 0 0 0 22.724 72.46A67.318 67.318 0 0 0 21.056 75.528A10 10 0 0 0 21.056 84.472C21.371 85.102 21.926 86.144 22.724 87.54A126.85100000000001 126.85100000000001 0 0 0 27.304 94.922C32.338 102.472 38.369 110.012 45.429 117.072C65.91 137.552 90.805 150 120 150C132.525 150 144.259 147.71 155.192 143.476zM189.856 121.572A138.38 138.38 0 0 0 194.571 117.072C201.631 110.012 207.661 102.472 212.696 94.922A126.85100000000001 126.85100000000001 0 0 0 217.276 87.54A67.317 67.317 0 0 0 218.944 84.472A10 10 0 0 0 218.944 75.528C218.629 74.898 218.074 73.856 217.276 72.46A126.85100000000001 126.85100000000001 0 0 0 212.696 65.078C207.662 57.528 201.631 49.988 194.571 42.928C174.09 22.448 149.195 10 120 10C107.475 10 95.741 12.29 84.808 16.524L100.701 32.417C106.871 30.83 113.304 30 120 30C143.305 30 163.411 40.053 180.429 57.071C186.494 63.137 191.713 69.66 196.054 76.172C196.949 77.513 197.764 78.793 198.501 80A114.743 114.743 0 0 1 196.054 83.828C191.714 90.34 186.494 96.863 180.429 102.928A116.813 116.813 0 0 1 175.694 107.41L189.856 121.572zM118.33 50.046L149.954 81.67C149.984 81.117 150 80.56 150 80C150 63.431 136.569 50 120 50C119.44 50 118.883 50.015 118.33 50.046zM90.046 78.33A30.48 30.48 0 0 0 90 80C90 96.569 103.431 110 120 110C120.56 110 121.117 109.985 121.67 109.954L90.046 78.33zM182.929 157.071C186.834 160.976 193.166 160.976 197.071 157.071C200.976 153.166 200.976 146.834 197.071 142.929L57.071 2.929C53.166 -0.976 46.834 -0.976 42.929 2.929C39.024 6.834 39.024 13.166 42.929 17.071L182.929 157.071z" />
    <glyph glyph-name="delete"
      unicode="&#xE124;"
      horiz-adv-x="240" d=" M158.535 138.536A4.994 4.994 0 0 1 154.993 140H95.007A5.002 5.002 0 0 1 90 135V130H160V135C160 136.381 159.44 137.631 158.535 138.536zM70 135C70 148.81 81.197 160 95.007 160H154.993C168.806 160 180 148.809 180 135V130H200C205.523 130 210 125.523 210 120S205.523 110 200 110H190V19.992C190 3.431 176.565 -10 160.008 -10H89.992C73.431 -10 60 3.435 60 19.992V110H50C44.477 110 40 114.477 40 120S44.477 130 50 130H70V135zM80 110V19.992C80 14.48 84.478 10 89.992 10H160.008C165.52 10 170 14.478 170 19.992V110H80zM100 95A5 5 0 1 0 110 95V25A5 5 0 1 0 100 25V95zM120 95A5 5 0 1 0 130 95V25A5 5 0 1 0 120 25V95zM140 95A5 5 0 1 0 150 95V25A5 5 0 1 0 140 25V95z" />
    <glyph glyph-name="delete-off"
      unicode="&#xE125;"
      horiz-adv-x="240" d=" M168.045 156.33L151.715 140H95.008A5.002 5.002 0 0 1 90 135V130H141.716L121.716 110H80V68.284L60 48.284V110H50C44.477 110 40 114.477 40 120S44.477 130 50 130H70V135C70 148.81 81.197 160 95.007 160H154.993C159.777 160 164.246 158.658 168.045 156.33zM198.285 130H200C205.523 130 210 125.523 210 120S205.523 110 200 110H190V19.992C190 3.431 176.565 -10 160.008 -10H89.992C81.276 -10 73.426 -6.278 67.946 -0.338L82.123 13.838A9.978 9.978 0 0 1 89.993 10H160.008C165.52 10 170 14.478 170 19.992V101.716L198.284 130zM109.288 97.573L100 88.284V95A5 5 0 0 0 109.288 97.573zM110 41.716V25A5 5 0 1 0 100 25V31.716L110 41.716zM130 61.716V25A5 5 0 1 0 120 25V51.716L130 61.716zM150 81.716V25A5 5 0 1 0 140 25V71.716L150 81.716zM192.929 167.071C196.834 170.976 203.166 170.976 207.071 167.071C210.976 163.166 210.976 156.834 207.071 152.929L57.071 2.929C53.166 -0.976 46.834 -0.976 42.929 2.929C39.024 6.834 39.024 13.166 42.929 17.071L192.929 167.071z" />
    <glyph glyph-name="chat"
      unicode="&#xE126;"
      horiz-adv-x="240" d=" M160 130V140C160 145.527 155.528 150 149.999 150H30C24.478 150 20 145.522 20 140V70C20 64.474 24.473 60 30.001 60C35.524 60 40.001 55.523 40.001 50V44.143L52.93 57.07A10 10 0 0 0 60 60H70V110.01C70 121.052 78.954 130 90.01 130H160zM210 140C226.568 140 240 126.568 240 110V40C240 26.935 231.653 15.822 219.999 11.705V-10C219.999 -18.91 209.227 -23.37 202.928 -17.07L175.858 10H90C74.751 10 62.157 21.381 60.25 36.107L37.072 12.93C30.772 6.63 20.002 11.092 20.002 20.001V41.706C8.346 45.822 0 56.935 0 70V140C0 156.568 13.432 170 30.001 170H150C166.576 170 180 156.571 180.001 140H210.001zM90.01 120C84.474 120 80 115.529 80 110.01V39.995A9.962 9.962 0 0 1 82.93 32.929A9.969999999999999 9.969999999999999 0 0 1 90 30H180A10 10 0 0 0 187.071 27.07L200 14.144V20C200 25.523 204.477 30 210.004 30C215.528 30 220.001 34.474 220.001 40V110A9.969 9.969 0 0 1 217.071 117.07A9.969 9.969 0 0 1 210 120H90.01z" />
    <glyph glyph-name="star"
      unicode="&#xE127;"
      horiz-adv-x="240" d=" M31 87L67 54L57 8C56 2 58 -4 63 -7C65 -9 68 -10 71 -10C73 -10 75 -10 77 -9C77 -9 78 -9 78 -8L119 15L160 -8S161 -8 161 -9C166 -11 172 -11 176 -8C181 -5 183 1 182 7L172 53C176 56 182 62 188 68L207 85L208 86C212 90 213 96 211 101S205 110 199 111H198L151 116L132 159S132 160 131 160C130 167 125 170 120 170S110 167 107 162C107 162 107 161 106 161L87 118L40 113H39C34 112 29 108 27 103C26 97 27 91 31 87z" />
    <glyph glyph-name="star-o"
      unicode="&#xE128;"
      horiz-adv-x="240" d=" M168.071 -9.32C165.831 -9.32 163.641 -8.82 161.611 -7.86L160.571 -7.35L119.501 16.08L78.431 -7.36L77.371 -7.89C72.491 -10.17 66.521 -9.63 62.161 -6.46C57.471 -3.06 55.151 2.87 56.301 8.63L65.871 55.05L49.851 69.62L30.901 86.87L30.121 87.69C26.371 91.65 25.031 97.39 26.721 102.61C28.451 107.85 32.921 111.73 38.321 112.7L39.341 112.88L86.351 118.09L105.811 161.19L106.411 162.29A14.99 14.99 0 0 0 119.501 170C124.931 170 129.941 167.02 132.591 162.3L133.191 161.18L152.671 118.06L199.681 112.85L200.721 112.68C206.111 111.68 210.581 107.82 212.301 102.56C214.001 97.35 212.651 91.58 208.901 87.62L208.121 86.84L173.141 55L182.711 8.68C183.841 2.81 181.531 -3.1 176.811 -6.51A14.884 14.884 0 0 0 168.071 -9.32zM86.581 56.32C86.191 54.5 81.921 33.86 78.131 15.5L114.561 36.27A9.99 9.99 0 0 0 124.461 36.27L160.891 15.52L152.401 56.56C151.691 60.02 152.851 63.61 155.481 65.98L186.481 94.2L144.801 98.81C141.291 99.2 138.261 101.41 136.791 104.65L119.511 142.86L102.251 104.65A10.07 10.07 0 0 0 94.241 98.81L52.561 94.2L83.561 65.98A9.954 9.954 0 0 0 86.581 56.32z" />
    <glyph glyph-name="heart"
      unicode="&#xE129;"
      horiz-adv-x="240" d=" M120 3C118.452 3 117.143 3.535 116.071 4.605L60.357 58.3C59.762 58.776 58.943 59.55 57.902 60.62C56.86 61.69 55.208 63.637 52.946 66.462A78.929 78.929 0 0 0 46.875 75.158C45.089 78.131 43.497 81.728 42.098 85.95C40.7 90.171 40 94.274 40 98.258C40 111.339 43.78 121.567 51.34 128.94C58.898 136.313 69.344 140 82.678 140C86.368 140 90.133 139.36 93.972 138.082A45.733 45.733 0 0 0 104.687 132.909C107.99 130.739 110.832 128.702 113.213 126.799A82.236 82.236 0 0 0 120 120.734A82.236 82.236 0 0 0 126.786 126.799C129.166 128.702 132.009 130.739 135.312 132.909A45.733 45.733 0 0 0 146.027 138.082C149.867 139.361 153.63 140 157.32 140C170.654 140 181.1 136.313 188.66 128.94C196.22 121.567 200 111.34 200 98.258C200 85.117 193.185 71.738 179.554 58.121L123.929 4.605C122.857 3.535 121.548 3 120 3z" />
    <glyph glyph-name="lock"
      unicode="&#xE12A;"
      horiz-adv-x="240" d=" M110 40.854V20H120V40.854C125.826 42.913 130 48.469 130 55C130 63.284 123.284 70 115 70C106.716 70 100 63.284 100 55C100 48.469 104.174 42.913 110 40.854zM70 90V120.002C70 131.043 78.959 140 89.992 140H140.008C151.05 140 160 131.041 160 120.002V90H175.003A5.004 5.004 0 0 0 180 85V5C180 2.238 177.771 0 175.003 0H54.997A5.004 5.004 0 0 0 50 5V85C50 87.762 52.229 90 54.997 90H70zM90 90H140V120H89.992C89.997 120 89.999 101.848 90 90z" />
    <glyph glyph-name="spinoff"
      unicode="&#xE12B;"
      horiz-adv-x="240" d=" M110 60H85A5 5 0 0 1 80 55V40H75.004A4.998 4.998 0 0 1 70 34.996V15.004A4.998 4.998 0 0 1 75.004 10H94.996A4.998 4.998 0 0 1 100 15.004V34.996A4.998 4.998 0 0 1 94.996 40H90V50H150V40H145.004A4.998 4.998 0 0 1 140 34.996V15.004A4.998 4.998 0 0 1 145.004 10H164.996A4.998 4.998 0 0 1 170 15.004V34.996A4.998 4.998 0 0 1 164.996 40H160V55A5 5 0 0 1 155 60H130V70H135C137.756 70 140 72.241 140 75.005V104.995A5.002 5.002 0 0 1 134.995 110H105.005A5.002 5.002 0 0 1 100 104.995V75.005A5 5 0 0 1 105 70H110V60zM40 100C40 111.045 48.945 120 60.001 120H180C191.045 120 200 111.054 200 100V20C200 8.955 191.055 0 179.999 0H60C48.955 0 40 8.946 40 20V100zM110 95.005A4.995 4.995 0 0 0 114.995 100H125.005A4.995 4.995 0 0 0 130 95.005V84.995A4.995 4.995 0 0 0 125.005 80H114.995A4.995 4.995 0 0 0 110 84.995V95.005z" />
    <glyph glyph-name="pencil"
      unicode="&#xE12C;"
      horiz-adv-x="240" d=" M210 131.21L171.21 170A14.970000000000002 14.970000000000002 0 0 1 160.6 174.39C156.76 174.39 152.93 172.93 150 170L40.61 60.61C37.68 57.68 35.03 53.34 33.11 48.73C31.19 44.1 30 39.14 30 35V-10H75C79.14 -10 84.08 -8.81 88.71 -6.89C93.34 -4.97 97.67 -2.32 100.6 0.61L210 110A14.970000000000002 14.970000000000002 0 0 1 214.39 120.61C214.39 124.45 212.93 128.28 210 131.21zM57.68 49.39L140.61 132.32L152.93 120L70 37.07L57.68 49.39zM75 10H60L50 20V35C50 35.77 50.33 38.05 51.58 41.05C51.68 41.25 81.25 11.67 81.25 11.67C78.03 10.33 75.77 10 75 10zM89.39 17.68L77.07 30L160 112.93L172.32 100.61L89.39 17.68zM179.39 107.68L147.67 139.4L160.6 152.33L192.3 120.61L179.39 107.68z" />
    <glyph glyph-name="edit"
      unicode="&#xE12D;"
      horiz-adv-x="240" d=" M125.858 140L162.928 177.071C166.834 180.976 173.166 180.976 177.071 177.071L217.071 137.071C220.976 133.166 220.976 126.834 217.071 122.929L180 85.858V0C180 -5.523 175.523 -10 170 -10H40C34.477 -10 30 -5.523 30 0V130C30 135.523 34.477 140 40 140H125.858zM105.858 120H50V10H160V65.858L137.071 42.928A10 10 0 0 0 130 40H80V90A10 10 0 0 0 82.929 97.071L105.858 120zM105.607 91.464L131.464 65.607L195.858 130L170 155.858L105.607 91.464zM122.921 60.008L100 82.928V60.072L122.92 60.008z" />
    <glyph glyph-name="cog"
      unicode="&#xE12E;"
      horiz-adv-x="240" d=" M98.87 29.52L102.58 14.7C103.91 9.37 109.5 5 115 5H125C130.5 5 136.09 9.37 137.42 14.7L141.13 29.52A9.614 9.614 0 0 0 153.16 36.46L167.83 32.26C173.12 30.75 179.71 33.4 182.45 38.17L187.45 46.84C190.19 51.61 189.22 58.63 185.26 62.46L174.28 73.07A9.608 9.608 0 0 0 174.29 86.97L185.25 97.58C189.21 101.4 190.19 108.42 187.45 113.19L182.44 121.86C179.69 126.63 173.11 129.28 167.83 127.77L153.16 123.57A9.631 9.631 0 0 0 141.12 130.51L137.42 145.31C136.09 150.63 130.5 155 125 155H115C109.5 155 103.91 150.63 102.58 145.3L98.88 130.5A9.637 9.637 0 0 0 86.84 123.55L72.17 127.75C66.88 129.27 60.29 126.61 57.55 121.85L52.55 113.18C49.81 108.41 50.78 101.39 54.75 97.56L65.71 86.97A9.645 9.645 0 0 0 65.71 73.06L54.73 62.45C50.78 58.62 49.79 51.6 52.54 46.83L57.55 38.16C60.29 33.39 66.88 30.74 72.17 32.25L86.84 36.45A9.6 9.6 0 0 0 98.87 29.52zM120 100C131.04 100 140 91.05 140 80C140 68.96 131.04 60 120 60S100 68.96 100 80C100 91.05 108.96 100 120 100z" />
    <glyph glyph-name="warning"
      unicode="&#xE12F;"
      horiz-adv-x="240" d=" M118.468 137.672L48.487 12.565C47.97 11.641 47.678 10.874 47.56 10.299C48.12 10.12 48.935 10 49.994 10H190.006C191.029 10 191.821 10.112 192.376 10.279C192.248 10.845 191.955 11.592 191.449 12.485L120.642 137.668C120.256 138.352 119.882 138.882 119.548 139.27C119.218 138.883 118.849 138.353 118.468 137.672zM138.051 147.515L208.858 22.332C218.065 6.053 208.704 -10 190.006 -10H49.994C31.315 -10 21.914 6.027 31.032 22.328L101.013 147.435C110.211 163.878 128.777 163.911 138.051 147.515z M110 100C110 105.523 114.477 110 120 110S130 105.523 130 100V60C130 54.477 125.523 50 120 50S110 54.477 110 60V100zM120 20C114.477 20 110 24.477 110 30S114.477 40 120 40S130 35.523 130 30S125.523 20 120 20z" />
    <glyph glyph-name="calendar"
      unicode="&#xE130;"
      horiz-adv-x="240" d=" M190 138.16V140C190 156.57 176.57 170 160 170S130 156.57 130 140H110C110 156.57 96.57 170 80 170S50 156.57 50 140V138.16C38.39 134.01 30 123.02 30 110V20C30 3.46 43.46 -10 60 -10H180C196.54 -10 210 3.46 210 20V110C210 123.02 201.61 134.01 190 138.16zM150 140C150 145.52 154.47 150 160 150S170 145.52 170 140V120C170 114.48 165.53 110 160 110S150 114.48 150 120V140zM70 140C70 145.52 74.47 150 80 150S90 145.52 90 140V120C90 114.48 85.53 110 80 110S70 114.48 70 120V140zM190 20C190 14.49 185.52 10 180 10H60C54.48 10 50 14.49 50 20V80H190V20z" />
    <glyph glyph-name="music"
      unicode="&#xE131;"
      horiz-adv-x="240" d=" M188.31 169.41C187.24 170.36 185.88 170.8 184.37 170.62L74.37 158.12A5 5 0 0 1 70 153.16V50C53.46 50 40 38.78 40 25S53.46 0 70 0S100 11.22 100 25V101.09L160 107.34V70C143.46 70 130 58.78 130 45S143.46 20 160 20S190 31.22 190 45V165.66C190 167.1 189.38 168.46 188.31 169.41z" />
    <glyph glyph-name="cancel"
      unicode="&#xE132;"
      horiz-adv-x="240" d=" M121 160C76.89 160 41 124.11 41 80S76.89 0 121 0S201 35.89 201 80S165.11 160 121 160zM71 80C71 88.32 73.24 96.04 76.84 102.95L143.95 35.84C137.04 32.24 129.32 30 121 30C93.43 30 71 52.43 71 80zM165.16 57.05L98.05 124.16C104.96 127.76 112.68 130 121 130C148.57 130 171 107.57 171 80C171 71.68 168.76 63.96 165.16 57.05z" />
    <glyph glyph-name="flag"
      unicode="&#xE133;"
      horiz-adv-x="240" d=" M183.83 138.82A9.999 9.999 0 0 1 172.93 136.65C160.29 124.02 139.72 124.01 127.07 136.65C106.62 157.08 73.37 157.08 52.93 136.65A9.974 9.974 0 0 1 50 129.58V-0.42C50 -5.94 54.47 -10.42 60 -10.42S70 -5.94 70 -0.42V45.11C82.71 55.08 101.21 54.22 112.93 42.51C133.38 22.08 166.64 22.08 187.07 42.51A9.99 9.99 0 0 1 190 49.58V129.58C190 133.63 187.56 137.27 183.83 138.82z" />
    <glyph glyph-name="note"
      unicode="&#xE134;"
      horiz-adv-x="240" d=" M170 -10H70C53.46 -10 40 3.46 40 20V140C40 156.54 53.46 170 70 170H170C186.54 170 200 156.54 200 140V20C200 3.46 186.54 -10 170 -10zM70 150C64.49 150 60 145.51 60 140V20C60 14.49 64.49 10 70 10H170C175.51 10 180 14.49 180 20V140C180 145.51 175.51 150 170 150H70zM160 90H80C77.24 90 75 92.24 75 95S77.24 100 80 100H160C162.76 100 165 97.76 165 95S162.76 90 160 90zM160 120H80C77.24 120 75 122.24 75 125S77.24 130 80 130H160C162.76 130 165 127.76 165 125S162.76 120 160 120zM160 60H80C77.24 60 75 62.24 75 65S77.24 70 80 70H160C162.76 70 165 67.76 165 65S162.76 60 160 60zM160 30H80C77.24 30 75 32.24 75 35S77.24 40 80 40H160C162.76 40 165 37.76 165 35S162.76 30 160 30z" />
    <glyph glyph-name="pin"
      unicode="&#xE135;"
      horiz-adv-x="240" d=" M157.29 157.29C153.4 161.2 147.08 161.22 143.15 157.33C142.11 156.29 141.39 155.06 140.9 153.78C132.58 136.42 123.42 126.63 111.86 120.85C98.89 114.45 84 110 60 110C58.7 110 57.4 109.75 56.18 109.24A10.06 10.06 0 0 1 50.77 103.83A10.01 10.01 0 0 1 50.77 96.19A9.902 9.902 0 0 1 52.94 92.93L85.37 60.5L40 0L100.5 45.37L132.92 12.95C133.84 12.01 134.95 11.29 136.18 10.78C137.4 10.27 138.7 10 140 10C141.3 10 142.6 10.27 143.82 10.78A9.963 9.963 0 0 1 149.23 16.19C149.74 17.4 150 18.71 150 20C150 44 154.44 58.89 160.83 71.66C166.6 83.22 176.39 92.38 193.76 100.7C195.05 101.19 196.27 101.91 197.3 102.95C201.19 106.88 201.17 113.2 197.26 117.09L157.29 157.29z" />
    <glyph glyph-name="plus"
      unicode="&#xE136;"
      horiz-adv-x="240" d=" M180 100H140V140C140 151.04 131.04 160 120 160S100 151.04 100 140L100.71 100H60C48.96 100 40 91.04 40 80S48.96 60 60 60L100.71 60.71L100 20C100 8.96 108.96 0 120 0S140 8.96 140 20V60.71L180 60C191.04 60 200 68.96 200 80S191.04 100 180 100z" />
    <glyph glyph-name="minus"
      unicode="&#xE137;"
      horiz-adv-x="240" d=" M180 100H60C48.96 100 40 91.04 40 80S48.96 60 60 60H180C191.04 60 200 68.96 200 80S191.04 100 180 100z" />
    <glyph glyph-name="th-large"
      unicode="&#xE138;"
      horiz-adv-x="240" d=" M80 170H60C51.75 170 44.25 166.63 38.81 161.19C33.37 155.75 30 148.25 30 140V120C30 111.75 33.37 104.25 38.81 98.81C44.25 93.37 51.75 90 60 90H80C88.25 90 95.75 93.37 101.19 98.81C106.63 104.25 110 111.75 110 120V140C110 148.25 106.63 155.75 101.19 161.19C95.75 166.63 88.25 170 80 170zM180 170H160C151.75 170 144.25 166.63 138.81 161.19C133.37 155.75 130 148.25 130 140V120C130 111.75 133.37 104.25 138.81 98.81C144.25 93.37 151.75 90 160 90H180C188.25 90 195.75 93.37 201.19 98.81C206.63 104.25 210 111.75 210 120V140C210 148.25 206.63 155.75 201.19 161.19C195.75 166.63 188.25 170 180 170zM80 70H60C51.75 70 44.25 66.63 38.81 61.19C33.37 55.75 30 48.25 30 40V20C30 11.75 33.37 4.25 38.81 -1.19C44.25 -6.63 51.75 -10 60 -10H80C88.25 -10 95.75 -6.63 101.19 -1.19C106.63 4.25 110 11.75 110 20V40C110 48.25 106.63 55.75 101.19 61.19C95.75 66.63 88.25 70 80 70zM180 70H160C151.75 70 144.25 66.63 138.81 61.19C133.37 55.75 130 48.25 130 40V20C130 11.75 133.37 4.25 138.81 -1.19C144.25 -6.63 151.75 -10 160 -10H180C188.25 -10 195.75 -6.63 201.19 -1.19C206.63 4.25 210 11.75 210 20V40C210 48.25 206.63 55.75 201.19 61.19C195.75 66.63 188.25 70 180 70z" />
    <glyph glyph-name="th-list"
      unicode="&#xE139;"
      horiz-adv-x="240" d=" M190 30H120C108.97 30 100 21.03 100 10S108.97 -10 120 -10H190C201.03 -10 210 -1.03 210 10S201.03 30 190 30zM190 100H120C108.97 100 100 91.03 100 80S108.97 60 120 60H190C201.03 60 210 68.97 210 80S201.03 100 190 100zM190 170H120C108.97 170 100 161.03 100 150S108.97 130 120 130H190C201.03 130 210 138.97 210 150S201.03 170 190 170z M25 10C25 -3.8071187457698 36.1928812542302 -15 50 -15C63.8071187457698 -15 75 -3.8071187457698 75 10C75 23.8071187457698 63.8071187457698 35 50 35C36.1928812542302 35 25 23.8071187457698 25 10z M25 80C25 66.1928812542302 36.1928812542302 55 50 55C63.8071187457698 55 75 66.1928812542302 75 80C75 93.8071187457698 63.8071187457698 105 50 105C36.1928812542302 105 25 93.8071187457698 25 80z M25 150C25 136.1928812542302 36.1928812542302 125 50 125C63.8071187457698 125 75 136.1928812542302 75 150C75 163.8071187457699 63.8071187457698 175 50 175C36.1928812542302 175 25 163.8071187457699 25 150z" />
    <glyph glyph-name="th-menu"
      unicode="&#xE13A;"
      horiz-adv-x="240" d=" M190 30H50C38.97 30 30 21.03 30 10S38.97 -10 50 -10H190C201.03 -10 210 -1.03 210 10S201.03 30 190 30zM190 100H50C38.97 100 30 91.03 30 80S38.97 60 50 60H190C201.03 60 210 68.97 210 80S201.03 100 190 100zM190 170H50C38.97 170 30 161.03 30 150S38.97 130 50 130H190C201.03 130 210 138.97 210 150S201.03 170 190 170z" />
    <glyph glyph-name="th-"
      unicode="&#xE13B;"
      horiz-adv-x="240" d=" M25 10C25 -3.8071187457698 36.1928812542302 -15 50 -15C63.8071187457698 -15 75 -3.8071187457698 75 10C75 23.8071187457698 63.8071187457698 35 50 35C36.1928812542302 35 25 23.8071187457698 25 10z M25 80C25 66.1928812542302 36.1928812542302 55 50 55C63.8071187457698 55 75 66.1928812542302 75 80C75 93.8071187457698 63.8071187457698 105 50 105C36.1928812542302 105 25 93.8071187457698 25 80z M25 150C25 136.1928812542302 36.1928812542302 125 50 125C63.8071187457698 125 75 136.1928812542302 75 150C75 163.8071187457699 63.8071187457698 175 50 175C36.1928812542302 175 25 163.8071187457699 25 150z M95 10C95 -3.8071187457698 106.1928812542302 -15 120 -15C133.8071187457699 -15 145 -3.8071187457698 145 10C145 23.8071187457698 133.8071187457699 35 120 35C106.1928812542302 35 95 23.8071187457698 95 10z M95 80C95 66.1928812542302 106.1928812542302 55 120 55C133.8071187457699 55 145 66.1928812542302 145 80C145 93.8071187457698 133.8071187457699 105 120 105C106.1928812542302 105 95 93.8071187457698 95 80z M95 150C95 136.1928812542302 106.1928812542302 125 120 125C133.8071187457699 125 145 136.1928812542302 145 150C145 163.8071187457699 133.8071187457699 175 120 175C106.1928812542302 175 95 163.8071187457699 95 150z M165 10C165 -3.8071187457698 176.1928812542302 -15 190 -15C203.8071187457698 -15 215 -3.8071187457698 215 10C215 23.8071187457698 203.8071187457698 35 190 35C176.1928812542302 35 165 23.8071187457698 165 10z M165 80C165 66.1928812542302 176.1928812542302 55 190 55C203.8071187457698 55 215 66.1928812542302 215 80C215 93.8071187457698 203.8071187457698 105 190 105C176.1928812542302 105 165 93.8071187457698 165 80z M165 150C165 136.1928812542302 176.1928812542302 125 190 125C203.8071187457698 125 215 136.1928812542302 215 150C215 163.8071187457699 203.8071187457698 175 190 175C176.1928812542302 175 165 163.8071187457699 165 150z" />
    <glyph glyph-name="home"
      unicode="&#xE150;"
      horiz-adv-x="240" d=" M120 160S68.14 116.6 33.57 87.68C31.54 85.84 30 83.16 30 80C30 74.47 34.47 70 40 70H60V0C60 -5.53 64.47 -10 70 -10H90C95.53 -10 100 -5.52 100 0V40H140V0C140 -5.52 144.47 -10 150 -10H170C175.53 -10 180 -5.53 180 0V70H200C205.53 70 210 74.47 210 80C210 83.16 208.46 85.84 206.17 87.68C171.84 116.6 120 160 120 160z" />
    <glyph glyph-name="search"
      unicode="&#xE151;"
      horiz-adv-x="240" d=" M130 170C91.41 170 60 138.59 60 100C60 92.37 61.27 85.05 63.54 78.17L56.05 70.67L50.94 65.55L40.86 55.1C35.24 49.53 31.95 41.65 31.95 33.25C31.95 15.98 45.99 1.94 63.25 1.94C70.82 1.94 78.29 4.72 84.29 9.78L84.93 10.33L85.54 10.9400000000001L100.66 26.0400000000001L108.16 33.5300000000001C115.04 31.2700000000001 122.37 30.0000000000001 130 30.0000000000001C168.59 30.0000000000001 200 61.4100000000001 200 100.0000000000001S168.59 170.0000000000001 130 170.0000000000001zM130 50C102.43 50 80 72.43 80 100S102.43 150 130 150S180 127.57 180 100S157.57 50 130 50zM130 140C107.95 140 90 122.06 90 100S107.95 60 130 60S170 77.94 170 100S152.05 140 130 140zM130 70C113.44 70 100 83.44 100 100C100 116.56 113.44 130 130 130C146.56 130 160 116.56 160 100C160 83.44 146.56 70 130 70z" />
    <glyph glyph-name="news"
      unicode="&#xE152;"
      horiz-adv-x="240" d=" M210 160H30C18.96 160 10 151.04 10 140V20C10 8.96 18.96 0 30 0H210C221.04 0 230 8.96 230 20V140C230 151.04 221.04 160 210 160zM30 140H110V20H30V140zM210 20H120V140H210.03L210 20zM200 65C200 67.75 197.75 70 195 70H185C182.25 70 180 67.75 180 65V35C180 32.25 182.25 30 185 30H195C197.75 30 200 32.25 200 35V65zM170 125C170 127.75 167.75 130 165 130H135C132.25 130 130 127.75 130 125V75C130 72.25 132.25 70 135 70H165C167.75 70 170 72.25 170 75V125zM185 100H195C197.75 100 200 102.25 200 105S197.75 110 195 110H185C182.25 110 180 107.75 180 105S182.25 100 185 100zM185 80H195C197.75 80 200 82.25 200 85S197.75 90 195 90H185C182.25 90 180 87.75 180 85S182.25 80 185 80zM135 50H165C167.75 50 170 52.25 170 55S167.75 60 165 60H135C132.25 60 130 57.75 130 55S132.25 50 135 50zM165 40H135C132.25 40 130 37.75 130 35S132.25 30 135 30H165C167.75 30 170 32.25 170 35S167.75 40 165 40zM185 120H195C197.75 120 200 122.25 200 125S197.75 130 195 130H185C182.25 130 180 127.75 180 125S182.25 120 185 120zM100 125C100 127.75 97.75 130 95 130H45C42.25 130 40 127.75 40 125V95C40 92.25 42.25 90 45 90H95C97.75 90 100 92.25 100 95V125zM95.01 60H45.01C42.27 60 40.01 57.75 40.01 55S42.27 50 45.01 50H95.01C97.75 50 100 52.25 100 55S97.75 60 95.01 60zM95.01 80H45.01C42.27 80 40.01 77.75 40.01 75S42.27 70 45.01 70H95.01C97.75 70 100 72.25 100 75S97.75 80 95.01 80zM95.01 40H45.01C42.27 40 40.01 37.75 40.01 35S42.27 30 45.01 30H95.01C97.75 30 100 32.25 100 35S97.75 40 95.01 40z" />
    <glyph glyph-name="help"
      unicode="&#xE153;"
      horiz-adv-x="240" d=" M90 120C90 131.047 98.954 140 110.008 140H129.992C141.047 140 150 131.05 150 120C150 117.132 146.666 112.207 144.007 111.144L131.137 105.995C113.288 98.856 100 79.23 100 60C100 48.954 108.954 40 120 40S140 48.954 140 60C140 62.872 143.33 67.792 145.993 68.856L158.863 74.005C176.709 81.143 190 100.777 190 120C190 153.144 163.135 180 129.992 180H110.008C76.863 180 50 153.14 50 120C50 108.954 58.954 100 70 100S90 108.954 90 120z M100 0C100 -11.0456949966159 108.9543050033841 -20 120 -20C131.0456949966159 -20 140 -11.0456949966159 140 0C140 11.0456949966159 131.0456949966159 20 120 20C108.9543050033841 20 100 11.0456949966159 100 0z" />
  </font>
</defs>
</svg>
