<svg xmlns="http://www.w3.org/2000/svg" width="220" height="240" viewBox="0 0 220 240"><title>alarm</title><path d="M168.944 215.528c2.47 4.94.468 10.946-4.472 13.416-4.94 2.47-10.946.468-13.416-4.472l-5.816-11.631C134.417 217.45 122.507 220 110 220c-12.507 0-24.417-2.55-35.24-7.16l-5.816 11.632c-2.47 4.94-8.476 6.942-13.416 4.472-4.94-2.47-6.942-8.476-4.472-13.416l6.27-12.541C34.713 186.639 20 160.04 20 130c0-19.431 6.156-37.423 16.625-52.132-7.125 3.632-13.1 1.544-15.57-3.396l-10-20c-2.47-4.94-.467-10.946 4.473-13.416l60-30c4.94-2.47 10.946-.468 13.416 4.472l10 20a9.954 9.954 0 0 1 1.043 5.023A91.01 91.01 0 0 1 110 40c3.385 0 6.726.187 10.013.55a9.954 9.954 0 0 1 1.043-5.022l10-20c2.47-4.94 8.476-6.942 13.416-4.472l60 30c4.94 2.47 6.942 8.476 4.472 13.416l-10 20c-2.47 4.94-8.444 7.028-15.569 3.396C193.844 92.577 200 110.568 200 130c0 30.04-14.713 56.64-37.326 72.987l6.27 12.54zM110 60c-38.59 0-70 31.41-70 70s31.41 70 70 70 70-31.41 70-70-31.41-70-70-70zm0 10c33.12 0 60 26.86 60 60 0 33.12-26.88 60-60 60-33.12 0-60-26.88-60-60 0-33.14 26.88-60 60-60zm0 10c-27.57 0-50 22.43-50 50s22.43 50 50 50 50-22.43 50-50-22.43-50-50-50zm10 40h20c5.5 0 10 4.5 10 10s-4.5 10-10 10h-30a9.97 9.97 0 0 1-7.063-2.938A9.97 9.97 0 0 1 100 130v-30c0-5.5 4.5-10 10-10s10 4.5 10 10v20z" fill-rule="nonzero" fill="#000"/></svg>