<svg xmlns="http://www.w3.org/2000/svg" width="240" height="240" viewBox="0 0 240 240"><title>button-b</title><g fill-rule="nonzero" fill="#000"><path d="M120 230c-60.751 0-110-49.249-110-110S59.249 10 120 10s110 49.249 110 110-49.249 110-110 110zm0-20c49.706 0 90-40.294 90-90s-40.294-90-90-90-90 40.294-90 90 40.294 90 90 90z"/><path d="M90 170c-5 0-10-3.333-10-10V80c0-5.523 4.477-10 10-10h40c16.57 0 30 13.43 30 30a29.89 29.89 0 0 1-7.638 20A29.888 29.888 0 0 1 160 140c0 16.57-13.428 30-30 30H90zm10-40v20h30c5.525 0 10-4.475 10-10 0-5.524-4.476-10-10-10h-30zm0-40v20h30c5.525 0 10-4.475 10-10 0-5.524-4.476-10-10-10h-30z"/></g></svg>