<svg xmlns="http://www.w3.org/2000/svg" width="240" height="240" viewBox="0 0 240 240"><title>button-a</title><path d="M120 230c-60.751 0-110-49.249-110-110S59.249 10 120 10s110 49.249 110 110-49.249 110-110 110zm0-20c49.706 0 90-40.294 90-90s-40.294-90-90-90-90 40.294-90 90 40.294 90 90 90zm-8.944-134.472c3.685-7.37 14.203-7.37 17.888 0l40 80c2.47 4.94.468 10.946-4.472 13.416-4.94 2.47-10.946.468-13.416-4.472L143.82 150H96.18l-7.236 14.472c-2.47 4.94-8.476 6.942-13.416 4.472-4.94-2.47-6.942-8.476-4.472-13.416l40-80zM133.82 130L120 102.36 106.18 130h27.64z" fill-rule="nonzero" fill="#000"/></svg>