<svg xmlns="http://www.w3.org/2000/svg" width="240" height="240" viewBox="0 0 240 240"><title>button-r</title><g fill="#000" fill-rule="evenodd"><path d="M20 10h140a10 10 0 0 1 7.071 2.929l60 60A10 10 0 0 1 230 80v140c0 5.523-4.477 10-10 10H20c-5.523 0-10-4.477-10-10V20c0-5.523 4.477-10 10-10zm10 200h180V84.142L155.858 30H30v180z" fill-rule="nonzero"/><path d="M148 154c3.314 4.418 2.418 10.686-2 14s-10.686 2.418-14-2l-27-36H90v30c0 5.523-4.477 10-10 10s-10-4.477-10-10V80a9.969 9.969 0 0 1 2.929-7.071A9.969 9.969 0 0 1 80 70h40c16.572 0 30 13.43 30 30 0 13.443-8.84 24.82-21.024 28.634L148 154zm-28-44c5.524 0 10-4.476 10-10 0-5.525-4.475-10-10-10H90v20h30z"/></g></svg>