<svg xmlns="http://www.w3.org/2000/svg" width="200" height="240" viewBox="0 0 200 240"><title>calendar</title><path d="M170 61.84V60c0-16.57-13.43-30-30-30s-30 13.43-30 30H90c0-16.57-13.43-30-30-30S30 43.43 30 60v1.84C18.39 65.99 10 76.98 10 90v90c0 16.54 13.46 30 30 30h120c16.54 0 30-13.46 30-30V90c0-13.02-8.39-24.01-20-28.16zM130 60c0-5.52 4.47-10 10-10s10 4.48 10 10v20c0 5.52-4.47 10-10 10s-10-4.48-10-10V60zm-80 0c0-5.52 4.47-10 10-10s10 4.48 10 10v20c0 5.52-4.47 10-10 10s-10-4.48-10-10V60zm120 120c0 5.51-4.48 10-10 10H40c-5.52 0-10-4.49-10-10v-60h140v60z" fill-rule="nonzero" fill="#000"/></svg>