<svg xmlns="http://www.w3.org/2000/svg" width="240" height="240" viewBox="0 0 240 240"><title>chat</title><path d="M160 70V60c0-5.527-4.472-10-10.001-10H30C24.478 50 20 54.478 20 60v70c0 5.526 4.473 10 10.001 10 5.523 0 10 4.477 10 10v5.857L52.93 142.93A10 10 0 0 1 60 140h10V89.99C70 78.948 78.954 70 90.01 70H160zm50-10c16.568 0 30 13.432 30 30v70c0 13.065-8.347 24.178-20.001 28.295V210c0 8.91-10.772 13.37-17.071 7.07L175.858 190H90c-15.249 0-27.843-11.381-29.75-26.107L37.072 187.07c-6.3 6.3-17.07 1.838-17.07-7.071v-21.705C8.346 154.178 0 143.065 0 130V60c0-16.568 13.432-30 30.001-30H150c16.576 0 30 13.429 30.001 30h30zM90.01 80C84.474 80 80 84.471 80 89.99v70.015a9.962 9.962 0 0 0 2.93 7.066A9.97 9.97 0 0 0 90 170h90a10 10 0 0 1 7.071 2.93L200 185.856V180c0-5.523 4.477-10 10.004-10 5.524 0 9.997-4.474 9.997-10V90a9.969 9.969 0 0 0-2.93-7.07A9.969 9.969 0 0 0 210 80H90.01z" fill-rule="nonzero" fill="#000"/></svg>