<svg xmlns="http://www.w3.org/2000/svg" width="200" height="240" viewBox="0 0 200 240"><title>citizen</title><path d="M40 160v20h120v-20H40zm-.406-10H160.52l6.184-52.56-19.632 19.631c-3.905 3.905-10.237 3.905-14.142 0L100 84.142l-32.929 32.93c-3.905 3.904-10.237 3.904-14.142 0L33.343 97.484 39.594 150zM180 190c0 5.523-4.477 10-10 10H30c-5.523 0-10-4.477-10-10v-35.407l-9.93-83.41c-1.122-9.426 10.29-14.966 17.001-8.254L60 95.858l32.929-32.93c3.905-3.904 10.237-3.904 14.142 0L140 95.859l32.929-32.93c6.707-6.706 18.11-1.18 17.003 8.24L180 155.586V190z" fill-rule="nonzero" fill="#000"/></svg>