<svg xmlns="http://www.w3.org/2000/svg" width="220" height="240" viewBox="0 0 220 240"><title>cloud</title><path d="M160 200H50c-22.06 0-40-17.94-40-40 0-18.61 12.77-34.29 30.01-38.74L40 120c0-33.09 26.91-60 60-60 25.87 0 48.24 16.38 56.5 40.15C185.92 97.69 210 121.28 210 150c0 27.57-22.43 50-50 50zM49.05 139.94C38.97 140 30 148.97 30 160s8.97 20 20 20h110c16.54 0 30-13.46 30-30s-13.46-30-30-30c-2.43 0-5 .41-8.1 1.3l-10.75 3.07-1.86-11.03C136.04 94.02 119.52 80 100 80c-22.06 0-40 17.94-40 40 0 2.72.27 5.45.82 8.11l2.44 11.99-14.21-.16z" fill-rule="nonzero" fill="#000"/></svg>