<svg xmlns="http://www.w3.org/2000/svg" width="200" height="240" viewBox="0 0 200 240"><title>comment-off</title><path d="M19.662 172.054C13.722 166.572 10 158.72 10 150V80c0-16.571 13.425-30 30.001-30h101.715l-20 20H40A9.994 9.994 0 0 0 30 80v70a9.983 9.983 0 0 0 3.839 7.877l-14.177 14.177zM184.949 63.335A29.859 29.859 0 0 1 190 80v70c0 13.065-8.347 24.178-20.001 28.295V200c0 8.91-10.772 13.37-17.071 7.07L125.858 180H68.284l20-20H130a10 10 0 0 1 7.071 2.93L150 175.856V170c0-5.523 4.477-10 10-10A9.996 9.996 0 0 0 170 150V80c0-.541-.043-1.072-.126-1.59l15.075-15.075zm-22.02-20.406c3.905-3.905 10.237-3.905 14.142 0 3.905 3.905 3.905 10.237 0 14.142l-140 140c-3.905 3.905-10.237 3.905-14.142 0-3.905-3.905-3.905-10.237 0-14.142l140-140z" fill-rule="nonzero" fill="#000"/></svg>