<svg xmlns="http://www.w3.org/2000/svg" width="190" height="240" viewBox="0 0 190 240"><title>delete-off</title><path d="M138.045 43.67L121.715 60H65.008A5.002 5.002 0 0 0 60 65v5h51.716l-20 20H50v41.716l-20 20V90H20c-5.523 0-10-4.477-10-10s4.477-10 10-10h20v-5c0-13.81 11.197-25 25.007-25h59.986c4.784 0 9.253 1.342 13.052 3.67zM168.285 70H170c5.523 0 10 4.477 10 10s-4.477 10-10 10h-10v90.008C160 196.569 146.565 210 130.008 210H59.992c-8.716 0-16.566-3.722-22.046-9.662l14.177-14.176a9.978 9.978 0 0 0 7.87 3.838h70.015c5.512 0 9.992-4.478 9.992-9.992V98.284L168.284 70zm-88.997 32.427L70 111.716V105a5 5 0 0 1 9.288-2.573zM80 158.284V175a5 5 0 1 1-10 0v-6.716l10-10zm20-20V175a5 5 0 1 1-10 0v-26.716l10-10zm20-20V175a5 5 0 1 1-10 0v-46.716l10-10zm42.929-85.355c3.905-3.905 10.237-3.905 14.142 0 3.905 3.905 3.905 10.237 0 14.142l-150 150c-3.905 3.905-10.237 3.905-14.142 0-3.905-3.905-3.905-10.237 0-14.142l150-150z" fill-rule="nonzero" fill="#000"/></svg>