<svg width="150" height="240" viewBox="0 0 150 240" xmlns="http://www.w3.org/2000/svg"><title>device-phone</title><path d="M110 30H40c-16.54 0-30 13.46-30 30v120c0 16.54 13.46 30 30 30h70c16.54 0 30-13.46 30-30V60c0-16.54-13.46-30-30-30zm10 150c0 5.51-4.49 10-10 10H40c-5.51 0-10-4.49-10-10V60c0-5.51 4.49-10 10-10h70c5.51 0 10 4.49 10 10v120zM100 60H50c-5.5 0-10 4.5-10 10v90c0 5.5 4.5 10 10 10h15c0 5.53 4.48 10 10 10s10-4.47 10-10h15c5.5 0 10-4.5 10-10V70c0-5.5-4.5-10-10-10zm0 100H50V70h50v90z" fill-rule="nonzero" fill="#000"/></svg>