<svg xmlns="http://www.w3.org/2000/svg" width="200" height="240" viewBox="0 0 200 240"><title>download</title><path d="M147.07 74.04c-1.89-1.88-4.48-2.83-7.07-2.83s-5.18.95-7.07 2.83L110 96.97V30c0-5.52-4.48-10-10-10s-10 4.48-10 10v66.97L67.07 74.04A9.974 9.974 0 0 0 60 71.11c-2.67 0-5.18 1.05-7.07 2.93-3.9 3.9-3.9 10.24 0 14.14L100 135l47.09-46.84c3.88-3.87 3.88-10.22-.02-14.12zm42.8 85.96c0-1.05-.04-2.11-.39-3.16l-20-60A9.978 9.978 0 0 0 160 90h-2.19c-.94 1.88-2.1 3.68-3.67 5.25L139.32 110h13.48l16.67 50H30.54l16.67-50h13.48L45.86 95.25c-1.57-1.57-2.74-3.37-3.67-5.25H40c-4.31 0-8.12 2.75-9.48 6.84l-20 60c-.35 1.05-.39 2.11-.39 3.16-.13 0-.13 50-.13 50 0 5.53 4.47 10 10 10h160c5.53 0 10-4.47 10-10 0 0 0-50-.13-50z" fill-rule="nonzero" fill="#000"/></svg>