<svg xmlns="http://www.w3.org/2000/svg" width="230" height="240" viewBox="0 0 230 240"><title>ds</title><path d="M30 130v70h170v-70H30zm0-10h170V50H30v70zM20 30h190c5.523 0 10 4.477 10 10v170c0 5.523-4.477 10-10 10H20c-5.523 0-10-4.477-10-10V40c0-5.523 4.477-10 10-10zm60 115c0-2.761 2.23-5 5.006-5h59.988a5.008 5.008 0 0 1 5.006 5v40c0 2.761-2.23 5-5.006 5H85.006A5.008 5.008 0 0 1 80 185v-40zm95 25a5 5 0 1 1 0-10 5 5 0 0 1 0 10zm-10-10a5 5 0 1 1 0-10 5 5 0 0 1 0 10zm20 0a5 5 0 1 1 0-10 5 5 0 0 1 0 10zm-10-10a5 5 0 1 1 0-10 5 5 0 0 1 0 10zm-135 5c0-2.761 2.244-5 5-5h5v-5c0-2.761 2.244-5 5-5 2.761 0 5 2.244 5 5v5h5c2.761 0 5 2.244 5 5 0 2.761-2.244 5-5 5h-5v5c0 2.761-2.244 5-5 5-2.761 0-5-2.244-5-5v-5h-5c-2.761 0-5-2.244-5-5zm40-90c0-2.761 2.23-5 5.006-5h59.988A5.008 5.008 0 0 1 150 65v40c0 2.761-2.23 5-5.006 5H85.006A5.008 5.008 0 0 1 80 105V65z" fill="#000" fill-rule="evenodd"/></svg>