<svg xmlns="http://www.w3.org/2000/svg" width="220" height="240" viewBox="0 0 220 240"><title>edit</title><path d="M115.858 60l37.07-37.071c3.906-3.905 10.238-3.905 14.143 0l40 40c3.905 3.905 3.905 10.237 0 14.142L170 114.142V200c0 5.523-4.477 10-10 10H30c-5.523 0-10-4.477-10-10V70c0-5.523 4.477-10 10-10h85.858zm-20 20H40v110h110v-55.858l-22.929 22.93A10 10 0 0 1 120 160H70v-50a10 10 0 0 1 2.929-7.071L95.858 80zm-.251 28.536l25.857 25.857L185.858 70 160 44.142l-64.393 64.394zm17.314 31.456L90 117.072v22.856l22.92.064z" fill="#000" fill-rule="evenodd"/></svg>