<svg xmlns="http://www.w3.org/2000/svg" width="200" height="240" viewBox="0 0 200 240"><title>envelope</title><path d="M170 102.929v-2.93c0-5.521-4.478-9.999-10.001-9.999H40A9.994 9.994 0 0 0 30 100v2.929L57.071 130h85.858L170 102.929zm0 14.142l-21.464 21.465A5 5 0 0 1 145 140H55a5 5 0 0 1-3.536-1.464L30 117.07v52.93c0 5.521 4.478 9.999 10.001 9.999H160A9.994 9.994 0 0 0 170 170v-52.929zM10 100c0-16.571 13.425-30 30.001-30H160C176.568 70 190 83.432 190 100v70c0 16.571-13.425 30-30.001 30H40C23.432 200 10 186.568 10 170v-70z" fill-rule="nonzero" fill="#000"/></svg>