<svg xmlns="http://www.w3.org/2000/svg" width="220" height="240" viewBox="0 0 220 240"><title>eye-off</title><path d="M145.192 56.524l-15.893 15.893C123.129 70.83 116.696 70 110 70c-23.305 0-43.411 10.053-60.429 27.071-6.065 6.066-11.284 12.589-15.625 19.101A114.742 114.742 0 0 0 31.499 120a114.742 114.742 0 0 0 2.447 3.828c4.34 6.512 9.56 13.035 15.625 19.1a116.813 116.813 0 0 0 4.735 4.482l-14.162 14.162a138.378 138.378 0 0 1-4.715-4.5c-7.06-7.06-13.09-14.6-18.125-22.15a126.851 126.851 0 0 1-4.58-7.382 67.318 67.318 0 0 1-1.668-3.068 10 10 0 0 1 0-8.944c.315-.63.87-1.672 1.668-3.068a126.851 126.851 0 0 1 4.58-7.382c5.034-7.55 11.065-15.09 18.125-22.15C55.91 62.448 80.805 50 110 50c12.525 0 24.259 2.29 35.192 6.524zm34.664 21.904a138.38 138.38 0 0 1 4.715 4.5c7.06 7.06 13.09 14.6 18.125 22.15a126.851 126.851 0 0 1 4.58 7.382 67.317 67.317 0 0 1 1.668 3.068 10 10 0 0 1 0 8.944c-.315.63-.87 1.672-1.668 3.068a126.851 126.851 0 0 1-4.58 7.382c-5.034 7.55-11.065 15.09-18.125 22.15C164.09 177.552 139.195 190 110 190c-12.525 0-24.259-2.29-35.192-6.524l15.893-15.893C96.871 169.17 103.304 170 110 170c23.305 0 43.411-10.053 60.429-27.071 6.065-6.066 11.284-12.589 15.625-19.101.895-1.341 1.71-2.621 2.447-3.828a114.743 114.743 0 0 0-2.447-3.828c-4.34-6.512-9.56-13.035-15.625-19.1a116.813 116.813 0 0 0-4.735-4.482l14.162-14.162zm-71.526 71.526l31.624-31.624c.03.553.046 1.11.046 1.67 0 16.569-13.431 30-30 30-.56 0-1.117-.015-1.67-.046zM80.046 121.67A30.48 30.48 0 0 1 80 120c0-16.569 13.431-30 30-30 .56 0 1.117.015 1.67.046L80.046 121.67zm92.883-78.741c3.905-3.905 10.237-3.905 14.142 0 3.905 3.905 3.905 10.237 0 14.142l-140 140c-3.905 3.905-10.237 3.905-14.142 0-3.905-3.905-3.905-10.237 0-14.142l140-140z" fill-rule="nonzero" fill="#000"/></svg>