<svg xmlns="http://www.w3.org/2000/svg" width="240" height="240" viewBox="0 0 240 240"><title>face-smile</title><g fill="#000" fill-rule="evenodd"><path d="M220 10c5.523 0 10 4.477 10 10v200c0 5.523-4.477 10-10 10H20c-5.523 0-10-4.477-10-10V20c0-5.523 4.477-10 10-10h200zM30 30v180h180V30H30z" fill-rule="nonzero"/><path d="M63.103 157.241c-3.999-3.808-4.153-10.138-.344-14.138 3.808-3.999 10.138-4.153 14.214-.275.14.128.318.286.531.47a54.367 54.367 0 0 0 2.348 1.91 75.417 75.417 0 0 0 9.218 6.065c9.782 5.473 20.4 8.727 31.43 8.727 11.03 0 21.648-3.254 31.43-8.727a75.416 75.416 0 0 0 9.218-6.065 54.366 54.366 0 0 0 2.348-1.91c.213-.184.39-.342.607-.54 4-3.808 10.33-3.654 14.138.345 3.81 4 3.655 10.33-.344 14.138-.277.264-.716.663-1.313 1.18a74.251 74.251 0 0 1-3.217 2.62 95.314 95.314 0 0 1-11.672 7.686C149.134 175.754 135.282 180 120.5 180s-28.634-4.246-41.195-11.273a95.314 95.314 0 0 1-11.672-7.685 74.25 74.25 0 0 1-3.217-2.621 39.092 39.092 0 0 1-1.313-1.18zM150 70c0-5.523 4.477-10 10-10s10 4.477 10 10v30c0 5.523-4.477 10-10 10s-10-4.477-10-10V70zm-80 0c0-5.523 4.477-10 10-10s10 4.477 10 10v30c0 5.523-4.477 10-10 10s-10-4.477-10-10V70z"/></g></svg>