<svg xmlns="http://www.w3.org/2000/svg" width="240" height="240" viewBox="0 0 240 240"><title>face-bored</title><g fill-rule="nonzero" fill="#000"><path d="M220 10c5.523 0 10 4.477 10 10v200c0 5.523-4.477 10-10 10H20c-5.523 0-10-4.477-10-10V20c0-5.523 4.477-10 10-10h200zM30 30v180h180V30H30z"/><path d="M90 180c-5.523 0-10-4.477-10-10s4.477-10 10-10h60c5.523 0 10 4.477 10 10s-4.477 10-10 10H90zm0-90c5.523 0 10 4.477 10 10s-4.477 10-10 10H70c-5.523 0-10-4.477-10-10s4.477-10 10-10h20zm60 20c-5.523 0-10-4.477-10-10s4.477-10 10-10h20c5.523 0 10 4.477 10 10s-4.477 10-10 10h-20z"/></g></svg>