<svg xmlns="http://www.w3.org/2000/svg" width="180" height="240" viewBox="0 0 180 240"><title>heart</title><path d="M90 197c-1.548 0-2.857-.535-3.929-1.605L30.357 141.7c-.595-.476-1.414-1.25-2.455-2.32-1.042-1.07-2.694-3.017-4.956-5.842a78.929 78.929 0 0 1-6.071-8.696c-1.786-2.973-3.378-6.57-4.777-10.792C10.7 109.829 10 105.726 10 101.742c0-13.081 3.78-23.309 11.34-30.682C28.898 63.687 39.344 60 52.678 60c3.69 0 7.455.64 11.294 1.918a45.733 45.733 0 0 1 10.715 5.173c3.303 2.17 6.145 4.207 8.526 6.11A82.236 82.236 0 0 1 90 79.266a82.236 82.236 0 0 1 6.786-6.065c2.38-1.903 5.223-3.94 8.526-6.11a45.733 45.733 0 0 1 10.715-5.173C119.867 60.639 123.63 60 127.32 60c13.334 0 23.78 3.687 31.34 11.06C166.22 78.433 170 88.66 170 101.742c0 13.141-6.815 26.52-20.446 40.137l-55.625 53.516C92.857 196.465 91.548 197 90 197z" fill-rule="nonzero" fill="#000"/></svg>