<svg xmlns="http://www.w3.org/2000/svg" width="180" height="240" viewBox="0 0 180 240"><title>note</title><path d="M140 210H40c-16.54 0-30-13.46-30-30V60c0-16.54 13.46-30 30-30h100c16.54 0 30 13.46 30 30v120c0 16.54-13.46 30-30 30zM40 50c-5.51 0-10 4.49-10 10v120c0 5.51 4.49 10 10 10h100c5.51 0 10-4.49 10-10V60c0-5.51-4.49-10-10-10H40zm90 60H50c-2.76 0-5-2.24-5-5s2.24-5 5-5h80c2.76 0 5 2.24 5 5s-2.24 5-5 5zm0-30H50c-2.76 0-5-2.24-5-5s2.24-5 5-5h80c2.76 0 5 2.24 5 5s-2.24 5-5 5zm0 60H50c-2.76 0-5-2.24-5-5s2.24-5 5-5h80c2.76 0 5 2.24 5 5s-2.24 5-5 5zm0 30H50c-2.76 0-5-2.24-5-5s2.24-5 5-5h80c2.76 0 5 2.24 5 5s-2.24 5-5 5z" fill-rule="nonzero" fill="#000"/></svg>