<svg xmlns="http://www.w3.org/2000/svg" width="220" height="240" viewBox="0 0 220 240"><title>post</title><path d="M90 60H74.995c-2.759 0-3.415-1.58-1.463-3.532L110 20l36.468 36.468c1.95 1.95 1.296 3.532-1.463 3.532H130v10h60.001C201.047 70 210 78.96 210 90.005v89.99c0 11.048-8.949 20.005-19.999 20.005H30C18.953 200 10 191.04 10 179.995v-89.99C10 78.957 18.949 70 29.999 70H90V60zM80 70v20H30v2.928L57.07 120H162.93L190 92.929v-2.924l-50-.003V70h-10v20.01c0 5.517-4.472 9.99-9.99 9.99H99.99c-5.517 0-9.99-4.472-9.99-9.99V70H80zm88.536 58.536A5 5 0 0 1 165 130H55a5 5 0 0 1-3.536-1.464L30 107.07v72.924c0 .003 160 .005 160 .005v-72.929l-21.464 21.465z" fill="#000" fill-rule="evenodd"/></svg>