<svg xmlns="http://www.w3.org/2000/svg" width="160" height="240" viewBox="0 0 160 240"><title>snowman</title><path d="M31.001 100.009C27.164 92.506 25 84.006 25 75c0-30.376 24.624-55 55-55s55 24.624 55 55c0 9.006-2.164 17.506-6.001 25.009C141.959 112.713 150 130.418 150 150c0 38.66-31.34 70-70 70s-70-31.34-70-70c0-19.582 8.041-37.287 21.001-49.991zm29.387 3.984C42.522 111.62 30 129.347 30 150c0 27.614 22.386 50 50 50s50-22.386 50-50c0-20.653-12.522-38.381-30.388-46.007C108.898 97.7 115 87.063 115 75c0-19.33-15.67-35-35-35S45 55.67 45 75c0 12.062 6.102 22.7 15.388 28.993z" fill-rule="nonzero" fill="#000"/></svg>