<svg xmlns="http://www.w3.org/2000/svg" width="220" height="240" viewBox="0 0 220 240"><title>suit-hearts</title><path d="M110 120c-5.523 0-10-4-10.207-10-1.871-16.852-16.2-30-33.543-30-18.61 0-33.75 15.14-33.75 33.75 0 10.93 1.73 23.84 14.57 36.68 12.12 12.12 48.83 37.75 62.93 47.46 14.1-9.71 50.81-35.34 62.93-47.46 12.84-12.84 14.57-25.75 14.57-36.68 0-18.61-15.14-33.75-33.75-33.75-17.343 0-31.672 13.148-33.543 30-.207 6-4.684 10-10.207 10zm-5.61 98.28c-2.25-1.51-55.08-37.3-71.46-53.71-18.31-18.31-20.43-37.77-20.43-50.82C12.5 84.11 36.61 60 66.25 60c18.02 0 33.98 8.91 43.75 22.56C119.77 68.91 135.73 60 153.75 60c29.64 0 53.75 24.11 53.75 53.75 0 13.05-2.12 32.51-20.43 50.82-16.41 16.41-69.23 52.2-71.46 53.71a10.005 10.005 0 0 1-11.22 0z" fill="#000" fill-rule="evenodd"/></svg>