<svg xmlns="http://www.w3.org/2000/svg" width="220" height="240" viewBox="0 0 220 240"><title>sun</title><g fill-rule="nonzero" fill="#000"><path d="M100 30v20c0 5.523 4.477 10 10 10s10-4.477 10-10V30c0-5.523-4.477-10-10-10s-10 4.477-10 10zm66.569 19.29L152.426 63.43c-3.905 3.906-3.905 10.237 0 14.143 3.906 3.905 10.237 3.905 14.143 0L180.71 63.43c3.905-3.905 3.905-10.236 0-14.142-3.906-3.905-10.237-3.905-14.142 0zM200 110h-20c-5.523 0-10 4.477-10 10s4.477 10 10 10h20c5.523 0 10-4.477 10-10s-4.477-10-10-10zm-19.29 66.569l-14.141-14.143c-3.906-3.905-10.237-3.905-14.143 0-3.905 3.906-3.905 10.237 0 14.143l14.143 14.142c3.905 3.905 10.236 3.905 14.142 0 3.905-3.906 3.905-10.237 0-14.142zM120 210v-20c0-5.523-4.477-10-10-10s-10 4.477-10 10v20c0 5.523 4.477 10 10 10s10-4.477 10-10zm-66.569-19.29l14.143-14.141c3.905-3.906 3.905-10.237 0-14.143-3.906-3.905-10.237-3.905-14.143 0L39.29 176.57c-3.905 3.905-3.905 10.236 0 14.142 3.906 3.905 10.237 3.905 14.142 0zM20 130h20c5.523 0 10-4.477 10-10s-4.477-10-10-10H20c-5.523 0-10 4.477-10 10s4.477 10 10 10zm19.29-66.569L53.43 77.574c3.906 3.905 10.237 3.905 14.143 0 3.905-3.906 3.905-10.237 0-14.143L53.43 49.29c-3.905-3.905-10.236-3.905-14.142 0-3.905 3.906-3.905 10.237 0 14.142zM110 160c-22.091 0-40-17.909-40-40s17.909-40 40-40 40 17.909 40 40-17.909 40-40 40zm0-20c11.046 0 20-8.954 20-20s-8.954-20-20-20-20 8.954-20 20 8.954 20 20 20z"/></g></svg>