<svg xmlns="http://www.w3.org/2000/svg" width="220" height="240" viewBox="0 0 220 240"><title>tags</title><path d="M204.22 95.94l-64.65-65.35C126.28 17.29 108.7 10 90 10s-36.28 7.29-49.5 20.51C26.34 44.65 19.23 64.07 20.23 83.65 13.61 94.5 10 106.95 10 119.99c0 18.7 7.29 36.28 20.51 49.5l30.53 29.84 34.82 34.8A19.89 19.89 0 0 0 110 240c5.12 0 10.23-1.95 14.14-5.86l70-70c7.78-7.78 7.82-20.38.08-28.2l-.93-.94 10.85-10.86c7.78-7.78 7.82-20.38.08-28.2zM110 220l-34.98-34.97-30.37-29.68c-19.53-19.53-19.53-51.19 0-70.7C54.41 74.88 67.21 70 80 70c12.79 0 25.59 4.88 35.35 14.65L180 150l-70 70zm19.57-149.41C116.28 57.29 98.7 50 80 50c-12.76 0-24.97 3.47-35.65 9.82 2.41-5.5 5.79-10.67 10.3-15.18C64.41 34.88 77.21 30 90 30c12.79 0 25.59 4.88 35.35 14.65L190 110l-10.78 10.78-49.65-50.19zM80 104.99c8.3 0 15 6.72 15 15.01 0 8.3-6.7 14.99-15 14.99S65 128.3 65 120c0-8.29 6.7-15.01 15-15.01zm0-10c-13.78 0-25 11.22-25 25.01 0 13.78 11.22 24.99 25 24.99s25-11.21 25-24.99c0-13.79-11.22-25.01-25-25.01z" fill-rule="nonzero" fill="#000"/></svg>