<svg xmlns="http://www.w3.org/2000/svg" width="240" height="240" viewBox="0 0 240 240"><title>user-card</title><g transform="translate(10 40)" fill-rule="nonzero" fill="#000"><path d="M190 160H30c-16.54 0-30-13.46-30-30V30C0 13.46 13.46 0 30 0h160c16.54 0 30 13.46 30 30v100c0 16.54-13.46 30-30 30zM30 20c-5.51 0-10 4.49-10 10v100c0 5.51 4.49 10 10 10h160c5.51 0 10-4.49 10-10V30c0-5.51-4.49-10-10-10H30zm60 90H50c-5.53 0-10-4.48-10-10s4.47-10 10-10h40c5.53 0 10 4.48 10 10s-4.47 10-10 10zm0-40H50c-5.53 0-10-4.48-10-10s4.47-10 10-10h40c5.53 0 10 4.48 10 10s-4.47 10-10 10z"/><circle cx="150" cy="65" r="20"/><path d="M150 93.56c-15.62 0-25 7.15-25 14.29 0 3.57 9.38 7.15 25 7.15 14.66 0 25-3.57 25-7.15 0-7.14-9.8-14.29-25-14.29z"/></g></svg>