<svg xmlns="http://www.w3.org/2000/svg" width="170" height="240" viewBox="0 0 170 240"><title>volume-on</title><path d="M111.38 48.24c-4.49 0-9.05 1.52-13.56 4.53L71.1 70.58C63.57 75.61 49.04 80 40 80c-16.54 0-30 13.46-30 30v20c0 16.54 13.46 30 30 30 9.04 0 23.57 4.39 31.09 9.41l26.72 17.81c4.51 3.01 9.07 4.53 13.56 4.53 8.98.01 18.63-6.8 18.63-21.75V70c0-14.95-9.65-21.76-18.62-21.76zM80 151.46C69.07 144.95 52.11 140 40 140c-5.52 0-10-4.48-10-10v-20c0-5.52 4.48-10 10-10 12.11 0 29.07-4.95 40-11.46v62.92zM110 170l-.06 1.2-1.04-.62-18.9-12.6V82.02l18.91-12.61 1.04-.62L110 70v100z" fill-rule="nonzero" fill="#000"/></svg>