<svg xmlns="http://www.w3.org/2000/svg" width="200" height="240" viewBox="0 0 200 240"><title>x</title><path d="M100 125.858l-72.929-72.93c-3.905-3.904-10.237-3.904-14.142 0-3.905 3.906-3.905 10.238 0 14.143L85.858 140l-72.93 72.929c-3.904 3.905-3.904 10.237 0 14.142 3.906 3.905 10.238 3.905 14.143 0L100 154.142l72.929 72.93c3.905 3.904 10.237 3.904 14.142 0 3.905-3.906 3.905-10.238 0-14.143L114.142 140l72.93-72.929c3.904-3.905 3.904-10.237 0-14.142-3.906-3.905-10.238-3.905-14.143 0L100 125.858z" fill-rule="nonzero" fill="#000"/></svg>